#VRML V2.0 utf8
# 3D model generated by easyeda2kicad.py (https://github.com/uPesy/easyeda2kicad.py)

Shape{
    appearance Appearance {
        material  Material 	{
            diffuseColor 0.6666666666666666 0.6666666666666666 0.6666666666666666
            specularColor 0.4666666666666667 0.4666666666666667 0.4666666666666667
            ambientIntensity 0.6667
            transparency 0.0
            shininess 0.5
        }
    }
    geometry IndexedFaceSet {
        ccw TRUE
        solid FALSE
        coord DEF co Coordinate {
            point [
                2.3327 -1.2205 0.0984, 2.2736 -1.2205 0.0984, 2.3327 -0.3937 0.0984, 2.2736 -0.3937 0.0984, 1.3681 0.5905 0.9252, 1.3681 0.5905 0.9843, 2.2736 0.5905 0.9252, 2.2539 0.5905 0.9843, 2.2743 0.5905 0.9816, 2.3327 0.5905 0.0984, 2.2736 0.5905 0.0984, 2.3327 0.5905 0.9055, 2.33 0.5905 0.9259, 2.3221 0.5905 0.9449, 2.2933 0.5905 0.9737, 2.3096 0.5905 0.9612, -1.8012 -1.2205 0.0, -1.8012 -1.2205 0.0591, -2.0571 -1.2205 0.0, -2.0768 -1.2205 0.0591, -2.0775 -1.2205 0.0027, -2.0965 -1.2205 0.0105, 2.2736 -1.2205 0.9252, 2.3327 -1.2205 0.9055, 2.33 -1.2205 0.9259, -2.1331 -1.2205 0.0584, -2.1253 -1.2205 0.0394, -2.1128 -1.2205 0.0231, 2.3221 -1.2205 0.9449, 2.3096 -1.2205 0.9612, 2.2933 -1.2205 0.9737, 2.2743 -1.2205 0.9816, 2.2539 -1.2205 0.9843, -2.0768 -1.2205 0.9252, -2.0571 -1.2205 0.9843, -2.0775 -1.2205 0.9816, -2.1253 -1.2205 0.9449, -2.1331 -1.2205 0.9259, -2.1358 -1.2205 0.9055, -2.1358 -1.2205 0.0787, -2.0965 -1.2205 0.9737, -2.1128 -1.2205 0.9612, -2.1358 0.1968 0.0984, -2.1358 0.5905 0.0984, -2.0768 0.1968 0.0984, -2.0768 0.5905 0.0984, -2.0768 0.5905 0.9252, -2.0768 0.1968 0.0591, -1.1156 0.6136 0.9252, -1.1031 0.6299 0.9252, 1.3477 0.5932 0.9252, -1.1713 0.5905 0.9252, -1.1509 0.5932 0.9252, -1.1319 0.6011 0.9252, 1.2921 0.6489 0.9252, 1.2999 0.6299 0.9252, 1.3124 0.6136 0.9252, 1.3287 0.6011 0.9252, -1.0925 0.6693 0.9252, -1.0925 0.8661 0.9252, 1.2894 0.8661 0.9252, -1.0952 0.6489 0.9252, 1.2894 0.6693 0.9252, 2.2736 -0.0 0.0984, 2.2736 -0.3937 0.0591, 2.2736 -0.0 0.0591, 2.3327 -0.0 0.0984, 2.3327 -0.3937 0.0787, 2.3327 -0.0 0.0787, 1.3477 0.5932 0.9843, 1.3287 0.6011 0.9843, 1.3124 0.6136 0.9843, 1.2999 0.6299 0.9843, -1.1031 0.6299 0.9843, 1.2921 0.6489 0.9843, -1.1319 0.6011 0.9843, -1.1509 0.5932 0.9843, -1.1713 0.5905 0.9843, -2.0571 0.5905 0.9843, -1.1156 0.6136 0.9843, 1.2894 0.8661 0.9843, -1.0925 0.8661 0.9843, 1.2894 0.6693 0.9843, -1.0925 0.6693 0.9843, -1.0952 0.6489 0.9843, -2.1358 0.1968 0.0787, -2.1358 0.5905 0.9055, -2.1128 0.5905 0.9612, -2.0965 0.5905 0.9737, -2.0775 0.5905 0.9816, -2.1331 0.5905 0.9259, -2.1253 0.5905 0.9449, 1.2106 0.9449 0.6693, -1.0138 0.9449 0.6693, -1.0925 0.9449 0.9055, 1.2867 0.9449 0.7277, 1.2894 0.9449 0.748, 1.2894 0.9449 0.9055, -1.0342 0.9449 0.672, -1.0898 0.9449 0.7277, -1.0925 0.9449 0.748, -1.0531 0.9449 0.6798, -1.0695 0.9449 0.6924, -1.082 0.9449 0.7087, 1.25 0.9449 0.6798, 1.231 0.9449 0.672, 1.2663 0.9449 0.6924, 1.2788 0.9449 0.7087, -1.0925 0.9422 0.9259, 1.2894 0.9422 0.9259, -1.0925 0.9343 0.9449, 1.2894 0.9343 0.9449, -1.0925 0.9218 0.9612, 1.2894 0.9218 0.9612, -1.0925 0.9055 0.9737, 1.2894 0.9055 0.9737, -1.0925 0.8865 0.9816, 1.2894 0.8865 0.9816, 1.2894 0.8712 0.9245, -1.0925 0.8712 0.9245, 1.2894 0.876 0.9226, -1.0925 0.876 0.9226, 1.2894 0.8801 0.9194, -1.0925 0.8801 0.9194, 1.2894 0.8832 0.9154, -1.0925 0.8832 0.9154, 1.2894 0.8852 0.9106, -1.0925 0.8852 0.9106, 1.2894 0.8858 0.9055, -1.0925 0.8858 0.9055, -1.0138 0.8858 0.6693, 1.2106 0.8858 0.6693, 1.2894 0.8858 0.748, 1.2867 0.8858 0.7277, 1.231 0.8858 0.672, 1.25 0.8858 0.6798, 1.2663 0.8858 0.6924, -1.0531 0.8858 0.6798, -1.0898 0.8858 0.7277, -1.0695 0.8858 0.6924, -1.082 0.8858 0.7087, -1.0925 0.8858 0.748, -1.0342 0.8858 0.672, 1.2788 0.8858 0.7087
            ]
        }
        coordIndex [
            0,1,2,-1,2,1,3,-1,4,5,6,-1,6,5,7,-1,6,7,8,-1,9,10,11,-1,11,10,6,-1,11,6,12,-1,12,6,13,-1,8,14,6,-1,6,14,15,-1,6,15,13,-1,16,17,18,-1,18,17,19,-1,18,19,20,-1,20,19,21,-1,1,0,22,-1,22,0,23,-1,22,23,24,-1,25,26,19,-1,19,26,27,-1,19,27,21,-1,24,28,22,-1,22,28,29,-1,22,29,30,-1,30,31,22,-1,22,31,32,-1,22,32,33,-1,33,32,34,-1,33,34,35,-1,36,37,33,-1,33,37,38,-1,33,38,19,-1,19,38,39,-1,19,39,25,-1,35,40,33,-1,33,40,41,-1,33,41,36,-1,42,43,44,-1,44,43,45,-1,45,46,44,-1,44,46,33,-1,44,33,47,-1,47,33,19,-1,48,49,22,-1,6,22,4,-1,4,22,50,-1,46,51,33,-1,33,51,52,-1,33,52,22,-1,22,52,53,-1,22,53,48,-1,54,55,49,-1,49,55,56,-1,49,56,22,-1,22,56,57,-1,22,57,50,-1,58,59,60,-1,49,61,54,-1,54,61,58,-1,54,58,62,-1,62,58,60,-1,6,10,22,-1,22,10,63,-1,1,22,3,-1,3,22,63,-1,3,63,64,-1,64,63,65,-1,63,10,66,-1,66,10,9,-1,66,9,11,-1,23,0,2,-1,67,68,2,-1,2,68,66,-1,2,66,23,-1,23,66,11,-1,7,5,32,-1,32,5,69,-1,32,69,70,-1,71,72,73,-1,73,72,74,-1,75,76,34,-1,34,76,77,-1,34,77,78,-1,75,34,79,-1,79,34,32,-1,79,32,73,-1,73,32,70,-1,73,70,71,-1,80,81,82,-1,82,81,83,-1,82,83,74,-1,74,83,84,-1,74,84,73,-1,85,39,42,-1,42,39,38,-1,42,38,43,-1,43,38,86,-1,77,51,78,-1,78,51,46,-1,45,43,46,-1,46,43,86,-1,87,88,46,-1,46,88,89,-1,46,89,78,-1,86,90,46,-1,46,90,91,-1,46,91,87,-1,7,32,31,-1,7,31,8,-1,8,31,30,-1,8,30,14,-1,14,30,29,-1,14,29,15,-1,15,29,28,-1,15,28,13,-1,13,28,24,-1,13,24,12,-1,12,24,23,-1,12,23,11,-1,86,38,37,-1,86,37,90,-1,90,37,36,-1,90,36,91,-1,91,36,41,-1,91,41,87,-1,87,41,40,-1,87,40,88,-1,88,40,35,-1,88,35,89,-1,89,35,34,-1,89,34,78,-1,92,93,94,-1,95,92,96,-1,96,92,94,-1,96,94,97,-1,98,99,93,-1,93,99,100,-1,93,100,94,-1,98,101,99,-1,99,101,102,-1,99,102,103,-1,104,105,106,-1,106,105,92,-1,106,92,107,-1,107,92,95,-1,97,94,108,-1,97,108,109,-1,109,108,110,-1,109,110,111,-1,111,110,112,-1,111,112,113,-1,113,112,114,-1,113,114,115,-1,115,114,116,-1,115,116,117,-1,117,116,81,-1,117,81,80,-1,60,59,118,-1,118,59,119,-1,118,119,120,-1,120,119,121,-1,120,121,122,-1,122,121,123,-1,122,123,124,-1,124,123,125,-1,124,125,126,-1,126,125,127,-1,126,127,128,-1,128,127,129,-1,129,130,128,-1,128,130,131,-1,128,131,132,-1,132,131,133,-1,134,135,136,-1,137,138,139,-1,139,138,140,-1,129,141,130,-1,130,141,138,-1,130,138,142,-1,142,138,137,-1,134,136,131,-1,131,136,143,-1,131,143,133,-1,93,92,130,-1,130,92,131,-1,132,96,128,-1,128,96,97,-1,128,97,126,-1,126,97,109,-1,126,109,124,-1,124,109,111,-1,124,111,122,-1,122,111,113,-1,122,113,120,-1,120,113,115,-1,120,115,118,-1,118,115,117,-1,118,117,60,-1,60,117,80,-1,60,80,62,-1,62,80,82,-1,58,83,59,-1,59,83,81,-1,59,81,119,-1,119,81,116,-1,119,116,121,-1,121,116,114,-1,121,114,123,-1,123,114,112,-1,123,112,125,-1,125,112,110,-1,125,110,127,-1,127,110,108,-1,127,108,129,-1,129,108,94,-1,129,94,141,-1,141,94,100,-1,93,130,142,-1,93,142,98,-1,98,142,137,-1,98,137,101,-1,101,137,139,-1,101,139,102,-1,102,139,140,-1,102,140,103,-1,103,140,138,-1,103,138,99,-1,99,138,141,-1,99,141,100,-1,131,92,105,-1,131,105,134,-1,134,105,104,-1,134,104,135,-1,135,104,106,-1,135,106,136,-1,136,106,107,-1,136,107,143,-1,143,107,95,-1,143,95,133,-1,133,95,96,-1,133,96,132,-1,62,82,54,-1,54,82,74,-1,54,74,55,-1,55,74,72,-1,55,72,56,-1,56,72,71,-1,56,71,57,-1,57,71,70,-1,57,70,50,-1,50,70,69,-1,50,69,4,-1,4,69,5,-1,83,58,84,-1,84,58,61,-1,84,61,73,-1,73,61,49,-1,73,49,79,-1,79,49,48,-1,79,48,75,-1,75,48,53,-1,75,53,76,-1,76,53,52,-1,76,52,77,-1,77,52,51,-1,
        ]
    }
}
Shape{
    appearance Appearance {
        material  Material 	{
            diffuseColor 0.8274509803921568 0.6666666666666666 0.12941176470588237
            specularColor 0.8274509803921568 0.6666666666666666 0.12941176470588237
            ambientIntensity 0.6535
            transparency 0.0
            shininess 0.5
        }
    }
    geometry IndexedFaceSet {
        ccw TRUE
        solid FALSE
        coord DEF co Coordinate {
            point [
                -2.0571 0.1968 0.0, -1.8012 0.1968 0.0, -2.0571 -1.2205 0.0, -1.8012 -1.2205 0.0
            ]
        }
        coordIndex [
            0,1,2,-1,2,1,3,-1,
        ]
    }
}
Shape{
    appearance Appearance {
        material  Material 	{
            diffuseColor 0.6666666666666666 0.6666666666666666 0.6666666666666666
            specularColor 0.4666666666666667 0.4666666666666667 0.4666666666666667
            ambientIntensity 0.6667
            transparency 0.0
            shininess 0.5
        }
    }
    geometry IndexedFaceSet {
        ccw TRUE
        solid FALSE
        coord DEF co Coordinate {
            point [
                -1.8012 0.1968 0.0591, -2.0768 0.1968 0.0591, -1.8012 -1.2205 0.0591, -2.0768 -1.2205 0.0591, -1.8012 0.1968 0.0, -1.8012 -1.2205 0.0, -2.1358 0.1968 0.0787, -2.1358 0.1968 0.0984, -2.0768 0.1968 0.0984, -2.0571 0.1968 0.0, -2.0775 0.1968 0.0027, -2.1331 0.1968 0.0584, -2.1253 0.1968 0.0394, -2.0965 0.1968 0.0105, -2.1128 0.1968 0.0231, -2.0571 -1.2205 0.0, -2.0775 -1.2205 0.0027, -2.0965 -1.2205 0.0105, -2.1128 -1.2205 0.0231, -2.1253 -1.2205 0.0394, -2.1331 -1.2205 0.0584, -2.1358 -1.2205 0.0787, 2.2736 -0.0 0.0591, 1.998 -0.0 0.0591, 2.2736 -0.3937 0.0591, 1.998 -0.3937 0.0591
            ]
        }
        coordIndex [
            0,1,2,-1,2,1,3,-1,4,0,5,-1,5,0,2,-1,6,7,8,-1,0,4,1,-1,1,4,9,-1,1,9,10,-1,6,8,11,-1,11,8,1,-1,11,1,12,-1,10,13,1,-1,1,13,14,-1,1,14,12,-1,9,15,16,-1,9,16,10,-1,10,16,17,-1,10,17,13,-1,13,17,18,-1,13,18,14,-1,14,18,19,-1,14,19,12,-1,12,19,20,-1,12,20,11,-1,11,20,21,-1,11,21,6,-1,22,23,24,-1,24,23,25,-1,
        ]
    }
}
Shape{
    appearance Appearance {
        material  Material 	{
            diffuseColor 0.8274509803921568 0.6666666666666666 0.12941176470588237
            specularColor 0.8274509803921568 0.6666666666666666 0.12941176470588237
            ambientIntensity 0.6535
            transparency 0.0
            shininess 0.5
        }
    }
    geometry IndexedFaceSet {
        ccw TRUE
        solid FALSE
        coord DEF co Coordinate {
            point [
                2.2539 -0.3937 0.0, 1.998 -0.3937 0.0, 2.2539 -0.0 0.0, 1.998 -0.0 0.0
            ]
        }
        coordIndex [
            0,1,2,-1,2,1,3,-1,
        ]
    }
}
Shape{
    appearance Appearance {
        material  Material 	{
            diffuseColor 0.6666666666666666 0.6666666666666666 0.6666666666666666
            specularColor 0.4666666666666667 0.4666666666666667 0.4666666666666667
            ambientIntensity 0.6667
            transparency 0.0
            shininess 0.5
        }
    }
    geometry IndexedFaceSet {
        ccw TRUE
        solid FALSE
        coord DEF co Coordinate {
            point [
                1.998 -0.0 0.0591, 1.998 -0.0 0.0, 1.998 -0.3937 0.0591, 1.998 -0.3937 0.0, 2.3221 -0.0 0.0394, 2.3096 -0.0 0.0231, 2.2736 -0.0 0.0591, 2.2736 -0.0 0.0984, 2.3327 -0.0 0.0984, 2.3327 -0.0 0.0787, 2.2539 -0.0 0.0, 2.2933 -0.0 0.0105, 2.2743 -0.0 0.0027, 2.33 -0.0 0.0584, 2.3327 -0.3937 0.0787, 2.3327 -0.3937 0.0984, 2.2736 -0.3937 0.0984, 2.2736 -0.3937 0.0591, 2.2539 -0.3937 0.0, 2.2743 -0.3937 0.0027, 2.33 -0.3937 0.0584, 2.3221 -0.3937 0.0394, 2.2933 -0.3937 0.0105, 2.3096 -0.3937 0.0231
            ]
        }
        coordIndex [
            0,1,2,-1,2,1,3,-1,4,5,6,-1,7,8,9,-1,1,0,10,-1,10,0,6,-1,5,11,6,-1,6,11,12,-1,6,12,10,-1,7,9,6,-1,6,9,13,-1,6,13,4,-1,14,15,16,-1,2,3,17,-1,17,3,18,-1,17,18,19,-1,14,16,20,-1,20,16,17,-1,20,17,21,-1,19,22,17,-1,17,22,23,-1,17,23,21,-1,18,10,12,-1,18,12,19,-1,19,12,11,-1,19,11,22,-1,22,11,5,-1,22,5,23,-1,23,5,4,-1,23,4,21,-1,21,4,13,-1,21,13,20,-1,20,13,9,-1,20,9,14,-1,
        ]
    }
}
Shape{
    appearance Appearance {
        material  Material 	{
            diffuseColor 0.20784313725490197 0.20784313725490197 0.20784313725490197
            specularColor 0.01568627450980392 0.01568627450980392 0.01568627450980392
            ambientIntensity 0.298
            transparency 0.0
            shininess 0.5
        }
    }
    geometry IndexedFaceSet {
        ccw TRUE
        solid FALSE
        coord DEF co Coordinate {
            point [
                0.4355 -0.2549 0.0197, 0.4743 -0.2592 0.0197, 0.3503 -0.5505 0.0197, 0.3433 -0.5466 0.0197, 0.3433 -0.5898 0.0197, 0.3049 -0.6126 0.0197, 0.8714 -0.6102 0.0197, 0.8714 -0.2165 0.0197, 1.2795 0.1968 0.0197, 0.4748 -0.6126 0.0197, 0.6698 -0.6102 0.0197, 0.5001 -0.6099 0.0197, 0.5385 -0.5967 0.0197, 0.8186 -0.2165 0.0197, 0.4134 0.1968 0.0197, 0.8465 0.1968 0.0197, 0.3876 -0.2611 0.0197, 0.3433 -0.2801 0.0197, 0.3049 0.1968 0.0197, 0.3433 -0.2273 0.0197, 0.5037 -0.2699 0.0197, 0.531 -0.2881 0.0197, 0.5548 -0.3144 0.0197, 0.5834 -0.4175 0.0197, 0.5794 -0.4601 0.0197, 0.5686 -0.4941 0.0197, 0.4813 -0.5676 0.0197, 0.4443 -0.5718 0.0197, 0.5099 -0.557 0.0197, 0.5341 -0.5407 0.0197, 0.5523 -0.5214 0.0197, 0.3921 -0.566 0.0197, 0.571 -0.3447 0.0197, 0.5815 -0.3869 0.0197, 0.5701 -0.5764 0.0197, 0.5997 -0.5453 0.0197, 0.6698 -0.567 0.0197, 0.6206 -0.5078 0.0197, 0.8186 -0.567 0.0197, 0.616 -0.3214 0.0197, 0.5932 -0.2844 0.0197, 0.558 -0.2501 0.0197, 0.5207 -0.2282 0.0197, 0.6324 -0.4661 0.0197, 0.6362 -0.4208 0.0197, 0.631 -0.367 0.0197, 0.4768 -0.2151 0.0197, 0.4359 -0.2117 0.0197, 0.3888 -0.2149 0.0197, 0.3853 -0.607 0.0197, 0.425 -0.6126 0.0197, 0.3049 -1.2205 0.0197, 0.4409 -0.6148 0.0197, 0.4516 -0.615 0.0197, 1.9587 0.1968 0.0197, 1.9587 -0.6126 0.0197, 1.9587 -1.2205 0.0197, -0.0216 -0.6102 0.0197, 0.0552 -0.567 0.0197, 0.0552 -0.6102 0.0197, 0.2665 -0.6102 0.0197, 0.2665 -0.2165 0.0197, -0.3673 -0.6102 0.0197, -0.319 -0.5018 0.0197, -0.2966 -0.5371 0.0197, -0.8858 0.1968 0.0197, -0.4528 0.1968 0.0197, -0.5161 -0.2165 0.0197, 0.2137 -0.2597 0.0197, 0.2137 -0.3893 0.0197, 0.0648 -0.2597 0.0197, 0.0744 -0.3893 0.0197, 0.0744 -0.4325 0.0197, 0.2137 -0.4325 0.0197, 0.2137 -0.567 0.0197, -0.2642 -0.5682 0.0197, -0.2233 -0.5922 0.0197, -0.1779 -0.6058 0.0197, -0.1875 -0.2221 0.0197, -0.2336 -0.2377 0.0197, -1.7618 0.1968 0.0197, -1.6781 0.1968 0.0197, -1.7618 -0.6126 0.0197, -1.3189 0.1968 0.0197, 0.0648 -0.2165 0.0197, -0.0216 -0.2165 0.0197, -0.1327 -0.2165 0.0197, -0.0197 0.1968 0.0197, -0.3266 -0.3367 0.0197, -0.3363 -0.3758 0.0197, -0.3385 -0.4084 0.0197, -0.3331 -0.4606 0.0197, -0.7226 -0.6102 0.0197, -0.665 -0.6102 0.0197, -0.1287 -0.6102 0.0197, -0.2772 -0.2663 0.0197, -0.2827 -0.2712 0.0197, -0.3092 -0.3023 0.0197, -0.6251 -0.4997 0.0197, -0.4625 -0.4997 0.0197, -0.4249 -0.6102 0.0197, -0.5689 -0.2165 0.0197, -1.7618 -1.2205 0.0197, -1.7618 0.1968 0.2165, -1.7618 0.1968 0.2559, -1.6781 0.1968 0.2559, -1.6781 0.1968 0.2165, -1.7618 0.1968 0.0591, -1.5945 0.1968 0.1181, -1.5945 0.1968 0.1772, -1.4764 0.1968 0.1772, -1.3189 0.1968 0.2165, -1.4764 0.1968 0.1181, -0.8858 0.1968 0.2165, -1.0433 0.1968 0.1772, -1.1614 0.1968 0.1772, -1.0433 0.1968 0.1181, -1.1614 0.1968 0.1181, -0.4528 0.1968 0.2165, -0.6102 0.1968 0.1772, -0.7283 0.1968 0.1772, -0.6102 0.1968 0.1181, -0.7283 0.1968 0.1181, -0.2953 0.1968 0.1181, -0.2953 0.1968 0.1772, -0.1772 0.1968 0.1772, -0.0197 0.1968 0.2165, -0.1772 0.1968 0.1181, 0.4134 0.1968 0.2165, 0.2559 0.1968 0.1181, 0.1378 0.1968 0.1181, 0.1378 0.1968 0.1772, 0.2559 0.1968 0.1772, 0.5709 0.1968 0.1181, 0.5709 0.1968 0.1772, 0.689 0.1968 0.1772, 0.8465 0.1968 0.2165, 0.689 0.1968 0.1181, 1.0039 0.1968 0.1181, 1.0039 0.1968 0.1772, 1.1221 0.1968 0.1772, 1.2795 0.1968 0.2165, 1.1221 0.1968 0.1181, 1.5551 0.1968 0.1181, 1.9587 0.1968 0.0591, 1.5551 0.1968 0.1772, 1.9587 0.1968 0.2165, 1.437 0.1968 0.1772, 1.437 0.1968 0.1181, -1.3189 0.1968 0.2559, -0.8858 0.1968 0.2559, -0.4528 0.1968 0.2559, -0.0197 0.1968 0.2559, 0.4134 0.1968 0.2559, 0.8465 0.1968 0.2559, 1.2795 0.1968 0.2559, 1.9587 0.1968 0.2559, 2.2736 0.5905 0.0591, 1.9587 0.5905 0.0591, 2.2736 0.5905 0.9252, 1.9587 0.5905 0.2559, 2.0177 0.5905 0.9252, 2.0177 0.5905 0.5906, -1.9193 0.5905 0.5906, -1.7618 0.5905 0.2559, -2.0768 0.5905 0.9252, -1.9193 0.5905 0.9252, -1.7618 0.5905 0.0591, -2.0768 0.5905 0.0591, -2.0768 -1.2205 0.9252, -2.0768 -1.2205 0.0591, -1.9587 -1.2205 0.5512, -1.9587 -1.2205 0.9252, -1.7618 -1.2205 0.0591, 2.0571 -1.2205 0.5512, 1.9587 -1.2205 0.0591, 2.2736 -1.2205 0.9252, 2.0571 -1.2205 0.9252, 2.2736 -1.2205 0.0591, -1.9193 -1.1811 0.9252, 2.0177 -1.1811 0.9252, 2.0177 -1.1811 0.5906, -1.9193 -1.1811 0.5906
            ]
        }
        coordIndex [
            0,1,2,-1,3,4,5,-1,6,7,8,-1,6,9,10,-1,10,9,11,-1,10,11,12,-1,13,14,7,-1,7,14,15,-1,7,15,8,-1,0,2,16,-1,16,2,3,-1,16,3,17,-1,17,3,18,-1,17,18,19,-1,1,20,2,-1,2,20,21,-1,2,21,22,-1,23,24,2,-1,2,24,25,-1,26,27,28,-1,28,27,29,-1,25,30,2,-1,2,30,29,-1,2,29,31,-1,31,29,27,-1,22,32,2,-1,2,32,33,-1,2,33,23,-1,12,34,10,-1,10,34,35,-1,10,35,36,-1,36,35,37,-1,36,37,38,-1,39,40,13,-1,13,40,41,-1,13,41,14,-1,14,41,42,-1,37,43,38,-1,38,43,44,-1,38,44,13,-1,13,44,45,-1,13,45,39,-1,42,46,14,-1,14,46,47,-1,14,47,18,-1,18,47,48,-1,18,48,19,-1,4,49,5,-1,5,49,50,-1,5,50,51,-1,50,52,51,-1,51,52,53,-1,51,53,9,-1,8,54,6,-1,6,54,55,-1,6,55,9,-1,9,55,56,-1,9,56,51,-1,57,58,59,-1,5,60,61,-1,62,63,64,-1,65,66,67,-1,68,69,70,-1,70,69,71,-1,72,73,74,-1,64,75,62,-1,62,75,76,-1,62,76,77,-1,78,79,66,-1,80,81,82,-1,82,81,83,-1,82,83,65,-1,84,70,85,-1,85,70,71,-1,85,71,57,-1,57,71,72,-1,57,72,58,-1,58,72,74,-1,78,66,86,-1,3,5,18,-1,18,5,61,-1,18,61,87,-1,87,61,84,-1,87,84,66,-1,66,84,85,-1,66,85,86,-1,88,89,67,-1,67,89,90,-1,67,90,62,-1,62,90,91,-1,62,91,63,-1,92,93,5,-1,94,57,5,-1,5,57,59,-1,5,59,60,-1,79,95,66,-1,66,95,96,-1,66,96,67,-1,67,96,97,-1,67,97,88,-1,98,99,93,-1,93,99,100,-1,93,100,5,-1,5,100,62,-1,5,62,94,-1,94,62,77,-1,67,101,65,-1,65,101,92,-1,65,92,82,-1,82,92,5,-1,82,5,102,-1,102,5,51,-1,103,104,105,-1,103,106,107,-1,107,106,81,-1,107,81,80,-1,108,81,109,-1,109,81,106,-1,109,106,110,-1,110,106,111,-1,110,111,112,-1,112,111,83,-1,112,83,108,-1,108,83,81,-1,113,114,115,-1,114,113,116,-1,116,113,65,-1,116,65,117,-1,117,65,83,-1,117,83,115,-1,115,83,111,-1,115,111,113,-1,118,119,120,-1,119,118,121,-1,121,118,66,-1,121,66,122,-1,122,66,65,-1,122,65,120,-1,120,65,113,-1,120,113,118,-1,123,66,124,-1,124,66,118,-1,124,118,125,-1,125,118,126,-1,125,126,127,-1,127,126,87,-1,127,87,123,-1,123,87,66,-1,128,14,129,-1,129,14,18,-1,129,18,130,-1,130,18,87,-1,130,87,131,-1,131,87,126,-1,131,126,132,-1,132,126,128,-1,132,128,129,-1,133,14,134,-1,134,14,128,-1,134,128,135,-1,135,128,136,-1,135,136,137,-1,137,136,15,-1,137,15,133,-1,133,15,14,-1,138,15,139,-1,139,15,136,-1,139,136,140,-1,140,136,141,-1,140,141,142,-1,142,141,8,-1,142,8,138,-1,138,8,15,-1,143,54,8,-1,54,143,144,-1,144,143,145,-1,144,145,146,-1,146,145,141,-1,141,145,147,-1,141,147,8,-1,8,147,148,-1,8,148,143,-1,103,105,106,-1,106,105,149,-1,106,149,111,-1,111,149,150,-1,111,150,113,-1,113,150,151,-1,113,151,118,-1,118,151,152,-1,118,152,126,-1,126,152,153,-1,126,153,128,-1,128,153,154,-1,128,154,136,-1,136,154,155,-1,136,155,141,-1,141,155,156,-1,141,156,146,-1,157,158,159,-1,159,158,160,-1,161,159,162,-1,162,159,160,-1,162,160,163,-1,163,160,164,-1,165,166,163,-1,164,167,163,-1,163,167,168,-1,163,168,165,-1,169,165,170,-1,170,165,168,-1,171,172,169,-1,169,170,171,-1,171,170,173,-1,171,173,174,-1,51,56,175,-1,176,177,178,-1,178,177,174,-1,178,174,175,-1,175,174,173,-1,175,173,51,-1,51,173,102,-1,159,176,157,-1,157,176,178,-1,179,166,172,-1,172,166,165,-1,172,165,169,-1,177,176,180,-1,180,176,159,-1,180,159,161,-1,181,162,182,-1,182,162,163,-1,182,163,179,-1,179,163,166,-1,180,161,181,-1,181,161,162,-1,54,144,55,-1,55,144,175,-1,55,175,56,-1,178,175,157,-1,157,175,144,-1,157,144,158,-1,102,173,82,-1,82,173,107,-1,82,107,80,-1,173,170,107,-1,107,170,168,-1,107,168,167,-1,156,160,146,-1,146,160,158,-1,146,158,144,-1,107,167,103,-1,103,167,164,-1,103,164,104,-1,156,155,160,-1,160,155,154,-1,154,153,160,-1,160,153,152,-1,160,152,164,-1,164,152,151,-1,164,151,150,-1,150,149,164,-1,164,149,105,-1,164,105,104,-1,
        ]
    }
}
Shape{
    appearance Appearance {
        material  Material 	{
            diffuseColor 0.8274509803921568 0.6666666666666666 0.12941176470588237
            specularColor 0.8274509803921568 0.6666666666666666 0.12941176470588237
            ambientIntensity 0.6535
            transparency 0.0
            shininess 0.5
        }
    }
    geometry IndexedFaceSet {
        ccw TRUE
        solid FALSE
        coord DEF co Coordinate {
            point [
                -1.4764 0.5905 0.0, -1.4764 0.4331 0.0, -1.5945 0.5905 0.0, -1.5945 0.4331 0.0, -1.4764 0.5905 0.0591, -1.5945 0.5905 0.0591, -1.4764 0.4575 0.0591, -1.5945 0.4575 0.0591, -1.4764 0.3394 0.1772, -1.5945 0.3394 0.1772, -1.4764 0.1968 0.1772, -1.5945 0.1968 0.1772, -1.4764 0.315 0.1181, -1.4764 0.1968 0.1181, -1.5945 0.315 0.1181, -1.5945 0.1968 0.1181, -1.0433 0.5905 0.0, -1.0433 0.4331 0.0, -1.1614 0.5905 0.0, -1.1614 0.4331 0.0, -1.0433 0.5905 0.0591, -1.1614 0.5905 0.0591, -1.0433 0.4575 0.0591, -1.1614 0.4575 0.0591, -1.0433 0.3394 0.1772, -1.1614 0.3394 0.1772, -1.0433 0.1968 0.1772, -1.1614 0.1968 0.1772, -1.0433 0.315 0.1181, -1.0433 0.1968 0.1181, -1.1614 0.315 0.1181, -1.1614 0.1968 0.1181, -0.6102 0.5905 0.0, -0.6102 0.4331 0.0, -0.7283 0.5905 0.0, -0.7283 0.4331 0.0, -0.6102 0.5905 0.0591, -0.7283 0.5905 0.0591, -0.6102 0.4575 0.0591, -0.7283 0.4575 0.0591, -0.6102 0.3394 0.1772, -0.7283 0.3394 0.1772, -0.6102 0.1968 0.1772, -0.7283 0.1968 0.1772, -0.6102 0.315 0.1181, -0.6102 0.1968 0.1181, -0.7283 0.315 0.1181, -0.7283 0.1968 0.1181, -0.1772 0.5905 0.0, -0.1772 0.4331 0.0, -0.2953 0.5905 0.0, -0.2953 0.4331 0.0, -0.1772 0.5905 0.0591, -0.2953 0.5905 0.0591, -0.1772 0.4575 0.0591, -0.2953 0.4575 0.0591, -0.1772 0.3394 0.1772, -0.2953 0.3394 0.1772, -0.1772 0.1968 0.1772, -0.2953 0.1968 0.1772, -0.1772 0.315 0.1181, -0.1772 0.1968 0.1181, -0.2953 0.315 0.1181, -0.2953 0.1968 0.1181, 0.2559 0.5905 0.0, 0.2559 0.4331 0.0, 0.1378 0.5905 0.0, 0.1378 0.4331 0.0, 0.2559 0.5905 0.0591, 0.1378 0.5905 0.0591, 0.2559 0.4575 0.0591, 0.1378 0.4575 0.0591, 0.2559 0.3394 0.1772, 0.1378 0.3394 0.1772, 0.2559 0.1968 0.1772, 0.1378 0.1968 0.1772, 0.2559 0.315 0.1181, 0.2559 0.1968 0.1181, 0.1378 0.315 0.1181, 0.1378 0.1968 0.1181, 0.689 0.5905 0.0, 0.689 0.4331 0.0, 0.5709 0.5905 0.0, 0.5709 0.4331 0.0, 0.689 0.5905 0.0591, 0.5709 0.5905 0.0591, 0.689 0.4575 0.0591, 0.5709 0.4575 0.0591, 0.689 0.3394 0.1772, 0.5709 0.3394 0.1772, 0.689 0.1968 0.1772, 0.5709 0.1968 0.1772, 0.689 0.315 0.1181, 0.689 0.1968 0.1181, 0.5709 0.315 0.1181, 0.5709 0.1968 0.1181, 1.1221 0.5905 0.0, 1.1221 0.4331 0.0, 1.0039 0.5905 0.0, 1.0039 0.4331 0.0, 1.1221 0.5905 0.0591, 1.0039 0.5905 0.0591, 1.1221 0.4575 0.0591, 1.0039 0.4575 0.0591, 1.1221 0.3394 0.1772, 1.0039 0.3394 0.1772, 1.1221 0.1968 0.1772, 1.0039 0.1968 0.1772, 1.1221 0.315 0.1181, 1.1221 0.1968 0.1181, 1.0039 0.315 0.1181, 1.0039 0.1968 0.1181, 1.5551 0.5905 0.0, 1.5551 0.4331 0.0, 1.437 0.5905 0.0, 1.437 0.4331 0.0, 1.5551 0.5905 0.0591, 1.437 0.5905 0.0591, 1.5551 0.4575 0.0591, 1.437 0.4575 0.0591, 1.5551 0.3394 0.1772, 1.437 0.3394 0.1772, 1.5551 0.1968 0.1772, 1.437 0.1968 0.1772, 1.5551 0.315 0.1181, 1.5551 0.1968 0.1181, 1.437 0.315 0.1181, 1.437 0.1968 0.1181
            ]
        }
        coordIndex [
            0,1,2,-1,2,1,3,-1,4,0,5,-1,5,0,2,-1,6,4,7,-1,7,4,5,-1,8,6,9,-1,9,6,7,-1,10,8,11,-1,11,8,9,-1,12,13,14,-1,14,13,15,-1,1,12,3,-1,3,12,14,-1,0,4,1,-1,1,4,6,-1,1,6,12,-1,12,6,8,-1,12,8,13,-1,13,8,10,-1,5,2,7,-1,7,2,3,-1,7,3,9,-1,9,3,14,-1,9,14,11,-1,11,14,15,-1,16,17,18,-1,18,17,19,-1,20,16,21,-1,21,16,18,-1,22,20,23,-1,23,20,21,-1,24,22,25,-1,25,22,23,-1,26,24,27,-1,27,24,25,-1,28,29,30,-1,30,29,31,-1,17,28,19,-1,19,28,30,-1,16,20,17,-1,17,20,22,-1,17,22,28,-1,28,22,24,-1,28,24,29,-1,29,24,26,-1,21,18,23,-1,23,18,19,-1,23,19,25,-1,25,19,30,-1,25,30,27,-1,27,30,31,-1,32,33,34,-1,34,33,35,-1,36,32,37,-1,37,32,34,-1,38,36,39,-1,39,36,37,-1,40,38,41,-1,41,38,39,-1,42,40,43,-1,43,40,41,-1,44,45,46,-1,46,45,47,-1,33,44,35,-1,35,44,46,-1,32,36,33,-1,33,36,38,-1,33,38,44,-1,44,38,40,-1,44,40,45,-1,45,40,42,-1,37,34,39,-1,39,34,35,-1,39,35,41,-1,41,35,46,-1,41,46,43,-1,43,46,47,-1,48,49,50,-1,50,49,51,-1,52,48,53,-1,53,48,50,-1,54,52,55,-1,55,52,53,-1,56,54,57,-1,57,54,55,-1,58,56,59,-1,59,56,57,-1,60,61,62,-1,62,61,63,-1,49,60,51,-1,51,60,62,-1,48,52,49,-1,49,52,54,-1,49,54,60,-1,60,54,56,-1,60,56,61,-1,61,56,58,-1,53,50,55,-1,55,50,51,-1,55,51,57,-1,57,51,62,-1,57,62,59,-1,59,62,63,-1,64,65,66,-1,66,65,67,-1,68,64,69,-1,69,64,66,-1,70,68,71,-1,71,68,69,-1,72,70,73,-1,73,70,71,-1,74,72,75,-1,75,72,73,-1,76,77,78,-1,78,77,79,-1,65,76,67,-1,67,76,78,-1,64,68,65,-1,65,68,70,-1,65,70,76,-1,76,70,72,-1,76,72,77,-1,77,72,74,-1,69,66,71,-1,71,66,67,-1,71,67,73,-1,73,67,78,-1,73,78,75,-1,75,78,79,-1,80,81,82,-1,82,81,83,-1,84,80,85,-1,85,80,82,-1,86,84,87,-1,87,84,85,-1,88,86,89,-1,89,86,87,-1,90,88,91,-1,91,88,89,-1,92,93,94,-1,94,93,95,-1,81,92,83,-1,83,92,94,-1,80,84,81,-1,81,84,86,-1,81,86,92,-1,92,86,88,-1,92,88,93,-1,93,88,90,-1,85,82,87,-1,87,82,83,-1,87,83,89,-1,89,83,94,-1,89,94,91,-1,91,94,95,-1,96,97,98,-1,98,97,99,-1,100,96,101,-1,101,96,98,-1,102,100,103,-1,103,100,101,-1,104,102,105,-1,105,102,103,-1,106,104,107,-1,107,104,105,-1,108,109,110,-1,110,109,111,-1,97,108,99,-1,99,108,110,-1,96,100,97,-1,97,100,102,-1,97,102,108,-1,108,102,104,-1,108,104,109,-1,109,104,106,-1,101,98,103,-1,103,98,99,-1,103,99,105,-1,105,99,110,-1,105,110,107,-1,107,110,111,-1,112,113,114,-1,114,113,115,-1,116,112,117,-1,117,112,114,-1,118,116,119,-1,119,116,117,-1,120,118,121,-1,121,118,119,-1,122,120,123,-1,123,120,121,-1,124,125,126,-1,126,125,127,-1,113,124,115,-1,115,124,126,-1,112,116,113,-1,113,116,118,-1,113,118,124,-1,124,118,120,-1,124,120,125,-1,125,120,122,-1,117,114,119,-1,119,114,115,-1,119,115,121,-1,121,115,126,-1,121,126,123,-1,123,126,127,-1,
        ]
    }
}
Shape{
    appearance Appearance {
        material  Material 	{
            diffuseColor 1.0 1.0 1.0
            specularColor 0.8784313725490196 0.8784313725490196 0.8784313725490196
            ambientIntensity 1.0
            transparency 0.0
            shininess 0.5
        }
    }
    geometry IndexedFaceSet {
        ccw TRUE
        solid FALSE
        coord DEF co Coordinate {
            point [
                -0.5689 -0.2165 0.0276, -0.7226 -0.6102 0.0276, -0.5689 -0.2165 0.0197, -0.7226 -0.6102 0.0197, -0.665 -0.6102 0.0276, -0.665 -0.6102 0.0197, -0.6251 -0.4997 0.0276, -0.6251 -0.4997 0.0197, -0.4625 -0.4997 0.0276, -0.4625 -0.4997 0.0197, -0.4249 -0.6102 0.0276, -0.4249 -0.6102 0.0197, -0.3673 -0.6102 0.0276, -0.3673 -0.6102 0.0197, -0.5161 -0.2165 0.0276, -0.5161 -0.2165 0.0197, -0.4758 -0.4565 0.0276, -0.6074 -0.4565 0.0276, -0.5345 -0.2921 0.0276, -0.5383 -0.2784 0.0276, -0.5408 -0.2645 0.0276, -0.5421 -0.2645 0.0276, -0.5447 -0.2784 0.0276, -0.5482 -0.2921 0.0276, -0.4758 -0.4565 0.0197, -0.6074 -0.4565 0.0197, -0.5345 -0.2921 0.0197, -0.5383 -0.2784 0.0197, -0.5408 -0.2645 0.0197, -0.5421 -0.2645 0.0197, -0.5447 -0.2784 0.0197, -0.5482 -0.2921 0.0197, -0.1287 -0.6102 0.0276, -0.0216 -0.6102 0.0276, -0.1287 -0.6102 0.0197, -0.0216 -0.6102 0.0197, -0.0216 -0.2165 0.0276, -0.0216 -0.2165 0.0197, -0.1327 -0.2165 0.0276, -0.1327 -0.2165 0.0197, -0.3385 -0.4084 0.0276, -0.3385 -0.4084 0.0197, -0.3363 -0.3758 0.0197, -0.3363 -0.3758 0.0276, -0.3266 -0.3367 0.0197, -0.3266 -0.3367 0.0276, -0.3092 -0.3023 0.0197, -0.3092 -0.3023 0.0276, -0.2827 -0.2712 0.0197, -0.2827 -0.2712 0.0276, -0.2772 -0.2663 0.0197, -0.2772 -0.2663 0.0276, -0.2336 -0.2377 0.0197, -0.2336 -0.2377 0.0276, -0.1875 -0.2221 0.0197, -0.1875 -0.2221 0.0276, -0.1779 -0.6058 0.0197, -0.1779 -0.6058 0.0276, -0.2233 -0.5922 0.0197, -0.2233 -0.5922 0.0276, -0.2642 -0.5682 0.0197, -0.2642 -0.5682 0.0276, -0.2966 -0.5371 0.0197, -0.2966 -0.5371 0.0276, -0.319 -0.5018 0.0197, -0.319 -0.5018 0.0276, -0.3331 -0.4606 0.0197, -0.3331 -0.4606 0.0276, -0.2594 -0.3148 0.0276, -0.2402 -0.2945 0.0276, -0.2114 -0.2759 0.0276, -0.1789 -0.2646 0.0276, -0.1325 -0.2597 0.0276, -0.0744 -0.2597 0.0276, -0.0744 -0.567 0.0276, -0.1303 -0.567 0.0276, -0.1718 -0.5631 0.0276, -0.2051 -0.5527 0.0276, -0.2319 -0.5367 0.0276, -0.254 -0.5149 0.0276, -0.2706 -0.4878 0.0276, -0.2821 -0.4507 0.0276, -0.2857 -0.4095 0.0276, -0.2823 -0.3703 0.0276, -0.2731 -0.339 0.0276, -0.1325 -0.2597 0.0197, -0.0744 -0.2597 0.0197, -0.1789 -0.2646 0.0197, -0.2114 -0.2759 0.0197, -0.2402 -0.2945 0.0197, -0.2594 -0.3148 0.0197, -0.2731 -0.339 0.0197, -0.2823 -0.3703 0.0197, -0.2857 -0.4095 0.0197, -0.2821 -0.4507 0.0197, -0.2706 -0.4878 0.0197, -0.254 -0.5149 0.0197, -0.2319 -0.5367 0.0197, -0.2051 -0.5527 0.0197, -0.1718 -0.5631 0.0197, -0.1303 -0.567 0.0197, -0.0744 -0.567 0.0197, 0.0552 -0.567 0.0276, 0.0552 -0.6102 0.0276, 0.0552 -0.567 0.0197, 0.0552 -0.6102 0.0197, 0.2665 -0.6102 0.0276, 0.2665 -0.6102 0.0197, 0.2665 -0.2165 0.0276, 0.2665 -0.2165 0.0197, 0.0648 -0.2165 0.0276, 0.0648 -0.2165 0.0197, 0.0648 -0.2597 0.0276, 0.0648 -0.2597 0.0197, 0.2137 -0.2597 0.0276, 0.2137 -0.2597 0.0197, 0.2137 -0.3893 0.0276, 0.2137 -0.3893 0.0197, 0.0744 -0.3893 0.0276, 0.0744 -0.3893 0.0197, 0.0744 -0.4325 0.0276, 0.0744 -0.4325 0.0197, 0.2137 -0.4325 0.0276, 0.2137 -0.4325 0.0197, 0.2137 -0.567 0.0276, 0.2137 -0.567 0.0197, 0.3433 -0.5466 0.0276, 0.3433 -0.5898 0.0276, 0.3433 -0.5466 0.0197, 0.3433 -0.5898 0.0197, 0.3853 -0.607 0.0276, 0.4516 -0.615 0.0276, 0.4516 -0.615 0.0197, 0.4409 -0.6148 0.0197, 0.4409 -0.6148 0.0276, 0.425 -0.6126 0.0197, 0.3853 -0.607 0.0197, 0.6362 -0.4208 0.0276, 0.6362 -0.4208 0.0197, 0.6324 -0.4661 0.0197, 0.6324 -0.4661 0.0276, 0.6206 -0.5078 0.0197, 0.6206 -0.5078 0.0276, 0.5997 -0.5453 0.0197, 0.5997 -0.5453 0.0276, 0.5701 -0.5764 0.0197, 0.5701 -0.5764 0.0276, 0.5385 -0.5967 0.0197, 0.5385 -0.5967 0.0276, 0.5001 -0.6099 0.0197, 0.5001 -0.6099 0.0276, 0.4748 -0.6126 0.0197, 0.4359 -0.2117 0.0276, 0.4359 -0.2117 0.0197, 0.4768 -0.2151 0.0197, 0.4768 -0.2151 0.0276, 0.5207 -0.2282 0.0197, 0.5207 -0.2282 0.0276, 0.558 -0.2501 0.0197, 0.558 -0.2501 0.0276, 0.5932 -0.2844 0.0197, 0.5932 -0.2844 0.0276, 0.616 -0.3214 0.0197, 0.616 -0.3214 0.0276, 0.631 -0.367 0.0197, 0.631 -0.367 0.0276, 0.3433 -0.2273 0.0276, 0.3433 -0.2273 0.0197, 0.3888 -0.2149 0.0197, 0.3888 -0.2149 0.0276, 0.3433 -0.2801 0.0276, 0.3433 -0.2801 0.0197, 0.4355 -0.2549 0.0276, 0.4355 -0.2549 0.0197, 0.3876 -0.2611 0.0197, 0.3876 -0.2611 0.0276, 0.5834 -0.4175 0.0276, 0.5834 -0.4175 0.0197, 0.5815 -0.3869 0.0197, 0.5815 -0.3869 0.0276, 0.571 -0.3447 0.0197, 0.571 -0.3447 0.0276, 0.5548 -0.3144 0.0197, 0.5548 -0.3144 0.0276, 0.531 -0.2881 0.0197, 0.531 -0.2881 0.0276, 0.5037 -0.2699 0.0197, 0.5037 -0.2699 0.0276, 0.4743 -0.2592 0.0197, 0.4743 -0.2592 0.0276, 0.4443 -0.5718 0.0276, 0.4443 -0.5718 0.0197, 0.4813 -0.5676 0.0197, 0.4813 -0.5676 0.0276, 0.5099 -0.557 0.0197, 0.5099 -0.557 0.0276, 0.5341 -0.5407 0.0197, 0.5341 -0.5407 0.0276, 0.5523 -0.5214 0.0197, 0.5523 -0.5214 0.0276, 0.5686 -0.4941 0.0197, 0.5686 -0.4941 0.0276, 0.5794 -0.4601 0.0197, 0.5794 -0.4601 0.0276, 0.3503 -0.5505 0.0197, 0.3503 -0.5505 0.0276, 0.3921 -0.566 0.0197, 0.3921 -0.566 0.0276, 0.6698 -0.567 0.0276, 0.6698 -0.6102 0.0276, 0.6698 -0.567 0.0197, 0.6698 -0.6102 0.0197, 0.8714 -0.6102 0.0276, 0.8714 -0.6102 0.0197, 0.8714 -0.2165 0.0276, 0.8714 -0.2165 0.0197, 0.8186 -0.2165 0.0276, 0.8186 -0.2165 0.0197, 0.8186 -0.567 0.0276, 0.8186 -0.567 0.0197
            ]
        }
        coordIndex [
            0,1,2,-1,2,1,3,-1,1,4,3,-1,3,4,5,-1,4,6,5,-1,5,6,7,-1,6,8,7,-1,7,8,9,-1,8,10,9,-1,9,10,11,-1,10,12,11,-1,11,12,13,-1,12,14,13,-1,13,14,15,-1,14,0,15,-1,15,0,2,-1,16,8,17,-1,17,8,6,-1,18,14,16,-1,16,14,12,-1,16,12,8,-1,8,12,10,-1,18,19,14,-1,14,19,20,-1,14,20,0,-1,0,20,21,-1,0,21,22,-1,22,23,0,-1,0,23,17,-1,0,17,1,-1,1,17,6,-1,1,6,4,-1,16,17,24,-1,24,17,25,-1,18,16,26,-1,26,16,24,-1,18,26,27,-1,18,27,19,-1,19,27,28,-1,19,28,20,-1,21,20,29,-1,29,20,28,-1,21,29,30,-1,21,30,22,-1,22,30,31,-1,22,31,23,-1,17,23,25,-1,25,23,31,-1,32,33,34,-1,34,33,35,-1,33,36,35,-1,35,36,37,-1,36,38,37,-1,37,38,39,-1,40,41,42,-1,40,42,43,-1,43,42,44,-1,43,44,45,-1,45,44,46,-1,45,46,47,-1,47,46,48,-1,47,48,49,-1,49,48,50,-1,49,50,51,-1,51,50,52,-1,51,52,53,-1,53,52,54,-1,53,54,55,-1,55,54,39,-1,55,39,38,-1,32,34,56,-1,32,56,57,-1,57,56,58,-1,57,58,59,-1,59,58,60,-1,59,60,61,-1,61,60,62,-1,61,62,63,-1,63,62,64,-1,63,64,65,-1,65,64,66,-1,65,66,67,-1,67,66,41,-1,67,41,40,-1,45,47,68,-1,68,47,49,-1,68,49,69,-1,69,49,51,-1,69,51,70,-1,70,51,53,-1,70,53,71,-1,71,53,55,-1,71,55,72,-1,72,55,38,-1,72,38,73,-1,73,38,36,-1,73,36,74,-1,74,36,33,-1,74,33,75,-1,75,33,32,-1,75,32,76,-1,76,32,57,-1,76,57,77,-1,77,57,59,-1,77,59,78,-1,78,59,61,-1,78,61,79,-1,79,61,63,-1,79,63,80,-1,80,63,65,-1,80,65,81,-1,81,65,67,-1,81,67,82,-1,82,67,40,-1,82,40,83,-1,83,40,43,-1,83,43,84,-1,84,43,45,-1,84,45,68,-1,72,73,85,-1,85,73,86,-1,72,85,87,-1,72,87,71,-1,71,87,88,-1,71,88,70,-1,70,88,89,-1,70,89,69,-1,69,89,90,-1,69,90,68,-1,68,90,91,-1,68,91,84,-1,84,91,92,-1,84,92,83,-1,83,92,93,-1,83,93,82,-1,82,93,94,-1,82,94,81,-1,81,94,95,-1,81,95,80,-1,80,95,96,-1,80,96,79,-1,79,96,97,-1,79,97,78,-1,78,97,98,-1,78,98,77,-1,77,98,99,-1,77,99,76,-1,76,99,100,-1,76,100,75,-1,74,75,101,-1,101,75,100,-1,73,74,86,-1,86,74,101,-1,102,103,104,-1,104,103,105,-1,103,106,105,-1,105,106,107,-1,106,108,107,-1,107,108,109,-1,108,110,109,-1,109,110,111,-1,110,112,111,-1,111,112,113,-1,112,114,113,-1,113,114,115,-1,114,116,115,-1,115,116,117,-1,116,118,117,-1,117,118,119,-1,118,120,119,-1,119,120,121,-1,120,122,121,-1,121,122,123,-1,122,124,123,-1,123,124,125,-1,124,102,125,-1,125,102,104,-1,106,103,102,-1,102,124,106,-1,106,124,122,-1,106,122,108,-1,112,110,114,-1,114,110,108,-1,114,108,116,-1,116,108,122,-1,116,122,118,-1,118,122,120,-1,126,127,128,-1,128,127,129,-1,129,127,130,-1,131,132,133,-1,131,133,134,-1,134,133,135,-1,134,135,130,-1,130,135,136,-1,130,136,129,-1,137,138,139,-1,137,139,140,-1,140,139,141,-1,140,141,142,-1,142,141,143,-1,142,143,144,-1,144,143,145,-1,144,145,146,-1,146,145,147,-1,146,147,148,-1,148,147,149,-1,148,149,150,-1,150,149,131,-1,131,149,151,-1,131,151,132,-1,152,153,154,-1,152,154,155,-1,155,154,156,-1,155,156,157,-1,157,156,158,-1,157,158,159,-1,159,158,160,-1,159,160,161,-1,161,160,162,-1,161,162,163,-1,163,162,164,-1,163,164,165,-1,165,164,138,-1,165,138,137,-1,166,167,168,-1,166,168,169,-1,169,168,153,-1,169,153,152,-1,166,170,167,-1,167,170,171,-1,172,173,174,-1,172,174,175,-1,175,174,171,-1,175,171,170,-1,176,177,178,-1,176,178,179,-1,179,178,180,-1,179,180,181,-1,181,180,182,-1,181,182,183,-1,183,182,184,-1,183,184,185,-1,185,184,186,-1,185,186,187,-1,187,186,188,-1,187,188,189,-1,189,188,173,-1,189,173,172,-1,190,191,192,-1,190,192,193,-1,193,192,194,-1,193,194,195,-1,195,194,196,-1,195,196,197,-1,197,196,198,-1,197,198,199,-1,199,198,200,-1,199,200,201,-1,201,200,202,-1,201,202,203,-1,203,202,177,-1,203,177,176,-1,126,128,204,-1,126,204,205,-1,205,204,206,-1,205,206,207,-1,207,206,191,-1,207,191,190,-1,193,131,190,-1,190,131,134,-1,190,134,207,-1,207,134,130,-1,207,130,205,-1,205,130,127,-1,205,127,126,-1,170,166,175,-1,175,166,169,-1,175,169,172,-1,172,169,152,-1,172,152,189,-1,189,152,155,-1,189,155,187,-1,187,155,157,-1,187,157,185,-1,185,157,159,-1,185,159,183,-1,183,159,161,-1,183,161,181,-1,181,161,163,-1,181,163,179,-1,179,163,165,-1,179,165,176,-1,176,165,137,-1,176,137,203,-1,203,137,140,-1,203,140,201,-1,201,140,142,-1,201,142,199,-1,199,142,144,-1,199,144,197,-1,197,144,146,-1,197,146,195,-1,195,146,148,-1,195,148,193,-1,193,148,150,-1,193,150,131,-1,208,209,210,-1,210,209,211,-1,209,212,211,-1,211,212,213,-1,212,214,213,-1,213,214,215,-1,214,216,215,-1,215,216,217,-1,216,218,217,-1,217,218,219,-1,218,208,219,-1,219,208,210,-1,216,214,218,-1,218,214,212,-1,218,212,208,-1,208,212,209,-1,
        ]
    }
}
Shape{
    appearance Appearance {
        material  Material 	{
            diffuseColor 0.20784313725490197 0.20784313725490197 0.20784313725490197
            specularColor 0.01568627450980392 0.01568627450980392 0.01568627450980392
            ambientIntensity 0.298
            transparency 0.0
            shininess 0.5
        }
    }
    geometry IndexedFaceSet {
        ccw TRUE
        solid FALSE
        coord DEF co Coordinate {
            point [
                -0.4758 -0.4565 0.0197, -0.6074 -0.4565 0.0197, -0.5345 -0.2921 0.0197, -0.5482 -0.2921 0.0197, -0.5383 -0.2784 0.0197, -0.5447 -0.2784 0.0197, -0.5408 -0.2645 0.0197, -0.5421 -0.2645 0.0197, -0.0744 -0.2597 0.0197, -0.0744 -0.567 0.0197, -0.1325 -0.2597 0.0197, -0.1303 -0.567 0.0197, -0.1718 -0.5631 0.0197, -0.2857 -0.4095 0.0197, -0.2823 -0.3703 0.0197, -0.2731 -0.339 0.0197, -0.1789 -0.2646 0.0197, -0.2051 -0.5527 0.0197, -0.2319 -0.5367 0.0197, -0.254 -0.5149 0.0197, -0.2706 -0.4878 0.0197, -0.2821 -0.4507 0.0197, -0.2594 -0.3148 0.0197, -0.2402 -0.2945 0.0197, -0.2114 -0.2759 0.0197, -1.9587 -1.2205 0.5512, -1.9193 -1.1811 0.5906, -1.9587 -1.2205 0.9252, -1.9193 -1.1811 0.9252, 2.0571 -1.2205 0.5512, 2.0177 -1.1811 0.5906, 2.0571 -1.2205 0.9252, 2.0177 -1.1811 0.9252
            ]
        }
        coordIndex [
            0,1,2,-1,2,1,3,-1,2,3,4,-1,4,3,5,-1,4,5,6,-1,6,5,7,-1,8,9,10,-1,10,9,11,-1,10,11,12,-1,13,14,10,-1,10,14,15,-1,10,15,16,-1,12,17,10,-1,10,17,18,-1,10,18,19,-1,19,20,10,-1,10,20,21,-1,10,21,13,-1,22,23,15,-1,15,23,24,-1,15,24,16,-1,25,26,27,-1,27,26,28,-1,29,30,25,-1,25,30,26,-1,31,32,29,-1,29,32,30,-1,
        ]
    }
}