M48
; DRILL file KiCad 10.0.0 date 2026-09-04T02:36:39
; FORMAT={-:-/ absolute / metric / decimal}
; #@! TF.CreationDate,2026-09-04T02:36:39+03:00
; #@! TF.GenerationSoftware,Kicad,Pcbnew,10.0.0
; #@! TF.FileFunction,Plated,1,2,PTH
FMAT,2
METRIC
; #@! TA.AperFunction,Plated,PTH,ViaDrill
T1C0.300
; #@! TA.AperFunction,Plated,PTH,ComponentDrill
T2C1.000
%
G90
G05
T1
X142.54Y-113.43
X142.65Y-108.43
X143.9Y-108.582
X144.86Y-113.5
X146.47Y-105.17
X146.48Y-115.41
X147.69Y-101.23
X148.16Y-102.225
X148.243Y-110.55
X149.81Y-102.61
X150.952Y-102.958
X151.009Y-106.161
X151.77Y-96.03
X151.95Y-106.48
X153.33Y-108.822
X155.45Y-104.39
X155.68Y-105.84
T2
X141.69Y-94.16
X141.69Y-96.7
X141.69Y-99.24
X141.69Y-101.78
X141.69Y-104.32
X141.69Y-106.86
X141.69Y-109.4
X141.69Y-111.94
X141.69Y-114.48
X156.93Y-94.16
X156.93Y-96.7
X156.93Y-99.24
X156.93Y-101.78
X156.93Y-104.32
X156.93Y-106.86
X156.93Y-109.4
X156.93Y-111.94
X156.93Y-114.48
M30
