%TF.GenerationSoftware,KiCad,Pcbnew,10.0.0*%
%TF.CreationDate,2026-09-04T04:11:43+03:00*%
%TF.ProjectId,Trochi,54726f63-6869-42e6-9b69-6361645f7063,v2.0*%
%TF.SameCoordinates,Original*%
%TF.FileFunction,Legend,Top*%
%TF.FilePolarity,Positive*%
%FSLAX46Y46*%
G04 Gerber Fmt 4.6, Leading zero omitted, Abs format (unit mm)*
G04 Created by KiCad (PCBNEW 10.0.0) date 2026-09-04 04:11:43*
%MOMM*%
%LPD*%
G01*
G04 APERTURE LIST*
%ADD10C,0.000000*%
%ADD11C,0.250000*%
%ADD12C,0.060000*%
%ADD13C,0.120000*%
%ADD14C,0.100000*%
G04 APERTURE END LIST*
D10*
%TO.C,G\u002A\u002A\u002A*%
G36*
X149887457Y-96582689D02*
G01*
X149885133Y-96612906D01*
X149879694Y-96642427D01*
X149879339Y-96643875D01*
X149870696Y-96671181D01*
X149858839Y-96697014D01*
X149844047Y-96721121D01*
X149826599Y-96743249D01*
X149806776Y-96763147D01*
X149784858Y-96780562D01*
X149761124Y-96795242D01*
X149735854Y-96806934D01*
X149709328Y-96815386D01*
X149683937Y-96820098D01*
X149651954Y-96822348D01*
X149620881Y-96821215D01*
X149590948Y-96816770D01*
X149562384Y-96809085D01*
X149535417Y-96798232D01*
X149510277Y-96784283D01*
X149487192Y-96767308D01*
X149472570Y-96753859D01*
X149455278Y-96734624D01*
X149440789Y-96714356D01*
X149428638Y-96692288D01*
X149418363Y-96667651D01*
X149415463Y-96659304D01*
X149406201Y-96626235D01*
X149400649Y-96593766D01*
X149398936Y-96564271D01*
X149480019Y-96564271D01*
X149481493Y-96585409D01*
X149484719Y-96606531D01*
X149489596Y-96626568D01*
X149493296Y-96637688D01*
X149503895Y-96661074D01*
X149517130Y-96681873D01*
X149532747Y-96699955D01*
X149550490Y-96715188D01*
X149570104Y-96727442D01*
X149591332Y-96736585D01*
X149613919Y-96742487D01*
X149637610Y-96745016D01*
X149662148Y-96744042D01*
X149687280Y-96739433D01*
X149690215Y-96738658D01*
X149710982Y-96731089D01*
X149730691Y-96720130D01*
X149748943Y-96706129D01*
X149765343Y-96689434D01*
X149779494Y-96670392D01*
X149790092Y-96651295D01*
X149798234Y-96629925D01*
X149803473Y-96606788D01*
X149805855Y-96582507D01*
X149805425Y-96557704D01*
X149802228Y-96533002D01*
X149796308Y-96509023D01*
X149787711Y-96486391D01*
X149776700Y-96466067D01*
X149762727Y-96447641D01*
X149745952Y-96431344D01*
X149726917Y-96417530D01*
X149706161Y-96406552D01*
X149684222Y-96398763D01*
X149668760Y-96395445D01*
X149657641Y-96394390D01*
X149644177Y-96394164D01*
X149629698Y-96394701D01*
X149615533Y-96395931D01*
X149603012Y-96397787D01*
X149596926Y-96399149D01*
X149575015Y-96406886D01*
X149554712Y-96417884D01*
X149536272Y-96431858D01*
X149519952Y-96448523D01*
X149506006Y-96467597D01*
X149494690Y-96488793D01*
X149486259Y-96511828D01*
X149482732Y-96526218D01*
X149480398Y-96544184D01*
X149480019Y-96564271D01*
X149398936Y-96564271D01*
X149398791Y-96561773D01*
X149400186Y-96534051D01*
X149405063Y-96502447D01*
X149413052Y-96472985D01*
X149424139Y-96445689D01*
X149438311Y-96420582D01*
X149455553Y-96397689D01*
X149475852Y-96377032D01*
X149499193Y-96358635D01*
X149506560Y-96353707D01*
X149531398Y-96339909D01*
X149558228Y-96329140D01*
X149586646Y-96321485D01*
X149616248Y-96317032D01*
X149646629Y-96315868D01*
X149674245Y-96317696D01*
X149704091Y-96322972D01*
X149732486Y-96331637D01*
X149759211Y-96343561D01*
X149784045Y-96358616D01*
X149806767Y-96376673D01*
X149827157Y-96397603D01*
X149840731Y-96415030D01*
X149855315Y-96438826D01*
X149867294Y-96464953D01*
X149876583Y-96492908D01*
X149883097Y-96522186D01*
X149886750Y-96552281D01*
X149887453Y-96582507D01*
X149887457Y-96582689D01*
G37*
G36*
X150700157Y-96337214D02*
G01*
X150710257Y-96340145D01*
X150720447Y-96346861D01*
X150728240Y-96356184D01*
X150731024Y-96361624D01*
X150731431Y-96362899D01*
X150731799Y-96364805D01*
X150732130Y-96367524D01*
X150732426Y-96371236D01*
X150732690Y-96376124D01*
X150732922Y-96382369D01*
X150733125Y-96390153D01*
X150733301Y-96399658D01*
X150733451Y-96411064D01*
X150733578Y-96424554D01*
X150733683Y-96440309D01*
X150733768Y-96458511D01*
X150733835Y-96479341D01*
X150733887Y-96502982D01*
X150733924Y-96529614D01*
X150733949Y-96559420D01*
X150733964Y-96592581D01*
X150733970Y-96629278D01*
X150733971Y-96645711D01*
X150733971Y-96922746D01*
X150879571Y-96922787D01*
X150906618Y-96922799D01*
X150930132Y-96922822D01*
X150950378Y-96922863D01*
X150967618Y-96922926D01*
X150982115Y-96923018D01*
X150994131Y-96923146D01*
X151003929Y-96923315D01*
X151011772Y-96923531D01*
X151017922Y-96923800D01*
X151022643Y-96924128D01*
X151026197Y-96924522D01*
X151028846Y-96924986D01*
X151030854Y-96925528D01*
X151032483Y-96926153D01*
X151032777Y-96926284D01*
X151041387Y-96931878D01*
X151048872Y-96939807D01*
X151054023Y-96948739D01*
X151054596Y-96950312D01*
X151056326Y-96961129D01*
X151054920Y-96972239D01*
X151050748Y-96982717D01*
X151044179Y-96991635D01*
X151035588Y-96998064D01*
X151027067Y-97002449D01*
X150694131Y-97002910D01*
X150361194Y-97003372D01*
X150353371Y-96999186D01*
X150343246Y-96991948D01*
X150336361Y-96982768D01*
X150332686Y-96971588D01*
X150332172Y-96958579D01*
X150334774Y-96946713D01*
X150340599Y-96936722D01*
X150349436Y-96928933D01*
X150352482Y-96927160D01*
X150360843Y-96922746D01*
X150507568Y-96922746D01*
X150654293Y-96922746D01*
X150654304Y-96647195D01*
X150654318Y-96607423D01*
X150654358Y-96570299D01*
X150654422Y-96535922D01*
X150654509Y-96504391D01*
X150654620Y-96475803D01*
X150654754Y-96450258D01*
X150654909Y-96427853D01*
X150655086Y-96408688D01*
X150655283Y-96392860D01*
X150655500Y-96380469D01*
X150655736Y-96371612D01*
X150655991Y-96366389D01*
X150656162Y-96365004D01*
X150660010Y-96356720D01*
X150666340Y-96348706D01*
X150673992Y-96342294D01*
X150677873Y-96340139D01*
X150688703Y-96337128D01*
X150700157Y-96337214D01*
G37*
G36*
X150407414Y-96337963D02*
G01*
X150410519Y-96338722D01*
X150421134Y-96344604D01*
X150429441Y-96353390D01*
X150432612Y-96358787D01*
X150437071Y-96367850D01*
X150437074Y-96566095D01*
X150437072Y-96597935D01*
X150437062Y-96626204D01*
X150437040Y-96651126D01*
X150437002Y-96672924D01*
X150436946Y-96691823D01*
X150436867Y-96708046D01*
X150436761Y-96721816D01*
X150436624Y-96733356D01*
X150436454Y-96742891D01*
X150436246Y-96750644D01*
X150435997Y-96756839D01*
X150435702Y-96761698D01*
X150435359Y-96765447D01*
X150434963Y-96768308D01*
X150434510Y-96770504D01*
X150433998Y-96772260D01*
X150433635Y-96773262D01*
X150428009Y-96783214D01*
X150420235Y-96790571D01*
X150410960Y-96795307D01*
X150400827Y-96797398D01*
X150390482Y-96796816D01*
X150380570Y-96793536D01*
X150371735Y-96787532D01*
X150364624Y-96778779D01*
X150363157Y-96776090D01*
X150360168Y-96768875D01*
X150358701Y-96761554D01*
X150358349Y-96753357D01*
X150358349Y-96740275D01*
X150348389Y-96749234D01*
X150327338Y-96765677D01*
X150304047Y-96779364D01*
X150278913Y-96790265D01*
X150252337Y-96798351D01*
X150224718Y-96803590D01*
X150196455Y-96805953D01*
X150167947Y-96805409D01*
X150139593Y-96801928D01*
X150111792Y-96795480D01*
X150084944Y-96786035D01*
X150059448Y-96773561D01*
X150055765Y-96771427D01*
X150044682Y-96763870D01*
X150032736Y-96754033D01*
X150020748Y-96742743D01*
X150009544Y-96730827D01*
X149999946Y-96719111D01*
X149992779Y-96708421D01*
X149992534Y-96707990D01*
X149984921Y-96693032D01*
X149979203Y-96678723D01*
X149975623Y-96665770D01*
X149974425Y-96655258D01*
X149976106Y-96643084D01*
X149980931Y-96632608D01*
X149988470Y-96624259D01*
X149998290Y-96618467D01*
X150009961Y-96615659D01*
X150014442Y-96615461D01*
X150026603Y-96617261D01*
X150037199Y-96622449D01*
X150046051Y-96630876D01*
X150052978Y-96642397D01*
X150055520Y-96648848D01*
X150062146Y-96664741D01*
X150070628Y-96678213D01*
X150081619Y-96690119D01*
X150095279Y-96700967D01*
X150114531Y-96712172D01*
X150136067Y-96720354D01*
X150159873Y-96725509D01*
X150185933Y-96727632D01*
X150191406Y-96727692D01*
X150217645Y-96726210D01*
X150241758Y-96721701D01*
X150264023Y-96714074D01*
X150284718Y-96703237D01*
X150301292Y-96691425D01*
X150313820Y-96679457D01*
X150325553Y-96664717D01*
X150335839Y-96648223D01*
X150344028Y-96630994D01*
X150348675Y-96617209D01*
X150350417Y-96610599D01*
X150351899Y-96604512D01*
X150353142Y-96598581D01*
X150354168Y-96592441D01*
X150354998Y-96585723D01*
X150355655Y-96578061D01*
X150356160Y-96569089D01*
X150356535Y-96558439D01*
X150356802Y-96545745D01*
X150356982Y-96530640D01*
X150357096Y-96512758D01*
X150357168Y-96491730D01*
X150357207Y-96473138D01*
X150357400Y-96367850D01*
X150362143Y-96358377D01*
X150368945Y-96348391D01*
X150377785Y-96341601D01*
X150388738Y-96337959D01*
X150393626Y-96337378D01*
X150400846Y-96337314D01*
X150407414Y-96337963D01*
G37*
G36*
X148194326Y-96337298D02*
G01*
X148205045Y-96340764D01*
X148214528Y-96347103D01*
X148222083Y-96356040D01*
X148224790Y-96361103D01*
X148225308Y-96363715D01*
X148225783Y-96369220D01*
X148226218Y-96377741D01*
X148226616Y-96389397D01*
X148226980Y-96404310D01*
X148227313Y-96422600D01*
X148227619Y-96444387D01*
X148227901Y-96469793D01*
X148228023Y-96482623D01*
X148228256Y-96507178D01*
X148228484Y-96528253D01*
X148228717Y-96546164D01*
X148228967Y-96561225D01*
X148229243Y-96573751D01*
X148229557Y-96584057D01*
X148229917Y-96592458D01*
X148230335Y-96599269D01*
X148230822Y-96604804D01*
X148231387Y-96609379D01*
X148232041Y-96613307D01*
X148232406Y-96615134D01*
X148239377Y-96640766D01*
X148248940Y-96663628D01*
X148261103Y-96683730D01*
X148275873Y-96701081D01*
X148293260Y-96715689D01*
X148313272Y-96727563D01*
X148335916Y-96736714D01*
X148344599Y-96739311D01*
X148350627Y-96740839D01*
X148356384Y-96741939D01*
X148362656Y-96742676D01*
X148370228Y-96743111D01*
X148379889Y-96743307D01*
X148392423Y-96743327D01*
X148394871Y-96743318D01*
X148408151Y-96743198D01*
X148418429Y-96742925D01*
X148426497Y-96742431D01*
X148433148Y-96741649D01*
X148439172Y-96740510D01*
X148445144Y-96739006D01*
X148468604Y-96730774D01*
X148489663Y-96719632D01*
X148508257Y-96705658D01*
X148524319Y-96688933D01*
X148537783Y-96669537D01*
X148548582Y-96647552D01*
X148556652Y-96623056D01*
X148561748Y-96597397D01*
X148562120Y-96592871D01*
X148562466Y-96584921D01*
X148562780Y-96573917D01*
X148563057Y-96560230D01*
X148563289Y-96544230D01*
X148563473Y-96526286D01*
X148563600Y-96506770D01*
X148563666Y-96486052D01*
X148563674Y-96478101D01*
X148563715Y-96451942D01*
X148563820Y-96429454D01*
X148563992Y-96410513D01*
X148564233Y-96394995D01*
X148564545Y-96382776D01*
X148564931Y-96373734D01*
X148565393Y-96367744D01*
X148565877Y-96364857D01*
X148570849Y-96354354D01*
X148578427Y-96346021D01*
X148587919Y-96340173D01*
X148598636Y-96337126D01*
X148609889Y-96337194D01*
X148619875Y-96340168D01*
X148629310Y-96345940D01*
X148636314Y-96353915D01*
X148639781Y-96360262D01*
X148640243Y-96361365D01*
X148640663Y-96362711D01*
X148641043Y-96364476D01*
X148641385Y-96366837D01*
X148641690Y-96369974D01*
X148641961Y-96374062D01*
X148642201Y-96379281D01*
X148642410Y-96385806D01*
X148642591Y-96393817D01*
X148642746Y-96403491D01*
X148642876Y-96415005D01*
X148642985Y-96428537D01*
X148643074Y-96444264D01*
X148643145Y-96462365D01*
X148643199Y-96483016D01*
X148643240Y-96506396D01*
X148643269Y-96532682D01*
X148643288Y-96562052D01*
X148643299Y-96594683D01*
X148643304Y-96630752D01*
X148643305Y-96670434D01*
X148643304Y-96710121D01*
X148643299Y-96746191D01*
X148643288Y-96778823D01*
X148643269Y-96808193D01*
X148643240Y-96834479D01*
X148643199Y-96857860D01*
X148643144Y-96878512D01*
X148643074Y-96896613D01*
X148642985Y-96912340D01*
X148642876Y-96925873D01*
X148642745Y-96937387D01*
X148642590Y-96947061D01*
X148642409Y-96955072D01*
X148642200Y-96961598D01*
X148641961Y-96966816D01*
X148641689Y-96970905D01*
X148641384Y-96974041D01*
X148641042Y-96976403D01*
X148640663Y-96978167D01*
X148640243Y-96979512D01*
X148639785Y-96980607D01*
X148634918Y-96988420D01*
X148628301Y-96995580D01*
X148621140Y-97000878D01*
X148618129Y-97002307D01*
X148613180Y-97003444D01*
X148606336Y-97004159D01*
X148602004Y-97004289D01*
X148590133Y-97002622D01*
X148580075Y-96997637D01*
X148571665Y-96989248D01*
X148570653Y-96987858D01*
X148568976Y-96985254D01*
X148567538Y-96982374D01*
X148566324Y-96978926D01*
X148565317Y-96974618D01*
X148564501Y-96969157D01*
X148563859Y-96962251D01*
X148563375Y-96953606D01*
X148563034Y-96942931D01*
X148562819Y-96929933D01*
X148562713Y-96914319D01*
X148562700Y-96895797D01*
X148562765Y-96874075D01*
X148562890Y-96848860D01*
X148562895Y-96848090D01*
X148563455Y-96747824D01*
X148551727Y-96759384D01*
X148531233Y-96777334D01*
X148509329Y-96792082D01*
X148485795Y-96803713D01*
X148460413Y-96812307D01*
X148432964Y-96817948D01*
X148403229Y-96820716D01*
X148387283Y-96821049D01*
X148367126Y-96820618D01*
X148349503Y-96819255D01*
X148333228Y-96816781D01*
X148317115Y-96813016D01*
X148300017Y-96807792D01*
X148273582Y-96797010D01*
X148249161Y-96783104D01*
X148226957Y-96766282D01*
X148207176Y-96746755D01*
X148190023Y-96724734D01*
X148175701Y-96700427D01*
X148164415Y-96674047D01*
X148161605Y-96665611D01*
X148159268Y-96658110D01*
X148157252Y-96651459D01*
X148155531Y-96645322D01*
X148154080Y-96639363D01*
X148152875Y-96633244D01*
X148151888Y-96626630D01*
X148151096Y-96619182D01*
X148150472Y-96610565D01*
X148149992Y-96600441D01*
X148149629Y-96588474D01*
X148149358Y-96574326D01*
X148149154Y-96557662D01*
X148148992Y-96538145D01*
X148148846Y-96515436D01*
X148148724Y-96494954D01*
X148148584Y-96467061D01*
X148148517Y-96442824D01*
X148148525Y-96422110D01*
X148148609Y-96404781D01*
X148148771Y-96390702D01*
X148149012Y-96379738D01*
X148149333Y-96371752D01*
X148149737Y-96366608D01*
X148150104Y-96364499D01*
X148154288Y-96355849D01*
X148161053Y-96347749D01*
X148169258Y-96341476D01*
X148171948Y-96340086D01*
X148183062Y-96336980D01*
X148194326Y-96337298D01*
G37*
G36*
X147966117Y-96337407D02*
G01*
X147973720Y-96339454D01*
X147983911Y-96346041D01*
X147992386Y-96355585D01*
X147995236Y-96360262D01*
X147999330Y-96367850D01*
X147999330Y-96570838D01*
X147999323Y-96604121D01*
X147999298Y-96633807D01*
X147999254Y-96660092D01*
X147999188Y-96683172D01*
X147999098Y-96703244D01*
X147998982Y-96720504D01*
X147998837Y-96735148D01*
X147998660Y-96747374D01*
X147998450Y-96757377D01*
X147998205Y-96765355D01*
X147997920Y-96771503D01*
X147997595Y-96776018D01*
X147997228Y-96779096D01*
X147996814Y-96780934D01*
X147996796Y-96780987D01*
X147991399Y-96791309D01*
X147983835Y-96799052D01*
X147974720Y-96804220D01*
X147964666Y-96806814D01*
X147954290Y-96806838D01*
X147944205Y-96804293D01*
X147935025Y-96799183D01*
X147927366Y-96791509D01*
X147921841Y-96781275D01*
X147921624Y-96780674D01*
X147921154Y-96778992D01*
X147920736Y-96776622D01*
X147920367Y-96773349D01*
X147920045Y-96768957D01*
X147919766Y-96763231D01*
X147919528Y-96755956D01*
X147919327Y-96746916D01*
X147919161Y-96735896D01*
X147919025Y-96722681D01*
X147918919Y-96707056D01*
X147918837Y-96688805D01*
X147918778Y-96667713D01*
X147918738Y-96643564D01*
X147918715Y-96616144D01*
X147918705Y-96585236D01*
X147918704Y-96570939D01*
X147918704Y-96369479D01*
X147923921Y-96359191D01*
X147930782Y-96348909D01*
X147939377Y-96341940D01*
X147949984Y-96338093D01*
X147955878Y-96337299D01*
X147966117Y-96337407D01*
G37*
G36*
X149081709Y-96339029D02*
G01*
X149097343Y-96339110D01*
X149110360Y-96339252D01*
X149121056Y-96339462D01*
X149129725Y-96339743D01*
X149136661Y-96340102D01*
X149142158Y-96340543D01*
X149146511Y-96341072D01*
X149148666Y-96341428D01*
X149175268Y-96348170D01*
X149200179Y-96358204D01*
X149223226Y-96371346D01*
X149244240Y-96387412D01*
X149263048Y-96406219D01*
X149279481Y-96427581D01*
X149293366Y-96451316D01*
X149304534Y-96477239D01*
X149312812Y-96505166D01*
X149316106Y-96521518D01*
X149317973Y-96536247D01*
X149319055Y-96552906D01*
X149319351Y-96570310D01*
X149318863Y-96587273D01*
X149317589Y-96602609D01*
X149316096Y-96612450D01*
X149308713Y-96642028D01*
X149298504Y-96669720D01*
X149285639Y-96695320D01*
X149270285Y-96718622D01*
X149252613Y-96739420D01*
X149232790Y-96757508D01*
X149210987Y-96772681D01*
X149187370Y-96784732D01*
X149169443Y-96791327D01*
X149152755Y-96796533D01*
X149030108Y-96797113D01*
X149005323Y-96797225D01*
X148984018Y-96797303D01*
X148965878Y-96797341D01*
X148950589Y-96797331D01*
X148937836Y-96797268D01*
X148927305Y-96797144D01*
X148918681Y-96796952D01*
X148911650Y-96796686D01*
X148905897Y-96796338D01*
X148901108Y-96795903D01*
X148896968Y-96795373D01*
X148893164Y-96794740D01*
X148889705Y-96794066D01*
X148865309Y-96787210D01*
X148842452Y-96777044D01*
X148821445Y-96763815D01*
X148802601Y-96747768D01*
X148786233Y-96729149D01*
X148772652Y-96708205D01*
X148767384Y-96697764D01*
X148762020Y-96683956D01*
X148759687Y-96671995D01*
X148760396Y-96661427D01*
X148764159Y-96651803D01*
X148768733Y-96645243D01*
X148777690Y-96637194D01*
X148788339Y-96632197D01*
X148799914Y-96630443D01*
X148811647Y-96632124D01*
X148815584Y-96633532D01*
X148821637Y-96636586D01*
X148826630Y-96640553D01*
X148831162Y-96646142D01*
X148835832Y-96654060D01*
X148839995Y-96662392D01*
X148849462Y-96678879D01*
X148860609Y-96692106D01*
X148873662Y-96702313D01*
X148880845Y-96706299D01*
X148885795Y-96708670D01*
X148890479Y-96710699D01*
X148895225Y-96712410D01*
X148900359Y-96713828D01*
X148906211Y-96714979D01*
X148913107Y-96715886D01*
X148921374Y-96716575D01*
X148931341Y-96717071D01*
X148943336Y-96717397D01*
X148957685Y-96717580D01*
X148974716Y-96717643D01*
X148994758Y-96717612D01*
X149018137Y-96717511D01*
X149028316Y-96717457D01*
X149135681Y-96716880D01*
X149151156Y-96711652D01*
X149170337Y-96703263D01*
X149187372Y-96691769D01*
X149202287Y-96677147D01*
X149215109Y-96659370D01*
X149221906Y-96646983D01*
X149229276Y-96630588D01*
X149234481Y-96615155D01*
X149237792Y-96599475D01*
X149239482Y-96582338D01*
X149239850Y-96567043D01*
X149239713Y-96554776D01*
X149239238Y-96545172D01*
X149238312Y-96537107D01*
X149236821Y-96529457D01*
X149235544Y-96524359D01*
X149227904Y-96501858D01*
X149217653Y-96481495D01*
X149205023Y-96463515D01*
X149190246Y-96448167D01*
X149173553Y-96435696D01*
X149155178Y-96426351D01*
X149138527Y-96421076D01*
X149133479Y-96420362D01*
X149125097Y-96419738D01*
X149113834Y-96419203D01*
X149100146Y-96418758D01*
X149084488Y-96418403D01*
X149067315Y-96418139D01*
X149049082Y-96417965D01*
X149030245Y-96417881D01*
X149011257Y-96417888D01*
X148992575Y-96417986D01*
X148974653Y-96418176D01*
X148957947Y-96418456D01*
X148942911Y-96418829D01*
X148930001Y-96419293D01*
X148919672Y-96419849D01*
X148912378Y-96420497D01*
X148909435Y-96420979D01*
X148891231Y-96427136D01*
X148874954Y-96436550D01*
X148860655Y-96449178D01*
X148848384Y-96464978D01*
X148841862Y-96476263D01*
X148835757Y-96487187D01*
X148830045Y-96494962D01*
X148824049Y-96500076D01*
X148817088Y-96503021D01*
X148808482Y-96504284D01*
X148802744Y-96504440D01*
X148794877Y-96504276D01*
X148789465Y-96503570D01*
X148785175Y-96501996D01*
X148780674Y-96499229D01*
X148780311Y-96498979D01*
X148771887Y-96490931D01*
X148766091Y-96480676D01*
X148763323Y-96469076D01*
X148763253Y-96462220D01*
X148765647Y-96450126D01*
X148770950Y-96436668D01*
X148778825Y-96422441D01*
X148788929Y-96408039D01*
X148800925Y-96394056D01*
X148804003Y-96390875D01*
X148823378Y-96373650D01*
X148844082Y-96359876D01*
X148866488Y-96349331D01*
X148883369Y-96343757D01*
X148886560Y-96342890D01*
X148889655Y-96342149D01*
X148892969Y-96341523D01*
X148896818Y-96341001D01*
X148901516Y-96340571D01*
X148907379Y-96340222D01*
X148914722Y-96339944D01*
X148923860Y-96339725D01*
X148935109Y-96339555D01*
X148948783Y-96339423D01*
X148965198Y-96339316D01*
X148984669Y-96339225D01*
X149007511Y-96339138D01*
X149016165Y-96339107D01*
X149041414Y-96339033D01*
X149063164Y-96339006D01*
X149081709Y-96339029D01*
G37*
G36*
X147969580Y-96908604D02*
G01*
X147975923Y-96909811D01*
X147983632Y-96913313D01*
X147991574Y-96919300D01*
X147998560Y-96926741D01*
X148002589Y-96932909D01*
X148005569Y-96941746D01*
X148006838Y-96952557D01*
X148006369Y-96963916D01*
X148004133Y-96974396D01*
X148003455Y-96976304D01*
X147998525Y-96984942D01*
X147991152Y-96992954D01*
X147982528Y-96999219D01*
X147975983Y-97002089D01*
X147966167Y-97003874D01*
X147954988Y-97004162D01*
X147944502Y-97002950D01*
X147941322Y-97002155D01*
X147930947Y-96997176D01*
X147922371Y-96989370D01*
X147915864Y-96979385D01*
X147911694Y-96967866D01*
X147910129Y-96955459D01*
X147911438Y-96942809D01*
X147913631Y-96935586D01*
X147918174Y-96927530D01*
X147924981Y-96919801D01*
X147932916Y-96913471D01*
X147940845Y-96909612D01*
X147941237Y-96909499D01*
X147949491Y-96908157D01*
X147959550Y-96907864D01*
X147969580Y-96908604D01*
G37*
G36*
X149547273Y-105989295D02*
G01*
X149554473Y-106030736D01*
X149572632Y-106071795D01*
X149584537Y-106090174D01*
X149605737Y-106121026D01*
X149634151Y-106161473D01*
X149667696Y-106208634D01*
X149704292Y-106259632D01*
X149741856Y-106311587D01*
X149778307Y-106361620D01*
X149811564Y-106406853D01*
X149839545Y-106444406D01*
X149860168Y-106471401D01*
X149871351Y-106484958D01*
X149871393Y-106485000D01*
X149874814Y-106479044D01*
X149877201Y-106453385D01*
X149878546Y-106408294D01*
X149878841Y-106344042D01*
X149878133Y-106265000D01*
X149876989Y-106190332D01*
X149875675Y-106132770D01*
X149873934Y-106089424D01*
X149871507Y-106057402D01*
X149868136Y-106033811D01*
X149863560Y-106015759D01*
X149857523Y-106000353D01*
X149853755Y-105992500D01*
X149832510Y-105950000D01*
X150051554Y-105950000D01*
X150270599Y-105950000D01*
X150247800Y-105980838D01*
X150225000Y-106011676D01*
X150225000Y-106645001D01*
X150225000Y-107278325D01*
X150247800Y-107309163D01*
X150270599Y-107340000D01*
X150051554Y-107340000D01*
X149832510Y-107340000D01*
X149853755Y-107297500D01*
X149860873Y-107281759D01*
X149866289Y-107264775D01*
X149870291Y-107243519D01*
X149873166Y-107214961D01*
X149875199Y-107176071D01*
X149876677Y-107123817D01*
X149877888Y-107055171D01*
X149878111Y-107040000D01*
X149879000Y-106968919D01*
X149879250Y-106915653D01*
X149878737Y-106878021D01*
X149877339Y-106853845D01*
X149874934Y-106840947D01*
X149871399Y-106837146D01*
X149866861Y-106840000D01*
X149849759Y-106859501D01*
X149823795Y-106891150D01*
X149791197Y-106932041D01*
X149754189Y-106979272D01*
X149714997Y-107029937D01*
X149675849Y-107081134D01*
X149638969Y-107129958D01*
X149606584Y-107173505D01*
X149580921Y-107208870D01*
X149564204Y-107233151D01*
X149559518Y-107240946D01*
X149546901Y-107272929D01*
X149540288Y-107303846D01*
X149540000Y-107309602D01*
X149540000Y-107340000D01*
X149303219Y-107340000D01*
X149066438Y-107340000D01*
X149102942Y-107312500D01*
X149116236Y-107301971D01*
X149130217Y-107289533D01*
X149146175Y-107273680D01*
X149165399Y-107252903D01*
X149189177Y-107225694D01*
X149218799Y-107190545D01*
X149255552Y-107145947D01*
X149300727Y-107090393D01*
X149355611Y-107022374D01*
X149421493Y-106940382D01*
X149430104Y-106929651D01*
X149626961Y-106684302D01*
X149413303Y-106389651D01*
X149361233Y-106318345D01*
X149309973Y-106249081D01*
X149261391Y-106184314D01*
X149217351Y-106126499D01*
X149179719Y-106078087D01*
X149150362Y-106041533D01*
X149134109Y-106022500D01*
X149068574Y-105950000D01*
X149307924Y-105950000D01*
X149547273Y-105950000D01*
X149547273Y-105989295D01*
G37*
G36*
X148979891Y-105982500D02*
G01*
X148975166Y-105991006D01*
X148971258Y-106000842D01*
X148968089Y-106013869D01*
X148965582Y-106031947D01*
X148963660Y-106056939D01*
X148962247Y-106090705D01*
X148961264Y-106135105D01*
X148960635Y-106192001D01*
X148960283Y-106263255D01*
X148960130Y-106350726D01*
X148960099Y-106456276D01*
X148960099Y-106460000D01*
X148960192Y-106568756D01*
X148960495Y-106659266D01*
X148961063Y-106733286D01*
X148961952Y-106792570D01*
X148963217Y-106838872D01*
X148964913Y-106873946D01*
X148967097Y-106899547D01*
X148969823Y-106917430D01*
X148973146Y-106929349D01*
X148975062Y-106933644D01*
X148985359Y-106954455D01*
X148989981Y-106965912D01*
X148990000Y-106966144D01*
X148980527Y-106967376D01*
X148954208Y-106968445D01*
X148914201Y-106969284D01*
X148863662Y-106969824D01*
X148810000Y-106970000D01*
X148630000Y-106970000D01*
X148629781Y-106502500D01*
X148629690Y-106393178D01*
X148629484Y-106302007D01*
X148629090Y-106227142D01*
X148628439Y-106166735D01*
X148627460Y-106118938D01*
X148626081Y-106081904D01*
X148624234Y-106053787D01*
X148621845Y-106032737D01*
X148618846Y-106016909D01*
X148615166Y-106004455D01*
X148610733Y-105993526D01*
X148610270Y-105992500D01*
X148590978Y-105950000D01*
X148795342Y-105950000D01*
X148999707Y-105950000D01*
X148979891Y-105982500D01*
G37*
G36*
X148847666Y-107368533D02*
G01*
X148855637Y-107370705D01*
X148888520Y-107387682D01*
X148922775Y-107416929D01*
X148952236Y-107452193D01*
X148970732Y-107487220D01*
X148970824Y-107487496D01*
X148980307Y-107545147D01*
X148972138Y-107600390D01*
X148948599Y-107650009D01*
X148911971Y-107690789D01*
X148864537Y-107719512D01*
X148808579Y-107732964D01*
X148796233Y-107733544D01*
X148736913Y-107725340D01*
X148685992Y-107700644D01*
X148646110Y-107662048D01*
X148619906Y-107612141D01*
X148610019Y-107553516D01*
X148610000Y-107550741D01*
X148618721Y-107489262D01*
X148643186Y-107437743D01*
X148680856Y-107398048D01*
X148729187Y-107372039D01*
X148785638Y-107361580D01*
X148847666Y-107368533D01*
G37*
G36*
X146592352Y-105045551D02*
G01*
X146598547Y-105046369D01*
X146607385Y-105047951D01*
X146607922Y-105048051D01*
X146626448Y-105053482D01*
X146642500Y-105062389D01*
X146655991Y-105074662D01*
X146666830Y-105090191D01*
X146674930Y-105108868D01*
X146680201Y-105130582D01*
X146681313Y-105138468D01*
X146682276Y-105160895D01*
X146679920Y-105182294D01*
X146674430Y-105202141D01*
X146665991Y-105219912D01*
X146654788Y-105235082D01*
X146643537Y-105245314D01*
X146629959Y-105253482D01*
X146615190Y-105258926D01*
X146600020Y-105261617D01*
X146585242Y-105261526D01*
X146571646Y-105258626D01*
X146560024Y-105252887D01*
X146554787Y-105248537D01*
X146547641Y-105241390D01*
X146547641Y-105249786D01*
X146547641Y-105258183D01*
X146530417Y-105258183D01*
X146513194Y-105258183D01*
X146513194Y-105224813D01*
X146513194Y-105191443D01*
X146530417Y-105191443D01*
X146547641Y-105191443D01*
X146547649Y-105203822D01*
X146549202Y-105216692D01*
X146553862Y-105226596D01*
X146561654Y-105233557D01*
X146572605Y-105237600D01*
X146585316Y-105238763D01*
X146598621Y-105237635D01*
X146608875Y-105234043D01*
X146616804Y-105227595D01*
X146622866Y-105218422D01*
X146624717Y-105214655D01*
X146626112Y-105211070D01*
X146627128Y-105206985D01*
X146627840Y-105201714D01*
X146628326Y-105194575D01*
X146628662Y-105184883D01*
X146628924Y-105171954D01*
X146629069Y-105162995D01*
X146629224Y-105144636D01*
X146628990Y-105129953D01*
X146628260Y-105118323D01*
X146626934Y-105109126D01*
X146624905Y-105101741D01*
X146622071Y-105095546D01*
X146618329Y-105089920D01*
X146616491Y-105087614D01*
X146607817Y-105080301D01*
X146596565Y-105075455D01*
X146583838Y-105073313D01*
X146570740Y-105074112D01*
X146563062Y-105076138D01*
X146550481Y-105082306D01*
X146540293Y-105091390D01*
X146534431Y-105099322D01*
X146530732Y-105104905D01*
X146528027Y-105108649D01*
X146527087Y-105109632D01*
X146524956Y-105108644D01*
X146520520Y-105106177D01*
X146518809Y-105105178D01*
X146514050Y-105101963D01*
X146512439Y-105099212D01*
X146513206Y-105095607D01*
X146513210Y-105095595D01*
X146520921Y-105081152D01*
X146532072Y-105068502D01*
X146545986Y-105058178D01*
X146561988Y-105050712D01*
X146574496Y-105047391D01*
X146581840Y-105046092D01*
X146587288Y-105045469D01*
X146592352Y-105045551D01*
G37*
G36*
X146030348Y-105217325D02*
G01*
X146018177Y-105233155D01*
X146003504Y-105245760D01*
X145986704Y-105254941D01*
X145968149Y-105260499D01*
X145948213Y-105262234D01*
X145927270Y-105259946D01*
X145925230Y-105259510D01*
X145905801Y-105253200D01*
X145889105Y-105243643D01*
X145875254Y-105231010D01*
X145864363Y-105215472D01*
X145856543Y-105197199D01*
X145851910Y-105176362D01*
X145850611Y-105153767D01*
X145904998Y-105153767D01*
X145904998Y-105209742D01*
X145910887Y-105219761D01*
X145916819Y-105227705D01*
X145924613Y-105233564D01*
X145927995Y-105235369D01*
X145940314Y-105239932D01*
X145951857Y-105240597D01*
X145963689Y-105237353D01*
X145968727Y-105234965D01*
X145976456Y-105230229D01*
X145981802Y-105224772D01*
X145986196Y-105217496D01*
X145992190Y-105206021D01*
X145992178Y-105156212D01*
X145992077Y-105140906D01*
X145991797Y-105126889D01*
X145991367Y-105114853D01*
X145990814Y-105105488D01*
X145990164Y-105099487D01*
X145989908Y-105098271D01*
X145985889Y-105089504D01*
X145979346Y-105080886D01*
X145971626Y-105074018D01*
X145967472Y-105071615D01*
X145960514Y-105069846D01*
X145950458Y-105069187D01*
X145945523Y-105069271D01*
X145936877Y-105069830D01*
X145930967Y-105071006D01*
X145926228Y-105073281D01*
X145921841Y-105076524D01*
X145917019Y-105080521D01*
X145913218Y-105084197D01*
X145910317Y-105088110D01*
X145908194Y-105092816D01*
X145906727Y-105098873D01*
X145905796Y-105106837D01*
X145905279Y-105117265D01*
X145905053Y-105130715D01*
X145904999Y-105147743D01*
X145904998Y-105153767D01*
X145850611Y-105153767D01*
X145850575Y-105153133D01*
X145850754Y-105147308D01*
X145852944Y-105125835D01*
X145857501Y-105107505D01*
X145864670Y-105091717D01*
X145874692Y-105077868D01*
X145881673Y-105070706D01*
X145894257Y-105060805D01*
X145908217Y-105053676D01*
X145924829Y-105048685D01*
X145926775Y-105048260D01*
X145938870Y-105046096D01*
X145949019Y-105045434D01*
X145959269Y-105046281D01*
X145970525Y-105048392D01*
X145989875Y-105054623D01*
X146006696Y-105064282D01*
X146020816Y-105077196D01*
X146032063Y-105093188D01*
X146040264Y-105112084D01*
X146043034Y-105121992D01*
X146045017Y-105134596D01*
X146045792Y-105149345D01*
X146045423Y-105164850D01*
X146043969Y-105179722D01*
X146041494Y-105192572D01*
X146039645Y-105198469D01*
X146035921Y-105206021D01*
X146030348Y-105217325D01*
G37*
G36*
X145453553Y-105046069D02*
G01*
X145461420Y-105047925D01*
X145464472Y-105048802D01*
X145475169Y-105053396D01*
X145483310Y-105059465D01*
X145490563Y-105066718D01*
X145490563Y-105058034D01*
X145490563Y-105049351D01*
X145507786Y-105049351D01*
X145525010Y-105049351D01*
X145525010Y-105079492D01*
X145525010Y-105109632D01*
X145507786Y-105109632D01*
X145490563Y-105109632D01*
X145490563Y-105099837D01*
X145489139Y-105088638D01*
X145484738Y-105080080D01*
X145477164Y-105074020D01*
X145466224Y-105070315D01*
X145451724Y-105068820D01*
X145448548Y-105068774D01*
X145435063Y-105069581D01*
X145424785Y-105072282D01*
X145416920Y-105077173D01*
X145412261Y-105082279D01*
X145409139Y-105089311D01*
X145407928Y-105098264D01*
X145408742Y-105107144D01*
X145410536Y-105112170D01*
X145413377Y-105116214D01*
X145417571Y-105119652D01*
X145423766Y-105122780D01*
X145432608Y-105125893D01*
X145444743Y-105129287D01*
X145451814Y-105131075D01*
X145470479Y-105136310D01*
X145485364Y-105141940D01*
X145496991Y-105148239D01*
X145505885Y-105155480D01*
X145511366Y-105162111D01*
X145517454Y-105172443D01*
X145521054Y-105182794D01*
X145522627Y-105194782D01*
X145522797Y-105202207D01*
X145520871Y-105218171D01*
X145515312Y-105231983D01*
X145506328Y-105243449D01*
X145494122Y-105252373D01*
X145478901Y-105258559D01*
X145460868Y-105261811D01*
X145460313Y-105261859D01*
X145444463Y-105261632D01*
X145430317Y-105258330D01*
X145418588Y-105252160D01*
X145414151Y-105248368D01*
X145406600Y-105240816D01*
X145406600Y-105249499D01*
X145406600Y-105258183D01*
X145389376Y-105258183D01*
X145372153Y-105258183D01*
X145372153Y-105228042D01*
X145372153Y-105197901D01*
X145389376Y-105197901D01*
X145406600Y-105197901D01*
X145406603Y-105207051D01*
X145408393Y-105218773D01*
X145413559Y-105228271D01*
X145421809Y-105235032D01*
X145422746Y-105235515D01*
X145431399Y-105238295D01*
X145442213Y-105239692D01*
X145453578Y-105239693D01*
X145463889Y-105238284D01*
X145470744Y-105235905D01*
X145478984Y-105229338D01*
X145484210Y-105220568D01*
X145486081Y-105210640D01*
X145484255Y-105200603D01*
X145483087Y-105198015D01*
X145478931Y-105192897D01*
X145471839Y-105188334D01*
X145461411Y-105184144D01*
X145447249Y-105180147D01*
X145439970Y-105178455D01*
X145420445Y-105173342D01*
X145404678Y-105167348D01*
X145392163Y-105160170D01*
X145382390Y-105151505D01*
X145374853Y-105141051D01*
X145373710Y-105138986D01*
X145370232Y-105128980D01*
X145368656Y-105116666D01*
X145368968Y-105103592D01*
X145371153Y-105091304D01*
X145374249Y-105083060D01*
X145383077Y-105070393D01*
X145395222Y-105060008D01*
X145410150Y-105052254D01*
X145427328Y-105047485D01*
X145428426Y-105047300D01*
X145438745Y-105045827D01*
X145446558Y-105045393D01*
X145453553Y-105046069D01*
G37*
G36*
X144846433Y-105046069D02*
G01*
X144854300Y-105047925D01*
X144857353Y-105048802D01*
X144868050Y-105053396D01*
X144876191Y-105059465D01*
X144883443Y-105066718D01*
X144883443Y-105058034D01*
X144883443Y-105049351D01*
X144900666Y-105049351D01*
X144917890Y-105049351D01*
X144917890Y-105079492D01*
X144917890Y-105109632D01*
X144900666Y-105109632D01*
X144883443Y-105109632D01*
X144883443Y-105099837D01*
X144882019Y-105088638D01*
X144877618Y-105080080D01*
X144870044Y-105074020D01*
X144859105Y-105070315D01*
X144844604Y-105068820D01*
X144841428Y-105068774D01*
X144827943Y-105069581D01*
X144817665Y-105072282D01*
X144809801Y-105077173D01*
X144805141Y-105082279D01*
X144802020Y-105089311D01*
X144800808Y-105098264D01*
X144801622Y-105107144D01*
X144803416Y-105112170D01*
X144806257Y-105116214D01*
X144810451Y-105119652D01*
X144816646Y-105122780D01*
X144825488Y-105125893D01*
X144837623Y-105129287D01*
X144844694Y-105131075D01*
X144863359Y-105136310D01*
X144878244Y-105141940D01*
X144889872Y-105148239D01*
X144898765Y-105155480D01*
X144904246Y-105162111D01*
X144910334Y-105172443D01*
X144913934Y-105182794D01*
X144915507Y-105194782D01*
X144915678Y-105202207D01*
X144913751Y-105218171D01*
X144908193Y-105231983D01*
X144899208Y-105243449D01*
X144887002Y-105252373D01*
X144871781Y-105258559D01*
X144853748Y-105261811D01*
X144853193Y-105261859D01*
X144837343Y-105261632D01*
X144823197Y-105258330D01*
X144811468Y-105252160D01*
X144807031Y-105248368D01*
X144799480Y-105240816D01*
X144799480Y-105249499D01*
X144799480Y-105258183D01*
X144782257Y-105258183D01*
X144765033Y-105258183D01*
X144765033Y-105228042D01*
X144765033Y-105197901D01*
X144782257Y-105197901D01*
X144799480Y-105197901D01*
X144799483Y-105207051D01*
X144801273Y-105218773D01*
X144806439Y-105228271D01*
X144814689Y-105235032D01*
X144815627Y-105235515D01*
X144824279Y-105238295D01*
X144835093Y-105239692D01*
X144846458Y-105239693D01*
X144856769Y-105238284D01*
X144863624Y-105235905D01*
X144871864Y-105229338D01*
X144877090Y-105220568D01*
X144878961Y-105210640D01*
X144877135Y-105200603D01*
X144875967Y-105198015D01*
X144871811Y-105192897D01*
X144864719Y-105188334D01*
X144854291Y-105184144D01*
X144840129Y-105180147D01*
X144832850Y-105178455D01*
X144813325Y-105173342D01*
X144797559Y-105167348D01*
X144785043Y-105160170D01*
X144775271Y-105151505D01*
X144767733Y-105141051D01*
X144766591Y-105138986D01*
X144763112Y-105128980D01*
X144761537Y-105116666D01*
X144761849Y-105103592D01*
X144764033Y-105091304D01*
X144767129Y-105083060D01*
X144775957Y-105070393D01*
X144788102Y-105060008D01*
X144803030Y-105052254D01*
X144820208Y-105047485D01*
X144821306Y-105047300D01*
X144831625Y-105045827D01*
X144839438Y-105045393D01*
X144846433Y-105046069D01*
G37*
G36*
X143535313Y-105046069D02*
G01*
X143543179Y-105047925D01*
X143546232Y-105048802D01*
X143556929Y-105053396D01*
X143565070Y-105059465D01*
X143572323Y-105066718D01*
X143572323Y-105058034D01*
X143572323Y-105049351D01*
X143589546Y-105049351D01*
X143606769Y-105049351D01*
X143606769Y-105079492D01*
X143606769Y-105109632D01*
X143589546Y-105109632D01*
X143572323Y-105109632D01*
X143572323Y-105099837D01*
X143570899Y-105088638D01*
X143566497Y-105080080D01*
X143558924Y-105074020D01*
X143547984Y-105070315D01*
X143533484Y-105068820D01*
X143530307Y-105068774D01*
X143516823Y-105069581D01*
X143506544Y-105072282D01*
X143498680Y-105077173D01*
X143494020Y-105082279D01*
X143490899Y-105089311D01*
X143489688Y-105098264D01*
X143490502Y-105107144D01*
X143492296Y-105112170D01*
X143495136Y-105116214D01*
X143499331Y-105119652D01*
X143505526Y-105122780D01*
X143514367Y-105125893D01*
X143526503Y-105129287D01*
X143533573Y-105131075D01*
X143552239Y-105136310D01*
X143567124Y-105141940D01*
X143578751Y-105148239D01*
X143587644Y-105155480D01*
X143593126Y-105162111D01*
X143599213Y-105172443D01*
X143602813Y-105182794D01*
X143604387Y-105194782D01*
X143604557Y-105202207D01*
X143602630Y-105218171D01*
X143597072Y-105231983D01*
X143588088Y-105243449D01*
X143575882Y-105252373D01*
X143560660Y-105258559D01*
X143542627Y-105261811D01*
X143542072Y-105261859D01*
X143526222Y-105261632D01*
X143512077Y-105258330D01*
X143500348Y-105252160D01*
X143495911Y-105248368D01*
X143488359Y-105240816D01*
X143488359Y-105249499D01*
X143488359Y-105258183D01*
X143471136Y-105258183D01*
X143453913Y-105258183D01*
X143453913Y-105228042D01*
X143453913Y-105197901D01*
X143471136Y-105197901D01*
X143488359Y-105197901D01*
X143488363Y-105207051D01*
X143490153Y-105218773D01*
X143495318Y-105228271D01*
X143503569Y-105235032D01*
X143504506Y-105235515D01*
X143513159Y-105238295D01*
X143523972Y-105239692D01*
X143535338Y-105239693D01*
X143545649Y-105238284D01*
X143552503Y-105235905D01*
X143560744Y-105229338D01*
X143565970Y-105220568D01*
X143567840Y-105210640D01*
X143566014Y-105200603D01*
X143564846Y-105198015D01*
X143560690Y-105192897D01*
X143553598Y-105188334D01*
X143543171Y-105184144D01*
X143529008Y-105180147D01*
X143521729Y-105178455D01*
X143502204Y-105173342D01*
X143486438Y-105167348D01*
X143473923Y-105160170D01*
X143464150Y-105151505D01*
X143456612Y-105141051D01*
X143455470Y-105138986D01*
X143451992Y-105128980D01*
X143450416Y-105116666D01*
X143450728Y-105103592D01*
X143452913Y-105091304D01*
X143456009Y-105083060D01*
X143464837Y-105070393D01*
X143476981Y-105060008D01*
X143491910Y-105052254D01*
X143509088Y-105047485D01*
X143510186Y-105047300D01*
X143520505Y-105045827D01*
X143528317Y-105045393D01*
X143535313Y-105046069D01*
G37*
G36*
X147139690Y-105058921D02*
G01*
X147139690Y-105068491D01*
X147129464Y-105069147D01*
X147119237Y-105069803D01*
X147118672Y-105145693D01*
X147118587Y-105163285D01*
X147118599Y-105179435D01*
X147118699Y-105193657D01*
X147118882Y-105205466D01*
X147119140Y-105214377D01*
X147119464Y-105219904D01*
X147119807Y-105221583D01*
X147121237Y-105219699D01*
X147123688Y-105214634D01*
X147126755Y-105207272D01*
X147128659Y-105202289D01*
X147131544Y-105195034D01*
X147135662Y-105185406D01*
X147140737Y-105173982D01*
X147146495Y-105161339D01*
X147152662Y-105148054D01*
X147158963Y-105134706D01*
X147165124Y-105121871D01*
X147170869Y-105110126D01*
X147175925Y-105100050D01*
X147180016Y-105092219D01*
X147182868Y-105087212D01*
X147184158Y-105085594D01*
X147185605Y-105087409D01*
X147188538Y-105092580D01*
X147192684Y-105100533D01*
X147197769Y-105110693D01*
X147203519Y-105122488D01*
X147209660Y-105135343D01*
X147215918Y-105148685D01*
X147222019Y-105161940D01*
X147227689Y-105174535D01*
X147232654Y-105185894D01*
X147236639Y-105195446D01*
X147236761Y-105195749D01*
X147240554Y-105204987D01*
X147243916Y-105212788D01*
X147246448Y-105218252D01*
X147247662Y-105220399D01*
X147248081Y-105218809D01*
X147248467Y-105213378D01*
X147248807Y-105204572D01*
X147249091Y-105192856D01*
X147249307Y-105178697D01*
X147249443Y-105162559D01*
X147249488Y-105145586D01*
X147249488Y-105068727D01*
X147238724Y-105068727D01*
X147227959Y-105068727D01*
X147227959Y-105059039D01*
X147227959Y-105049351D01*
X147261329Y-105049351D01*
X147294699Y-105049351D01*
X147294699Y-105059039D01*
X147294699Y-105068727D01*
X147283935Y-105068727D01*
X147273170Y-105068727D01*
X147273170Y-105153767D01*
X147273170Y-105238807D01*
X147283935Y-105238807D01*
X147294699Y-105238807D01*
X147294699Y-105248495D01*
X147294699Y-105258183D01*
X147256254Y-105258183D01*
X147217809Y-105258183D01*
X147195244Y-105209581D01*
X147188976Y-105196240D01*
X147183220Y-105184290D01*
X147178242Y-105174259D01*
X147174308Y-105166676D01*
X147171685Y-105162067D01*
X147170716Y-105160878D01*
X147169080Y-105162682D01*
X147166278Y-105167617D01*
X147162769Y-105174827D01*
X147160521Y-105179877D01*
X147156497Y-105189173D01*
X147151352Y-105200997D01*
X147145704Y-105213937D01*
X147140166Y-105226581D01*
X147139289Y-105228580D01*
X147126289Y-105258183D01*
X147087779Y-105258183D01*
X147049268Y-105258183D01*
X147049268Y-105248495D01*
X147049268Y-105238807D01*
X147060032Y-105238807D01*
X147070797Y-105238807D01*
X147070797Y-105153767D01*
X147070797Y-105068727D01*
X147060032Y-105068727D01*
X147049268Y-105068727D01*
X147049268Y-105059039D01*
X147049268Y-105049351D01*
X147094479Y-105049351D01*
X147139690Y-105049351D01*
X147139690Y-105058921D01*
G37*
G36*
X146913635Y-105059039D02*
G01*
X146913635Y-105068727D01*
X146902870Y-105068727D01*
X146892106Y-105068727D01*
X146892106Y-105153767D01*
X146892106Y-105238807D01*
X146902870Y-105238807D01*
X146913635Y-105238807D01*
X146913635Y-105248495D01*
X146913635Y-105258183D01*
X146868424Y-105258183D01*
X146823213Y-105258183D01*
X146823213Y-105248495D01*
X146823213Y-105238807D01*
X146832901Y-105238807D01*
X146842589Y-105238807D01*
X146842589Y-105153767D01*
X146842589Y-105068727D01*
X146832901Y-105068727D01*
X146823213Y-105068727D01*
X146823213Y-105059039D01*
X146823213Y-105049351D01*
X146868424Y-105049351D01*
X146913635Y-105049351D01*
X146913635Y-105059039D01*
G37*
G36*
X146353879Y-105238807D02*
G01*
X146364643Y-105238807D01*
X146375408Y-105238807D01*
X146375408Y-105248495D01*
X146375408Y-105258183D01*
X146307982Y-105258183D01*
X146286659Y-105258135D01*
X146269156Y-105257945D01*
X146254990Y-105257544D01*
X146243675Y-105256861D01*
X146234727Y-105255826D01*
X146227662Y-105254369D01*
X146221996Y-105252422D01*
X146217243Y-105249913D01*
X146212920Y-105246774D01*
X146209727Y-105244017D01*
X146201497Y-105234907D01*
X146196494Y-105224870D01*
X146194209Y-105212709D01*
X146193939Y-105206830D01*
X146194703Y-105200054D01*
X146244081Y-105200054D01*
X146244145Y-105209939D01*
X146244495Y-105216581D01*
X146245365Y-105221045D01*
X146246989Y-105224395D01*
X146249602Y-105227693D01*
X146250358Y-105228546D01*
X146256636Y-105235577D01*
X146280499Y-105236306D01*
X146304362Y-105237035D01*
X146304362Y-105199168D01*
X146304362Y-105161302D01*
X146290906Y-105161430D01*
X146281465Y-105161808D01*
X146271815Y-105162637D01*
X146266816Y-105163304D01*
X146258211Y-105165673D01*
X146251840Y-105170038D01*
X146250131Y-105171821D01*
X146247361Y-105175166D01*
X146245597Y-105178406D01*
X146244613Y-105182600D01*
X146244184Y-105188803D01*
X146244082Y-105198072D01*
X146244081Y-105200054D01*
X146194703Y-105200054D01*
X146195661Y-105191561D01*
X146201173Y-105178173D01*
X146210248Y-105166992D01*
X146222661Y-105158344D01*
X146229701Y-105155202D01*
X146239251Y-105151577D01*
X146218858Y-105117149D01*
X146212087Y-105105864D01*
X146205754Y-105095578D01*
X146200299Y-105086987D01*
X146196164Y-105080786D01*
X146193908Y-105077794D01*
X146188891Y-105074128D01*
X146182049Y-105071104D01*
X146180116Y-105070541D01*
X146174401Y-105068878D01*
X146171723Y-105066750D01*
X146170931Y-105062689D01*
X146170882Y-105058783D01*
X146170882Y-105049351D01*
X146190944Y-105049351D01*
X146207824Y-105050134D01*
X146221177Y-105052576D01*
X146231504Y-105056818D01*
X146239071Y-105062747D01*
X146242211Y-105066915D01*
X146246824Y-105074173D01*
X146252463Y-105083759D01*
X146258677Y-105094913D01*
X146264495Y-105105865D01*
X146283206Y-105141926D01*
X146293784Y-105141926D01*
X146304362Y-105141926D01*
X146304362Y-105105326D01*
X146304362Y-105068727D01*
X146294674Y-105068727D01*
X146284986Y-105068727D01*
X146284986Y-105059039D01*
X146284986Y-105049351D01*
X146330197Y-105049351D01*
X146375408Y-105049351D01*
X146375408Y-105059039D01*
X146375408Y-105068727D01*
X146364643Y-105068727D01*
X146353879Y-105068727D01*
X146353879Y-105153767D01*
X146353879Y-105199168D01*
X146353879Y-105238807D01*
G37*
G36*
X145191309Y-105059039D02*
G01*
X145191309Y-105068727D01*
X145179468Y-105068727D01*
X145167627Y-105068727D01*
X145167807Y-105102635D01*
X145167987Y-105136544D01*
X145195256Y-105187137D01*
X145222526Y-105237730D01*
X145230599Y-105238398D01*
X145235585Y-105239023D01*
X145237928Y-105240641D01*
X145238628Y-105244514D01*
X145238673Y-105248625D01*
X145238673Y-105258183D01*
X145194538Y-105258183D01*
X145150404Y-105258183D01*
X145150404Y-105248495D01*
X145150404Y-105238807D01*
X145160092Y-105238807D01*
X145165861Y-105238486D01*
X145169309Y-105237675D01*
X145169742Y-105237192D01*
X145168760Y-105234477D01*
X145166111Y-105228831D01*
X145162178Y-105220966D01*
X145157339Y-105211593D01*
X145151976Y-105201422D01*
X145146468Y-105191166D01*
X145141196Y-105181534D01*
X145136540Y-105173239D01*
X145132880Y-105166991D01*
X145130596Y-105163502D01*
X145130080Y-105163013D01*
X145128521Y-105164843D01*
X145125301Y-105169907D01*
X145120758Y-105177629D01*
X145115231Y-105187429D01*
X145109060Y-105198729D01*
X145108162Y-105200402D01*
X145088161Y-105237730D01*
X145098830Y-105238381D01*
X145109498Y-105239032D01*
X145109498Y-105248607D01*
X145109498Y-105258183D01*
X145078281Y-105258183D01*
X145047064Y-105258183D01*
X145047064Y-105248625D01*
X145047249Y-105242706D01*
X145048448Y-105239828D01*
X145051627Y-105238729D01*
X145054878Y-105238398D01*
X145057280Y-105238122D01*
X145059396Y-105237459D01*
X145061533Y-105235980D01*
X145063997Y-105233257D01*
X145067096Y-105228860D01*
X145071137Y-105222360D01*
X145076426Y-105213328D01*
X145083271Y-105201336D01*
X145090401Y-105188741D01*
X145118110Y-105139752D01*
X145118110Y-105104239D01*
X145118110Y-105068727D01*
X145106269Y-105068727D01*
X145094428Y-105068727D01*
X145094428Y-105059039D01*
X145094428Y-105049351D01*
X145142869Y-105049351D01*
X145191309Y-105049351D01*
X145191309Y-105059039D01*
G37*
G36*
X144584189Y-105059039D02*
G01*
X144584189Y-105068727D01*
X144570195Y-105068727D01*
X144556201Y-105068727D01*
X144556201Y-105152690D01*
X144556201Y-105236654D01*
X144575577Y-105236654D01*
X144594954Y-105236654D01*
X144594954Y-105219430D01*
X144594954Y-105202207D01*
X144612177Y-105202207D01*
X144629400Y-105202207D01*
X144629400Y-105230195D01*
X144629400Y-105258183D01*
X144531443Y-105258183D01*
X144433486Y-105258183D01*
X144433486Y-105230195D01*
X144433486Y-105202207D01*
X144450709Y-105202207D01*
X144467932Y-105202207D01*
X144467932Y-105219430D01*
X144467932Y-105236654D01*
X144487308Y-105236654D01*
X144506684Y-105236654D01*
X144506684Y-105152690D01*
X144506684Y-105068727D01*
X144492691Y-105068727D01*
X144478697Y-105068727D01*
X144478697Y-105059039D01*
X144478697Y-105049351D01*
X144531443Y-105049351D01*
X144584189Y-105049351D01*
X144584189Y-105059039D01*
G37*
G36*
X144300005Y-105059039D02*
G01*
X144300005Y-105068727D01*
X144289241Y-105068727D01*
X144278476Y-105068727D01*
X144278476Y-105153767D01*
X144278476Y-105238807D01*
X144289241Y-105238807D01*
X144300005Y-105238807D01*
X144300005Y-105248495D01*
X144300005Y-105258183D01*
X144215978Y-105258183D01*
X144131950Y-105258183D01*
X144132552Y-105230733D01*
X144133155Y-105203284D01*
X144150378Y-105203284D01*
X144167602Y-105203284D01*
X144168230Y-105219969D01*
X144168859Y-105236654D01*
X144199986Y-105236654D01*
X144231112Y-105236654D01*
X144231112Y-105203284D01*
X144231112Y-105169914D01*
X144210660Y-105169914D01*
X144190207Y-105169914D01*
X144190207Y-105178525D01*
X144190207Y-105187137D01*
X144179443Y-105187137D01*
X144168678Y-105187137D01*
X144168678Y-105158073D01*
X144168678Y-105129008D01*
X144179443Y-105129008D01*
X144190207Y-105129008D01*
X144190207Y-105138696D01*
X144190207Y-105148385D01*
X144210660Y-105148385D01*
X144231112Y-105148385D01*
X144231112Y-105109632D01*
X144231112Y-105070880D01*
X144197742Y-105070880D01*
X144164372Y-105070880D01*
X144164372Y-105091333D01*
X144164372Y-105111785D01*
X144147149Y-105111785D01*
X144129926Y-105111785D01*
X144129926Y-105080568D01*
X144129926Y-105049351D01*
X144214965Y-105049351D01*
X144300005Y-105049351D01*
X144300005Y-105059039D01*
G37*
G36*
X143837130Y-105058921D02*
G01*
X143837130Y-105068491D01*
X143826904Y-105069147D01*
X143816678Y-105069803D01*
X143816112Y-105145693D01*
X143816027Y-105163285D01*
X143816039Y-105179435D01*
X143816140Y-105193657D01*
X143816322Y-105205466D01*
X143816580Y-105214377D01*
X143816904Y-105219904D01*
X143817248Y-105221583D01*
X143818677Y-105219699D01*
X143821128Y-105214634D01*
X143824195Y-105207272D01*
X143826100Y-105202289D01*
X143828985Y-105195034D01*
X143833102Y-105185406D01*
X143838177Y-105173982D01*
X143843936Y-105161339D01*
X143850103Y-105148054D01*
X143856404Y-105134706D01*
X143862564Y-105121871D01*
X143868310Y-105110126D01*
X143873365Y-105100050D01*
X143877456Y-105092219D01*
X143880309Y-105087212D01*
X143881598Y-105085594D01*
X143883045Y-105087409D01*
X143885978Y-105092580D01*
X143890124Y-105100533D01*
X143895209Y-105110693D01*
X143900959Y-105122488D01*
X143907100Y-105135343D01*
X143913358Y-105148685D01*
X143919459Y-105161940D01*
X143925129Y-105174535D01*
X143930094Y-105185894D01*
X143934080Y-105195446D01*
X143934201Y-105195749D01*
X143937995Y-105204987D01*
X143941356Y-105212788D01*
X143943888Y-105218252D01*
X143945102Y-105220399D01*
X143945522Y-105218809D01*
X143945907Y-105213378D01*
X143946248Y-105204572D01*
X143946531Y-105192856D01*
X143946747Y-105178697D01*
X143946883Y-105162559D01*
X143946929Y-105145586D01*
X143946929Y-105068727D01*
X143936164Y-105068727D01*
X143925399Y-105068727D01*
X143925399Y-105059039D01*
X143925399Y-105049351D01*
X143958770Y-105049351D01*
X143992140Y-105049351D01*
X143992140Y-105059039D01*
X143992140Y-105068727D01*
X143981375Y-105068727D01*
X143970611Y-105068727D01*
X143970611Y-105153767D01*
X143970611Y-105238807D01*
X143981375Y-105238807D01*
X143992140Y-105238807D01*
X143992140Y-105248495D01*
X143992140Y-105258183D01*
X143953695Y-105258183D01*
X143915250Y-105258183D01*
X143892684Y-105209581D01*
X143886416Y-105196240D01*
X143880660Y-105184290D01*
X143875682Y-105174259D01*
X143871749Y-105166676D01*
X143869125Y-105162067D01*
X143868156Y-105160878D01*
X143866521Y-105162682D01*
X143863718Y-105167617D01*
X143860210Y-105174827D01*
X143857961Y-105179877D01*
X143853937Y-105189173D01*
X143848793Y-105200997D01*
X143843144Y-105213937D01*
X143837606Y-105226581D01*
X143836729Y-105228580D01*
X143823729Y-105258183D01*
X143785219Y-105258183D01*
X143746708Y-105258183D01*
X143746708Y-105248495D01*
X143746708Y-105238807D01*
X143757473Y-105238807D01*
X143768237Y-105238807D01*
X143768237Y-105153767D01*
X143768237Y-105068727D01*
X143757473Y-105068727D01*
X143746708Y-105068727D01*
X143746708Y-105059039D01*
X143746708Y-105049351D01*
X143791919Y-105049351D01*
X143837130Y-105049351D01*
X143837130Y-105058921D01*
G37*
G36*
X147338897Y-105342163D02*
G01*
X147366573Y-105342212D01*
X147392683Y-105342291D01*
X147416927Y-105342398D01*
X147439009Y-105342529D01*
X147458633Y-105342684D01*
X147475500Y-105342858D01*
X147489313Y-105343050D01*
X147499777Y-105343258D01*
X147506592Y-105343479D01*
X147509463Y-105343710D01*
X147509536Y-105343761D01*
X147496526Y-105370318D01*
X147485665Y-105394221D01*
X147476647Y-105416355D01*
X147469166Y-105437605D01*
X147462917Y-105458854D01*
X147457592Y-105480986D01*
X147452888Y-105504886D01*
X147451954Y-105510188D01*
X147450854Y-105516555D01*
X147449829Y-105522603D01*
X147448877Y-105528493D01*
X147447995Y-105534388D01*
X147447182Y-105540451D01*
X147446434Y-105546844D01*
X147445749Y-105553729D01*
X147445125Y-105561270D01*
X147444559Y-105569629D01*
X147444048Y-105578968D01*
X147443591Y-105589450D01*
X147443184Y-105601237D01*
X147442826Y-105614493D01*
X147442513Y-105629379D01*
X147442244Y-105646059D01*
X147442016Y-105664694D01*
X147441826Y-105685448D01*
X147441672Y-105708482D01*
X147441551Y-105733960D01*
X147441462Y-105762044D01*
X147441401Y-105792896D01*
X147441366Y-105826680D01*
X147441354Y-105863557D01*
X147441364Y-105903690D01*
X147441392Y-105947242D01*
X147441437Y-105994376D01*
X147441495Y-106045253D01*
X147441565Y-106100037D01*
X147441643Y-106158890D01*
X147441681Y-106187162D01*
X147441762Y-106246385D01*
X147441842Y-106301460D01*
X147441922Y-106352546D01*
X147442002Y-106399800D01*
X147442085Y-106443383D01*
X147442170Y-106483450D01*
X147442260Y-106520162D01*
X147442355Y-106553676D01*
X147442457Y-106584151D01*
X147442566Y-106611744D01*
X147442684Y-106636614D01*
X147442813Y-106658920D01*
X147442952Y-106678820D01*
X147443103Y-106696471D01*
X147443268Y-106712033D01*
X147443448Y-106725663D01*
X147443643Y-106737520D01*
X147443855Y-106747763D01*
X147444085Y-106756549D01*
X147444334Y-106764036D01*
X147444603Y-106770384D01*
X147444894Y-106775749D01*
X147445207Y-106780292D01*
X147445544Y-106784169D01*
X147445906Y-106787540D01*
X147446022Y-106788497D01*
X147451352Y-106825473D01*
X147457801Y-106859094D01*
X147465612Y-106890224D01*
X147475030Y-106919723D01*
X147486300Y-106948453D01*
X147499500Y-106976942D01*
X147504606Y-106987347D01*
X147508949Y-106996428D01*
X147512198Y-107003473D01*
X147514021Y-107007770D01*
X147514296Y-107008698D01*
X147512180Y-107009011D01*
X147505982Y-107009303D01*
X147495926Y-107009573D01*
X147482234Y-107009818D01*
X147465131Y-107010035D01*
X147444839Y-107010223D01*
X147421583Y-107010380D01*
X147395586Y-107010503D01*
X147367071Y-107010590D01*
X147336262Y-107010639D01*
X147312999Y-107010649D01*
X147278992Y-107010646D01*
X147249035Y-107010633D01*
X147222872Y-107010606D01*
X147200249Y-107010559D01*
X147180908Y-107010488D01*
X147164595Y-107010388D01*
X147151054Y-107010255D01*
X147140029Y-107010083D01*
X147131265Y-107009867D01*
X147124506Y-107009604D01*
X147119496Y-107009288D01*
X147115980Y-107008915D01*
X147113702Y-107008479D01*
X147112406Y-107007976D01*
X147111836Y-107007401D01*
X147111732Y-107006882D01*
X147112736Y-107003332D01*
X147115380Y-106997188D01*
X147119159Y-106989589D01*
X147120524Y-106987040D01*
X147131866Y-106964313D01*
X147142714Y-106938992D01*
X147152407Y-106912787D01*
X147160287Y-106887406D01*
X147163014Y-106876922D01*
X147165996Y-106864405D01*
X147168668Y-106852607D01*
X147171045Y-106841234D01*
X147173145Y-106829988D01*
X147174982Y-106818574D01*
X147176574Y-106806697D01*
X147177935Y-106794060D01*
X147179082Y-106780367D01*
X147180031Y-106765323D01*
X147180798Y-106748632D01*
X147181399Y-106729999D01*
X147181850Y-106709126D01*
X147182168Y-106685719D01*
X147182367Y-106659482D01*
X147182465Y-106630118D01*
X147182477Y-106597333D01*
X147182419Y-106560829D01*
X147182309Y-106520863D01*
X147181672Y-106316337D01*
X146439995Y-106315742D01*
X146372179Y-106315689D01*
X146308531Y-106315643D01*
X146248914Y-106315604D01*
X146193190Y-106315573D01*
X146141221Y-106315550D01*
X146092871Y-106315535D01*
X146048001Y-106315530D01*
X146006474Y-106315534D01*
X145968153Y-106315549D01*
X145932899Y-106315574D01*
X145900575Y-106315610D01*
X145871045Y-106315658D01*
X145844169Y-106315718D01*
X145819811Y-106315791D01*
X145797834Y-106315877D01*
X145778098Y-106315977D01*
X145760468Y-106316090D01*
X145744805Y-106316219D01*
X145730973Y-106316362D01*
X145718832Y-106316521D01*
X145708246Y-106316696D01*
X145699078Y-106316888D01*
X145691189Y-106317096D01*
X145684442Y-106317323D01*
X145678700Y-106317567D01*
X145673824Y-106317830D01*
X145669679Y-106318112D01*
X145666125Y-106318414D01*
X145664949Y-106318529D01*
X145622165Y-106323948D01*
X145582769Y-106331308D01*
X145546197Y-106340844D01*
X145511882Y-106352787D01*
X145479260Y-106367372D01*
X145447768Y-106384832D01*
X145416838Y-106405400D01*
X145385908Y-106429310D01*
X145375382Y-106438163D01*
X145368709Y-106443979D01*
X145362076Y-106449981D01*
X145355146Y-106456513D01*
X145347585Y-106463920D01*
X145339053Y-106472544D01*
X145329216Y-106482729D01*
X145317736Y-106494819D01*
X145304278Y-106509156D01*
X145288504Y-106526085D01*
X145275368Y-106540239D01*
X145263282Y-106553269D01*
X145251221Y-106566254D01*
X145239757Y-106578580D01*
X145229460Y-106589636D01*
X145220900Y-106598808D01*
X145214648Y-106605483D01*
X145214253Y-106605903D01*
X145201474Y-106619511D01*
X145187395Y-106634539D01*
X145172558Y-106650407D01*
X145157503Y-106666534D01*
X145142771Y-106682341D01*
X145128903Y-106697247D01*
X145116438Y-106710672D01*
X145105919Y-106722037D01*
X145098864Y-106729695D01*
X145081353Y-106748624D01*
X145063405Y-106767760D01*
X145045411Y-106786702D01*
X145027764Y-106805050D01*
X145010855Y-106822404D01*
X144995075Y-106838361D01*
X144980817Y-106852523D01*
X144968472Y-106864487D01*
X144958432Y-106873854D01*
X144954489Y-106877360D01*
X144917101Y-106907536D01*
X144879139Y-106933536D01*
X144840362Y-106955479D01*
X144800532Y-106973481D01*
X144759408Y-106987660D01*
X144716749Y-106998134D01*
X144702599Y-107000746D01*
X144696543Y-107001777D01*
X144690857Y-107002724D01*
X144685347Y-107003592D01*
X144679817Y-107004382D01*
X144674073Y-107005100D01*
X144667920Y-107005749D01*
X144661162Y-107006331D01*
X144653604Y-107006851D01*
X144645052Y-107007313D01*
X144635310Y-107007719D01*
X144624184Y-107008073D01*
X144611478Y-107008379D01*
X144596997Y-107008640D01*
X144580547Y-107008861D01*
X144561932Y-107009043D01*
X144540957Y-107009191D01*
X144517427Y-107009309D01*
X144491147Y-107009400D01*
X144461923Y-107009467D01*
X144429558Y-107009514D01*
X144393859Y-107009545D01*
X144354630Y-107009562D01*
X144311676Y-107009570D01*
X144264802Y-107009573D01*
X144214965Y-107009573D01*
X144162231Y-107009567D01*
X144113640Y-107009550D01*
X144069027Y-107009521D01*
X144028230Y-107009478D01*
X143991086Y-107009420D01*
X143957431Y-107009347D01*
X143927102Y-107009257D01*
X143899935Y-107009149D01*
X143875767Y-107009023D01*
X143854436Y-107008876D01*
X143835777Y-107008710D01*
X143819626Y-107008521D01*
X143805822Y-107008309D01*
X143794201Y-107008074D01*
X143784598Y-107007814D01*
X143776852Y-107007527D01*
X143770798Y-107007214D01*
X143766273Y-107006873D01*
X143765008Y-107006746D01*
X143725911Y-107001847D01*
X143690223Y-106996008D01*
X143657112Y-106989025D01*
X143625746Y-106980698D01*
X143595292Y-106970824D01*
X143564917Y-106959200D01*
X143559075Y-106956773D01*
X143547496Y-106951849D01*
X143538249Y-106947725D01*
X143530163Y-106943800D01*
X143522067Y-106939474D01*
X143512789Y-106934147D01*
X143501159Y-106927218D01*
X143499616Y-106926290D01*
X143465150Y-106903082D01*
X143433481Y-106876701D01*
X143404772Y-106847381D01*
X143379186Y-106815352D01*
X143356885Y-106780849D01*
X143338032Y-106744104D01*
X143322789Y-106705348D01*
X143311319Y-106664816D01*
X143308811Y-106653206D01*
X143304162Y-106623574D01*
X143301559Y-106591791D01*
X143301001Y-106559164D01*
X143302488Y-106526997D01*
X143306020Y-106496593D01*
X143308847Y-106481034D01*
X143318539Y-106444623D01*
X143331986Y-106409619D01*
X143348946Y-106376386D01*
X143369175Y-106345289D01*
X143392430Y-106316694D01*
X143418467Y-106290966D01*
X143447042Y-106268469D01*
X143453538Y-106264060D01*
X143465185Y-106256688D01*
X143478073Y-106249058D01*
X143491408Y-106241592D01*
X143504396Y-106234707D01*
X143516241Y-106228824D01*
X143526149Y-106224363D01*
X143533326Y-106221742D01*
X143534020Y-106221558D01*
X143538747Y-106219737D01*
X143542186Y-106217347D01*
X143543535Y-106215197D01*
X143541994Y-106214098D01*
X143541432Y-106214074D01*
X143536612Y-106213266D01*
X143528632Y-106211036D01*
X143518282Y-106207671D01*
X143506354Y-106203458D01*
X143493639Y-106198686D01*
X143480929Y-106193643D01*
X143469014Y-106188615D01*
X143459391Y-106184230D01*
X143421685Y-106163931D01*
X143386880Y-106140472D01*
X143354890Y-106113777D01*
X143325627Y-106083771D01*
X143299003Y-106050377D01*
X143289618Y-106036872D01*
X143282807Y-106025818D01*
X143275142Y-106011952D01*
X143267235Y-105996509D01*
X143259699Y-105980725D01*
X143253145Y-105965835D01*
X143248365Y-105953582D01*
X143238977Y-105923854D01*
X143231951Y-105893900D01*
X143227141Y-105862783D01*
X143224401Y-105829569D01*
X143223580Y-105795333D01*
X143224213Y-105763131D01*
X143226227Y-105734046D01*
X143229790Y-105707059D01*
X143235070Y-105681156D01*
X143242238Y-105655320D01*
X143251217Y-105629191D01*
X143266150Y-105595087D01*
X143285013Y-105562163D01*
X143307512Y-105530767D01*
X143333349Y-105501250D01*
X143362232Y-105473960D01*
X143393864Y-105449249D01*
X143414980Y-105435217D01*
X143451039Y-105414522D01*
X143488413Y-105396584D01*
X143527585Y-105381242D01*
X143569040Y-105368330D01*
X143613260Y-105357686D01*
X143660729Y-105349144D01*
X143674737Y-105347098D01*
X143678097Y-105346655D01*
X143681686Y-105346248D01*
X143685682Y-105345874D01*
X143690266Y-105345532D01*
X143695617Y-105345220D01*
X143701915Y-105344938D01*
X143709341Y-105344683D01*
X143718073Y-105344455D01*
X143728292Y-105344252D01*
X143740177Y-105344072D01*
X143753908Y-105343914D01*
X143769666Y-105343777D01*
X143787629Y-105343659D01*
X143807979Y-105343559D01*
X143830893Y-105343475D01*
X143856553Y-105343406D01*
X143885139Y-105343351D01*
X143916829Y-105343308D01*
X143951804Y-105343275D01*
X143990243Y-105343252D01*
X144032327Y-105343237D01*
X144078235Y-105343227D01*
X144128148Y-105343223D01*
X144164372Y-105343223D01*
X144626171Y-105343223D01*
X144650929Y-105348138D01*
X144661270Y-105350255D01*
X144670505Y-105352264D01*
X144677549Y-105353920D01*
X144681070Y-105354892D01*
X144685948Y-105356418D01*
X144693287Y-105358556D01*
X144700446Y-105360554D01*
X144726439Y-105369018D01*
X144754021Y-105380499D01*
X144782265Y-105394524D01*
X144810240Y-105410619D01*
X144837016Y-105428309D01*
X144845672Y-105434595D01*
X144858841Y-105444641D01*
X144871418Y-105454788D01*
X144883713Y-105465360D01*
X144896036Y-105476679D01*
X144908697Y-105489070D01*
X144922006Y-105502856D01*
X144936272Y-105518360D01*
X144951805Y-105535906D01*
X144968915Y-105555817D01*
X144987912Y-105578418D01*
X145009106Y-105604030D01*
X145015928Y-105612336D01*
X145031716Y-105631580D01*
X145045906Y-105648863D01*
X145059019Y-105664816D01*
X145071577Y-105680071D01*
X145084102Y-105695261D01*
X145097115Y-105711017D01*
X145111137Y-105727973D01*
X145126689Y-105746760D01*
X145144294Y-105768010D01*
X145150880Y-105775957D01*
X145164628Y-105792560D01*
X145179698Y-105810787D01*
X145195308Y-105829687D01*
X145210673Y-105848311D01*
X145225009Y-105865709D01*
X145237532Y-105880932D01*
X145239726Y-105883602D01*
X145251226Y-105897597D01*
X145262933Y-105911830D01*
X145274258Y-105925588D01*
X145284612Y-105938154D01*
X145293407Y-105948816D01*
X145300007Y-105956801D01*
X145308255Y-105966762D01*
X145318267Y-105978853D01*
X145329059Y-105991886D01*
X145339648Y-106004675D01*
X145345465Y-106011700D01*
X145357082Y-106025778D01*
X145366164Y-106036909D01*
X145372958Y-106045428D01*
X145377716Y-106051672D01*
X145380685Y-106055976D01*
X145382117Y-106058677D01*
X145382260Y-106060109D01*
X145381750Y-106060530D01*
X145379129Y-106061693D01*
X145373368Y-106064413D01*
X145365187Y-106068343D01*
X145355309Y-106073137D01*
X145349464Y-106075994D01*
X145298162Y-106103020D01*
X145250154Y-106132285D01*
X145204860Y-106164144D01*
X145198844Y-106168723D01*
X145181621Y-106181955D01*
X145175162Y-106173872D01*
X145171934Y-106169892D01*
X145166445Y-106163189D01*
X145159183Y-106154356D01*
X145150636Y-106143986D01*
X145141290Y-106132670D01*
X145136410Y-106126770D01*
X145125776Y-106113910D01*
X145114696Y-106100493D01*
X145103924Y-106087431D01*
X145094210Y-106075637D01*
X145086309Y-106066023D01*
X145084740Y-106064110D01*
X145057825Y-106031294D01*
X145031249Y-105998932D01*
X145005481Y-105967594D01*
X144980988Y-105937849D01*
X144958238Y-105910263D01*
X144937698Y-105885406D01*
X144936189Y-105883582D01*
X144923810Y-105868614D01*
X144910742Y-105852798D01*
X144897670Y-105836964D01*
X144885279Y-105821943D01*
X144874253Y-105808563D01*
X144865278Y-105797655D01*
X144865143Y-105797491D01*
X144855100Y-105785287D01*
X144844523Y-105772463D01*
X144834257Y-105760039D01*
X144825146Y-105749040D01*
X144818856Y-105741470D01*
X144809798Y-105730550D01*
X144799630Y-105718219D01*
X144789758Y-105706184D01*
X144783333Y-105698306D01*
X144762941Y-105673702D01*
X144744379Y-105652463D01*
X144727238Y-105634272D01*
X144711112Y-105618816D01*
X144695591Y-105605780D01*
X144680268Y-105594849D01*
X144664736Y-105585707D01*
X144648585Y-105578042D01*
X144631409Y-105571537D01*
X144612799Y-105565878D01*
X144611100Y-105565415D01*
X144593877Y-105560767D01*
X144182672Y-105560069D01*
X144124915Y-105559983D01*
X144071423Y-105559926D01*
X144022156Y-105559900D01*
X143977072Y-105559905D01*
X143936132Y-105559940D01*
X143899293Y-105560006D01*
X143866517Y-105560103D01*
X143837762Y-105560231D01*
X143812987Y-105560390D01*
X143792153Y-105560581D01*
X143775217Y-105560803D01*
X143762140Y-105561057D01*
X143752881Y-105561343D01*
X143747399Y-105561660D01*
X143747314Y-105561668D01*
X143706909Y-105567524D01*
X143668301Y-105577219D01*
X143631617Y-105590717D01*
X143614413Y-105598694D01*
X143585964Y-105614858D01*
X143561124Y-105633331D01*
X143539780Y-105654253D01*
X143521822Y-105677763D01*
X143507140Y-105704001D01*
X143495621Y-105733107D01*
X143489167Y-105756154D01*
X143486966Y-105767923D01*
X143485114Y-105782545D01*
X143483720Y-105798574D01*
X143482891Y-105814562D01*
X143482737Y-105829064D01*
X143483072Y-105837315D01*
X143487374Y-105871694D01*
X143495230Y-105903651D01*
X143506619Y-105933165D01*
X143521523Y-105960218D01*
X143539921Y-105984791D01*
X143561796Y-106006865D01*
X143587127Y-106026421D01*
X143615895Y-106043439D01*
X143648082Y-106057902D01*
X143683667Y-106069790D01*
X143722632Y-106079083D01*
X143729505Y-106080388D01*
X143737275Y-106081750D01*
X143745089Y-106082970D01*
X143753213Y-106084054D01*
X143761908Y-106085009D01*
X143771438Y-106085843D01*
X143782067Y-106086562D01*
X143794058Y-106087172D01*
X143807673Y-106087681D01*
X143823177Y-106088095D01*
X143840832Y-106088421D01*
X143860902Y-106088666D01*
X143883650Y-106088838D01*
X143909339Y-106088941D01*
X143938232Y-106088984D01*
X143970593Y-106088974D01*
X144006685Y-106088916D01*
X144046771Y-106088818D01*
X144054574Y-106088796D01*
X144290317Y-106088129D01*
X144290866Y-105870147D01*
X144291414Y-105652165D01*
X144420578Y-105652165D01*
X144549743Y-105652165D01*
X144549730Y-105762501D01*
X144549731Y-105776294D01*
X144549735Y-105794102D01*
X144549742Y-105815636D01*
X144549752Y-105840607D01*
X144549765Y-105868723D01*
X144549781Y-105899695D01*
X144549800Y-105933234D01*
X144549821Y-105969049D01*
X144549844Y-106006850D01*
X144549869Y-106046348D01*
X144549897Y-106087252D01*
X144549926Y-106129272D01*
X144549956Y-106172120D01*
X144549988Y-106215503D01*
X144550021Y-106259134D01*
X144550040Y-106284285D01*
X144550065Y-106326077D01*
X144550074Y-106366727D01*
X144550068Y-106406024D01*
X144550047Y-106443758D01*
X144550011Y-106479719D01*
X144549962Y-106513697D01*
X144549900Y-106545481D01*
X144549826Y-106574862D01*
X144549739Y-106601629D01*
X144549642Y-106625572D01*
X144549534Y-106646481D01*
X144549416Y-106664147D01*
X144549289Y-106678357D01*
X144549153Y-106688904D01*
X144549009Y-106695576D01*
X144548857Y-106698163D01*
X144548849Y-106698181D01*
X144547193Y-106698735D01*
X144542828Y-106699210D01*
X144535553Y-106699609D01*
X144525170Y-106699937D01*
X144511480Y-106700196D01*
X144494283Y-106700392D01*
X144473380Y-106700527D01*
X144448572Y-106700605D01*
X144419660Y-106700631D01*
X144419365Y-106700631D01*
X144291394Y-106700631D01*
X144291394Y-106503552D01*
X144291394Y-106306472D01*
X144052959Y-106307225D01*
X144015010Y-106307342D01*
X143981091Y-106307450D01*
X143950930Y-106307561D01*
X143924250Y-106307688D01*
X143900777Y-106307842D01*
X143880237Y-106308037D01*
X143862355Y-106308285D01*
X143846856Y-106308598D01*
X143833465Y-106308989D01*
X143821909Y-106309471D01*
X143811912Y-106310055D01*
X143803200Y-106310755D01*
X143795499Y-106311584D01*
X143788532Y-106312552D01*
X143782027Y-106313674D01*
X143775707Y-106314961D01*
X143769300Y-106316426D01*
X143762529Y-106318081D01*
X143755121Y-106319939D01*
X143751014Y-106320968D01*
X143720160Y-106329924D01*
X143692934Y-106340623D01*
X143668903Y-106353364D01*
X143647638Y-106368448D01*
X143628709Y-106386174D01*
X143611684Y-106406845D01*
X143597877Y-106427806D01*
X143587064Y-106449296D01*
X143578342Y-106473652D01*
X143571918Y-106499869D01*
X143567996Y-106526942D01*
X143566784Y-106553867D01*
X143567863Y-106574225D01*
X143572401Y-106604990D01*
X143579582Y-106632692D01*
X143589614Y-106657820D01*
X143602703Y-106680863D01*
X143619057Y-106702309D01*
X143624936Y-106708832D01*
X143644300Y-106727187D01*
X143665807Y-106743010D01*
X143689766Y-106756435D01*
X143716486Y-106767595D01*
X143746279Y-106776625D01*
X143779454Y-106783659D01*
X143807408Y-106787789D01*
X143813246Y-106788239D01*
X143823065Y-106788660D01*
X143836598Y-106789051D01*
X143853575Y-106789413D01*
X143873727Y-106789746D01*
X143896784Y-106790049D01*
X143922478Y-106790323D01*
X143950538Y-106790567D01*
X143980697Y-106790782D01*
X144012685Y-106790968D01*
X144046232Y-106791124D01*
X144081069Y-106791251D01*
X144116928Y-106791348D01*
X144153538Y-106791417D01*
X144190632Y-106791456D01*
X144227938Y-106791466D01*
X144265190Y-106791446D01*
X144302116Y-106791397D01*
X144338448Y-106791319D01*
X144373917Y-106791212D01*
X144408254Y-106791075D01*
X144441189Y-106790910D01*
X144472453Y-106790715D01*
X144501777Y-106790491D01*
X144528892Y-106790237D01*
X144553528Y-106789955D01*
X144575417Y-106789644D01*
X144594289Y-106789303D01*
X144609874Y-106788933D01*
X144621905Y-106788534D01*
X144630111Y-106788106D01*
X144633706Y-106787749D01*
X144656221Y-106783191D01*
X144678370Y-106776962D01*
X144698484Y-106769553D01*
X144704611Y-106766831D01*
X144714101Y-106762057D01*
X144725570Y-106755787D01*
X144737904Y-106748680D01*
X144749993Y-106741395D01*
X144760723Y-106734590D01*
X144768982Y-106728925D01*
X144770416Y-106727852D01*
X144779271Y-106720853D01*
X144789588Y-106712363D01*
X144800635Y-106703016D01*
X144811685Y-106693450D01*
X144822006Y-106684300D01*
X144830870Y-106676202D01*
X144837546Y-106669792D01*
X144840186Y-106667035D01*
X144844589Y-106662273D01*
X144851382Y-106655082D01*
X144859947Y-106646111D01*
X144869663Y-106636009D01*
X144879910Y-106625425D01*
X144882168Y-106623103D01*
X144893533Y-106611392D01*
X144905526Y-106598983D01*
X144917233Y-106586823D01*
X144927743Y-106575859D01*
X144936061Y-106567127D01*
X144946074Y-106556583D01*
X144957659Y-106544417D01*
X144969402Y-106532114D01*
X144979890Y-106521153D01*
X144980196Y-106520835D01*
X144988035Y-106512645D01*
X144998141Y-106502064D01*
X145009816Y-106489825D01*
X145022364Y-106476658D01*
X145035085Y-106463296D01*
X145044861Y-106453018D01*
X145072625Y-106423862D01*
X145097690Y-106397653D01*
X145120281Y-106374174D01*
X145140624Y-106353212D01*
X145158943Y-106334552D01*
X145175463Y-106317977D01*
X145190409Y-106303274D01*
X145204006Y-106290226D01*
X145216479Y-106278620D01*
X145228052Y-106268240D01*
X145238951Y-106258870D01*
X145249400Y-106250296D01*
X145259624Y-106242304D01*
X145269848Y-106234676D01*
X145280297Y-106227200D01*
X145282807Y-106225442D01*
X145329854Y-106195176D01*
X145378517Y-106168815D01*
X145428629Y-106146419D01*
X145480023Y-106128045D01*
X145532533Y-106113750D01*
X145585992Y-106103592D01*
X145640233Y-106097627D01*
X145655820Y-106096703D01*
X145667422Y-106096123D01*
X145678540Y-106095527D01*
X145687885Y-106094987D01*
X145694013Y-106094587D01*
X145696966Y-106094525D01*
X145704066Y-106094465D01*
X145715155Y-106094405D01*
X145730073Y-106094345D01*
X145748663Y-106094287D01*
X145770766Y-106094230D01*
X145796223Y-106094175D01*
X145824876Y-106094121D01*
X145856565Y-106094069D01*
X145891133Y-106094018D01*
X145928420Y-106093970D01*
X145968269Y-106093925D01*
X146010520Y-106093882D01*
X146055015Y-106093842D01*
X146101595Y-106093805D01*
X146150102Y-106093771D01*
X146200377Y-106093740D01*
X146252261Y-106093713D01*
X146305597Y-106093690D01*
X146360224Y-106093671D01*
X146415985Y-106093656D01*
X146443763Y-106093650D01*
X147182748Y-106093511D01*
X147182739Y-105854000D01*
X147182717Y-105815958D01*
X147182653Y-105779964D01*
X147182550Y-105746240D01*
X147182410Y-105715010D01*
X147182235Y-105686497D01*
X147182026Y-105660924D01*
X147181785Y-105638514D01*
X147181514Y-105619491D01*
X147181215Y-105604077D01*
X147180890Y-105592496D01*
X147180541Y-105584970D01*
X147180497Y-105584348D01*
X147175447Y-105537525D01*
X147167385Y-105493475D01*
X147156201Y-105451785D01*
X147141782Y-105412046D01*
X147124017Y-105373845D01*
X147122343Y-105370644D01*
X147117503Y-105361313D01*
X147113503Y-105353298D01*
X147110728Y-105347393D01*
X147109563Y-105344394D01*
X147109549Y-105344271D01*
X147111692Y-105343871D01*
X147118081Y-105343511D01*
X147128656Y-105343191D01*
X147143358Y-105342913D01*
X147162127Y-105342677D01*
X147184904Y-105342483D01*
X147211628Y-105342333D01*
X147242240Y-105342226D01*
X147276681Y-105342164D01*
X147309949Y-105342146D01*
X147338897Y-105342163D01*
G37*
G36*
X146248032Y-105342158D02*
G01*
X146275665Y-105342191D01*
X146301742Y-105342244D01*
X146325963Y-105342316D01*
X146348030Y-105342405D01*
X146367642Y-105342509D01*
X146384499Y-105342626D01*
X146398303Y-105342756D01*
X146408754Y-105342896D01*
X146415551Y-105343044D01*
X146418397Y-105343200D01*
X146418466Y-105343229D01*
X146417567Y-105345434D01*
X146415085Y-105350821D01*
X146411341Y-105358711D01*
X146406655Y-105368424D01*
X146403457Y-105374984D01*
X146391321Y-105401074D01*
X146381510Y-105425309D01*
X146373558Y-105449116D01*
X146366998Y-105473920D01*
X146361365Y-105501146D01*
X146360292Y-105507101D01*
X146358429Y-105517725D01*
X146356778Y-105527424D01*
X146355325Y-105536518D01*
X146354057Y-105545324D01*
X146352961Y-105554161D01*
X146352025Y-105563348D01*
X146351234Y-105573202D01*
X146350575Y-105584043D01*
X146350036Y-105596189D01*
X146349604Y-105609957D01*
X146349264Y-105625668D01*
X146349005Y-105643638D01*
X146348812Y-105664186D01*
X146348673Y-105687631D01*
X146348574Y-105714292D01*
X146348503Y-105744486D01*
X146348446Y-105778532D01*
X146348423Y-105794257D01*
X146348123Y-105999859D01*
X146220750Y-106000415D01*
X146194111Y-106000525D01*
X146171456Y-106000600D01*
X146152461Y-106000632D01*
X146136803Y-106000613D01*
X146124161Y-106000534D01*
X146114211Y-106000387D01*
X146106630Y-106000165D01*
X146101097Y-105999858D01*
X146097288Y-105999460D01*
X146094880Y-105998961D01*
X146093552Y-105998353D01*
X146092979Y-105997629D01*
X146092871Y-105997185D01*
X146092797Y-105994525D01*
X146092726Y-105987865D01*
X146092659Y-105977513D01*
X146092595Y-105963774D01*
X146092536Y-105946955D01*
X146092483Y-105927362D01*
X146092437Y-105905303D01*
X146092398Y-105881083D01*
X146092368Y-105855009D01*
X146092346Y-105827387D01*
X146092334Y-105798524D01*
X146092333Y-105793180D01*
X146092323Y-105758153D01*
X146092297Y-105727108D01*
X146092244Y-105699722D01*
X146092155Y-105675673D01*
X146092018Y-105654637D01*
X146091823Y-105636290D01*
X146091559Y-105620310D01*
X146091216Y-105606373D01*
X146090782Y-105594156D01*
X146090248Y-105583336D01*
X146089602Y-105573590D01*
X146088835Y-105564594D01*
X146087935Y-105556026D01*
X146086891Y-105547561D01*
X146085694Y-105538878D01*
X146084332Y-105529652D01*
X146083485Y-105524067D01*
X146080141Y-105503891D01*
X146076421Y-105485283D01*
X146072096Y-105467586D01*
X146066935Y-105450140D01*
X146060710Y-105432289D01*
X146053190Y-105413372D01*
X146044147Y-105392734D01*
X146033350Y-105369714D01*
X146020624Y-105343761D01*
X146022608Y-105343527D01*
X146028601Y-105343303D01*
X146038303Y-105343092D01*
X146051417Y-105342896D01*
X146067646Y-105342717D01*
X146086690Y-105342558D01*
X146108253Y-105342422D01*
X146132036Y-105342310D01*
X146157741Y-105342225D01*
X146185070Y-105342170D01*
X146213726Y-105342147D01*
X146219143Y-105342146D01*
X146248032Y-105342158D01*
G37*
G36*
X145734680Y-105342153D02*
G01*
X145764829Y-105342177D01*
X145791165Y-105342220D01*
X145813934Y-105342288D01*
X145833382Y-105342384D01*
X145849755Y-105342511D01*
X145863299Y-105342674D01*
X145874262Y-105342877D01*
X145882888Y-105343122D01*
X145889425Y-105343415D01*
X145894118Y-105343759D01*
X145897214Y-105344158D01*
X145898959Y-105344615D01*
X145899598Y-105345135D01*
X145899615Y-105345249D01*
X145898486Y-105348794D01*
X145897745Y-105349507D01*
X145895977Y-105352007D01*
X145892909Y-105357778D01*
X145888862Y-105366102D01*
X145884156Y-105376259D01*
X145879111Y-105387531D01*
X145874048Y-105399198D01*
X145869286Y-105410543D01*
X145865146Y-105420846D01*
X145861947Y-105429389D01*
X145861223Y-105431492D01*
X145853358Y-105457108D01*
X145846788Y-105483439D01*
X145841270Y-105511602D01*
X145836560Y-105542716D01*
X145835765Y-105548825D01*
X145835137Y-105554217D01*
X145834575Y-105560134D01*
X145834075Y-105566861D01*
X145833629Y-105574678D01*
X145833233Y-105583870D01*
X145832880Y-105594718D01*
X145832566Y-105607505D01*
X145832283Y-105622515D01*
X145832027Y-105640029D01*
X145831792Y-105660330D01*
X145831571Y-105683702D01*
X145831359Y-105710426D01*
X145831150Y-105740785D01*
X145830939Y-105775062D01*
X145830859Y-105788874D01*
X145829646Y-105999859D01*
X145743412Y-106001314D01*
X145714472Y-106001867D01*
X145689214Y-106002497D01*
X145667016Y-106003236D01*
X145647254Y-106004113D01*
X145629306Y-106005157D01*
X145612548Y-106006398D01*
X145596357Y-106007867D01*
X145587982Y-106008727D01*
X145574526Y-106010161D01*
X145574492Y-105814478D01*
X145574469Y-105776282D01*
X145574404Y-105742075D01*
X145574280Y-105711540D01*
X145574083Y-105684360D01*
X145573797Y-105660218D01*
X145573408Y-105638796D01*
X145572899Y-105619779D01*
X145572255Y-105602848D01*
X145571460Y-105587688D01*
X145570500Y-105573980D01*
X145569360Y-105561409D01*
X145568022Y-105549656D01*
X145566473Y-105538406D01*
X145564697Y-105527342D01*
X145562678Y-105516145D01*
X145560401Y-105504500D01*
X145559143Y-105498321D01*
X145551946Y-105468958D01*
X145542275Y-105438069D01*
X145530674Y-105407201D01*
X145517689Y-105377896D01*
X145513861Y-105370142D01*
X145509154Y-105360728D01*
X145505253Y-105352699D01*
X145502529Y-105346832D01*
X145501349Y-105343905D01*
X145501328Y-105343769D01*
X145503431Y-105343534D01*
X145509540Y-105343309D01*
X145519355Y-105343096D01*
X145532577Y-105342899D01*
X145548907Y-105342719D01*
X145568043Y-105342560D01*
X145589688Y-105342422D01*
X145613540Y-105342310D01*
X145639300Y-105342225D01*
X145666670Y-105342170D01*
X145695348Y-105342147D01*
X145700471Y-105342146D01*
X145734680Y-105342153D01*
G37*
G36*
X146304072Y-106408194D02*
G01*
X146316822Y-106408290D01*
X146326868Y-106408454D01*
X146334529Y-106408695D01*
X146340126Y-106409018D01*
X146343980Y-106409432D01*
X146346410Y-106409943D01*
X146347738Y-106410559D01*
X146348260Y-106411224D01*
X146348469Y-106413875D01*
X146348669Y-106420495D01*
X146348857Y-106430746D01*
X146349030Y-106444292D01*
X146349186Y-106460794D01*
X146349323Y-106479917D01*
X146349436Y-106501322D01*
X146349524Y-106524673D01*
X146349584Y-106549632D01*
X146349614Y-106575862D01*
X146349616Y-106580782D01*
X146349642Y-106614175D01*
X146349707Y-106643565D01*
X146349816Y-106669256D01*
X146349972Y-106691552D01*
X146350182Y-106710756D01*
X146350449Y-106727172D01*
X146350779Y-106741103D01*
X146351177Y-106752852D01*
X146351647Y-106762723D01*
X146352195Y-106771020D01*
X146352780Y-106777607D01*
X146357623Y-106816694D01*
X146363968Y-106852513D01*
X146372056Y-106885909D01*
X146382126Y-106917733D01*
X146394418Y-106948831D01*
X146409174Y-106980050D01*
X146411340Y-106984266D01*
X146415870Y-106993184D01*
X146419551Y-107000770D01*
X146421983Y-107006176D01*
X146422772Y-107008486D01*
X146420622Y-107008906D01*
X146414182Y-107009281D01*
X146403468Y-107009611D01*
X146388497Y-107009896D01*
X146369284Y-107010135D01*
X146345845Y-107010329D01*
X146318196Y-107010478D01*
X146286353Y-107010580D01*
X146250332Y-107010637D01*
X146221475Y-107010649D01*
X146186877Y-107010628D01*
X146155070Y-107010565D01*
X146126214Y-107010462D01*
X146100471Y-107010320D01*
X146078004Y-107010142D01*
X146058975Y-107009929D01*
X146043544Y-107009682D01*
X146031875Y-107009403D01*
X146024128Y-107009094D01*
X146020466Y-107008756D01*
X146020178Y-107008626D01*
X146021087Y-107006062D01*
X146023585Y-107000398D01*
X146027326Y-106992384D01*
X146031967Y-106982767D01*
X146033808Y-106979023D01*
X146039632Y-106967123D01*
X146044310Y-106957192D01*
X146048353Y-106948029D01*
X146052268Y-106938434D01*
X146056564Y-106927207D01*
X146061749Y-106913147D01*
X146061916Y-106912692D01*
X146069462Y-106889581D01*
X146076136Y-106863833D01*
X146082061Y-106834904D01*
X146087363Y-106802250D01*
X146087425Y-106801817D01*
X146087871Y-106796592D01*
X146088308Y-106787245D01*
X146088733Y-106773960D01*
X146089143Y-106756922D01*
X146089534Y-106736314D01*
X146089904Y-106712320D01*
X146090249Y-106685125D01*
X146090566Y-106654912D01*
X146090852Y-106621866D01*
X146091031Y-106597291D01*
X146092301Y-106408912D01*
X146219624Y-106408357D01*
X146246394Y-106408248D01*
X146269178Y-106408181D01*
X146288298Y-106408160D01*
X146304072Y-106408194D01*
G37*
G36*
X145831308Y-106590059D02*
G01*
X145831471Y-106622636D01*
X145831630Y-106651226D01*
X145831791Y-106676150D01*
X145831964Y-106697726D01*
X145832156Y-106716276D01*
X145832374Y-106732117D01*
X145832628Y-106745571D01*
X145832924Y-106756956D01*
X145833272Y-106766592D01*
X145833678Y-106774798D01*
X145834151Y-106781895D01*
X145834698Y-106788202D01*
X145835329Y-106794038D01*
X145836050Y-106799723D01*
X145836640Y-106803970D01*
X145842429Y-106839443D01*
X145849349Y-106871690D01*
X145857706Y-106901711D01*
X145867806Y-106930507D01*
X145879957Y-106959077D01*
X145891343Y-106982411D01*
X145896086Y-106991792D01*
X145900011Y-106999818D01*
X145902743Y-107005702D01*
X145903905Y-107008658D01*
X145903921Y-107008784D01*
X145901816Y-107009058D01*
X145895693Y-107009319D01*
X145885839Y-107009564D01*
X145872542Y-107009791D01*
X145856090Y-107009998D01*
X145836770Y-107010181D01*
X145814869Y-107010337D01*
X145790676Y-107010465D01*
X145764478Y-107010561D01*
X145736562Y-107010624D01*
X145707216Y-107010649D01*
X145702624Y-107010649D01*
X145667844Y-107010641D01*
X145637137Y-107010612D01*
X145610269Y-107010560D01*
X145587008Y-107010482D01*
X145567120Y-107010374D01*
X145550372Y-107010234D01*
X145536532Y-107010056D01*
X145525365Y-107009839D01*
X145516639Y-107009579D01*
X145510121Y-107009273D01*
X145505577Y-107008917D01*
X145502775Y-107008508D01*
X145501482Y-107008043D01*
X145501328Y-107007784D01*
X145502272Y-107004776D01*
X145504823Y-106998901D01*
X145508558Y-106991091D01*
X145511822Y-106984641D01*
X145521440Y-106964734D01*
X145530948Y-106942630D01*
X145539806Y-106919741D01*
X145547471Y-106897477D01*
X145553401Y-106877247D01*
X145553967Y-106875035D01*
X145557117Y-106861965D01*
X145559933Y-106848992D01*
X145562432Y-106835810D01*
X145564633Y-106822115D01*
X145566554Y-106807600D01*
X145568214Y-106791962D01*
X145569631Y-106774895D01*
X145570822Y-106756094D01*
X145571806Y-106735253D01*
X145572601Y-106712068D01*
X145573226Y-106686233D01*
X145573698Y-106657444D01*
X145574036Y-106625395D01*
X145574257Y-106589782D01*
X145574381Y-106550298D01*
X145574409Y-106532207D01*
X145574526Y-106427293D01*
X145580447Y-106425983D01*
X145587140Y-106424376D01*
X145592826Y-106422881D01*
X145598280Y-106421602D01*
X145606211Y-106420013D01*
X145614355Y-106418553D01*
X145628748Y-106416206D01*
X145641757Y-106414287D01*
X145654102Y-106412745D01*
X145666499Y-106411527D01*
X145679666Y-106410581D01*
X145694320Y-106409855D01*
X145711181Y-106409296D01*
X145730964Y-106408853D01*
X145752528Y-106408500D01*
X145830420Y-106407365D01*
X145831308Y-106590059D01*
G37*
%TO.C,J6*%
D11*
X144460000Y-95720000D02*
X144460000Y-93260000D01*
X145430000Y-95720000D02*
X144460000Y-95720000D01*
X147430000Y-91420000D02*
X145490000Y-91420000D01*
X148460000Y-93870000D02*
X148460000Y-93260000D01*
X148460000Y-93870000D02*
X148460000Y-95720000D01*
X148460000Y-95720000D02*
X147490000Y-95720000D01*
D12*
X148490000Y-96410000D02*
G75*
G02*
X148430000Y-96410000I-30000J0D01*
G01*
X148430000Y-96410000D02*
G75*
G02*
X148490000Y-96410000I30000J0D01*
G01*
%TO.C,Q3*%
D13*
X143100000Y-97370000D02*
X144100000Y-97370000D01*
X143100000Y-98890000D02*
X143100000Y-97370000D01*
X143150000Y-98890000D02*
X143100000Y-98890000D01*
X145050000Y-98890000D02*
X144270000Y-98890000D01*
X145220000Y-97370000D02*
X146220000Y-97370000D01*
X146220000Y-97370000D02*
X146220000Y-98890000D01*
X146220000Y-98890000D02*
X146170000Y-98890000D01*
X144610000Y-99670000D02*
X144280000Y-99430000D01*
X144610000Y-99190000D01*
X144610000Y-99670000D01*
G36*
X144610000Y-99670000D02*
G01*
X144280000Y-99430000D01*
X144610000Y-99190000D01*
X144610000Y-99670000D01*
G37*
%TO.C,J1*%
D11*
X144480000Y-111710000D02*
X145450000Y-111710000D01*
X144480000Y-113560000D02*
X144480000Y-111710000D01*
X144480000Y-113560000D02*
X144480000Y-114170000D01*
X145510000Y-116010000D02*
X147450000Y-116010000D01*
X147510000Y-111710000D02*
X148480000Y-111710000D01*
X148480000Y-111710000D02*
X148480000Y-114170000D01*
D12*
X144510000Y-111020000D02*
G75*
G02*
X144450000Y-111020000I-30000J0D01*
G01*
X144450000Y-111020000D02*
G75*
G02*
X144510000Y-111020000I30000J0D01*
G01*
%TO.C,R4*%
D13*
X143390000Y-111563641D02*
X143390000Y-111256359D01*
X144150000Y-111563641D02*
X144150000Y-111256359D01*
%TO.C,R10*%
X154026359Y-100470000D02*
X154333641Y-100470000D01*
X154026359Y-101230000D02*
X154333641Y-101230000D01*
%TO.C,R8*%
X154333641Y-101540000D02*
X154026359Y-101540000D01*
X154333641Y-102300000D02*
X154026359Y-102300000D01*
%TO.C,J2*%
D11*
X150290000Y-111707500D02*
X151260000Y-111707500D01*
X150290000Y-113557500D02*
X150290000Y-111707500D01*
X150290000Y-113557500D02*
X150290000Y-114167500D01*
X151320000Y-116007500D02*
X153260000Y-116007500D01*
X153320000Y-111707500D02*
X154290000Y-111707500D01*
X154290000Y-111707500D02*
X154290000Y-114167500D01*
D12*
X150320000Y-111017500D02*
G75*
G02*
X150260000Y-111017500I-30000J0D01*
G01*
X150260000Y-111017500D02*
G75*
G02*
X150320000Y-111017500I30000J0D01*
G01*
%TO.C,J7*%
D11*
X150270000Y-95740000D02*
X150270000Y-93280000D01*
X151240000Y-95740000D02*
X150270000Y-95740000D01*
X153240000Y-91440000D02*
X151300000Y-91440000D01*
X154270000Y-93890000D02*
X154270000Y-93280000D01*
X154270000Y-93890000D02*
X154270000Y-95740000D01*
X154270000Y-95740000D02*
X153300000Y-95740000D01*
D12*
X154300000Y-96430000D02*
G75*
G02*
X154240000Y-96430000I-30000J0D01*
G01*
X154240000Y-96430000D02*
G75*
G02*
X154300000Y-96430000I30000J0D01*
G01*
%TO.C,Q2*%
D13*
X152430000Y-108710000D02*
X152480000Y-108710000D01*
X152430000Y-110230000D02*
X152430000Y-108710000D01*
X153430000Y-110230000D02*
X152430000Y-110230000D01*
X153600000Y-108710000D02*
X154380000Y-108710000D01*
X155500000Y-108710000D02*
X155550000Y-108710000D01*
X155550000Y-108710000D02*
X155550000Y-110230000D01*
X155550000Y-110230000D02*
X154550000Y-110230000D01*
X154370000Y-108170000D02*
X154040000Y-108410000D01*
X154040000Y-107930000D01*
X154370000Y-108170000D01*
G36*
X154370000Y-108170000D02*
G01*
X154040000Y-108410000D01*
X154040000Y-107930000D01*
X154370000Y-108170000D01*
G37*
%TO.C,D3*%
X146690000Y-101940000D02*
X146690000Y-97930000D01*
X146690000Y-101940000D02*
X148690000Y-101940000D01*
X148690000Y-101940000D02*
X148690000Y-97930000D01*
%TO.C,R3*%
X154840000Y-113503641D02*
X154840000Y-113196359D01*
X155600000Y-113503641D02*
X155600000Y-113196359D01*
%TO.C,R7*%
X144506359Y-100480000D02*
X144813641Y-100480000D01*
X144506359Y-101240000D02*
X144813641Y-101240000D01*
%TO.C,C10*%
X149010000Y-100912164D02*
X149010000Y-101127836D01*
X149730000Y-100912164D02*
X149730000Y-101127836D01*
%TO.C,D2*%
X152620000Y-102592500D02*
X152620000Y-106602500D01*
X154620000Y-102592500D02*
X152620000Y-102592500D01*
X154620000Y-102592500D02*
X154620000Y-106602500D01*
%TO.C,R9*%
X144496359Y-101580000D02*
X144803641Y-101580000D01*
X144496359Y-102340000D02*
X144803641Y-102340000D01*
%TO.C,R12*%
X143890000Y-103616359D02*
X143890000Y-103923641D01*
X144650000Y-103616359D02*
X144650000Y-103923641D01*
%TO.C,D1*%
X151730000Y-107990000D02*
X147720000Y-107990000D01*
X151730000Y-109990000D02*
X147720000Y-109990000D01*
X151730000Y-109990000D02*
X151730000Y-107990000D01*
%TO.C,Q4*%
X152500000Y-97377500D02*
X153500000Y-97377500D01*
X152500000Y-98897500D02*
X152500000Y-97377500D01*
X152550000Y-98897500D02*
X152500000Y-98897500D01*
X154450000Y-98897500D02*
X153670000Y-98897500D01*
X154620000Y-97377500D02*
X155620000Y-97377500D01*
X155620000Y-97377500D02*
X155620000Y-98897500D01*
X155620000Y-98897500D02*
X155570000Y-98897500D01*
X154010000Y-99677500D02*
X153680000Y-99437500D01*
X154010000Y-99197500D01*
X154010000Y-99677500D01*
G36*
X154010000Y-99677500D02*
G01*
X153680000Y-99437500D01*
X154010000Y-99197500D01*
X154010000Y-99677500D01*
G37*
%TO.C,C11*%
X146090000Y-103877836D02*
X146090000Y-103662164D01*
X146810000Y-103877836D02*
X146810000Y-103662164D01*
%TO.C,R2*%
X143390001Y-113473641D02*
X143390000Y-113166359D01*
X144150000Y-113473641D02*
X144149999Y-113166359D01*
%TO.C,R5*%
X154840000Y-111543641D02*
X154840000Y-111236359D01*
X155600000Y-111543641D02*
X155600000Y-111236359D01*
%TO.C,D4*%
X150050000Y-101947500D02*
X150050000Y-97937500D01*
X150050000Y-101947500D02*
X152050000Y-101947500D01*
X152050000Y-101947500D02*
X152050000Y-97937500D01*
%TO.C,C14*%
X144990000Y-103877836D02*
X144990000Y-103662164D01*
X145710000Y-103877836D02*
X145710000Y-103662164D01*
%TO.C,Q1*%
X143290000Y-108760000D02*
X143340000Y-108760000D01*
X143290000Y-110280000D02*
X143290000Y-108760000D01*
X144290000Y-110280000D02*
X143290000Y-110280000D01*
X144460000Y-108760000D02*
X145240000Y-108760000D01*
X146360000Y-108760000D02*
X146410000Y-108760000D01*
X146410000Y-108760000D02*
X146410000Y-110280000D01*
X146410000Y-110280000D02*
X145410000Y-110280000D01*
X145230000Y-108220000D02*
X144900000Y-108460000D01*
X144900000Y-107980000D01*
X145230000Y-108220000D01*
G36*
X145230000Y-108220000D02*
G01*
X144900000Y-108460000D01*
X144900000Y-107980000D01*
X145230000Y-108220000D01*
G37*
%TO.C,IC1*%
D14*
X147810000Y-103070000D02*
X147810000Y-103320000D01*
X147810000Y-105570000D02*
X147810000Y-105320000D01*
X148510000Y-103070000D02*
X147810000Y-103070000D01*
X148510000Y-105570000D02*
X147810000Y-105570000D01*
X150810000Y-103070000D02*
X150110000Y-103070000D01*
X150810000Y-103220000D02*
X150810000Y-103070000D01*
X150810000Y-105320000D02*
X150810000Y-105570000D01*
X150810000Y-105570000D02*
X150110000Y-105570000D01*
D10*
X151210000Y-105020000D02*
X151209999Y-105020000D01*
X151209999Y-105020000D01*
X151209999Y-105020000D01*
X151209999Y-105020000D01*
X151209999Y-105020000D01*
X151209999Y-105020000D01*
X151209999Y-105020000D01*
X151209999Y-105019999D01*
X151209999Y-105019999D01*
X151209999Y-105019999D01*
X151209999Y-105019999D01*
X151209999Y-105019999D01*
X151210000Y-105019999D01*
X151210000Y-105019999D01*
X151210000Y-105019999D01*
X151210000Y-105019999D01*
X151210000Y-105019999D01*
X151210000Y-105019999D01*
X151210000Y-105019999D01*
X151210000Y-105019999D01*
X151210000Y-105019999D01*
X151210000Y-105019999D01*
X151210000Y-105019999D01*
X151210000Y-105019999D01*
X151210001Y-105019999D01*
X151210001Y-105019999D01*
X151210001Y-105019999D01*
X151210001Y-105019999D01*
X151210001Y-105019999D01*
X151210001Y-105019999D01*
X151210001Y-105020000D01*
X151210001Y-105020000D01*
X151210001Y-105020000D01*
X151210001Y-105020000D01*
X151210001Y-105020000D01*
X151210001Y-105020000D01*
X151210001Y-105020000D01*
X151210000Y-105020000D01*
X151210000Y-105020000D02*
X151210001Y-105020000D01*
X151210001Y-105020000D01*
X151210001Y-105020000D01*
X151210001Y-105020000D01*
X151210001Y-105020000D01*
X151210001Y-105020000D01*
X151210001Y-105020001D01*
X151210001Y-105020001D01*
X151210001Y-105020001D01*
X151210001Y-105020001D01*
X151210001Y-105020001D01*
X151210001Y-105020001D01*
X151210001Y-105020001D01*
X151210000Y-105020001D01*
X151210000Y-105020001D01*
X151210000Y-105020001D01*
X151210000Y-105020001D01*
X151210000Y-105020001D01*
X151210000Y-105020001D01*
X151210000Y-105020001D01*
X151210000Y-105020001D01*
X151210000Y-105020001D01*
X151210000Y-105020001D01*
X151210000Y-105020001D01*
X151210000Y-105020001D01*
X151209999Y-105020001D01*
X151209999Y-105020001D01*
X151209999Y-105020001D01*
X151209999Y-105020001D01*
X151209999Y-105020001D01*
X151209999Y-105020001D01*
X151209999Y-105020000D01*
X151209999Y-105020000D01*
X151209999Y-105020000D01*
X151209999Y-105020000D01*
X151209999Y-105020000D01*
X151209999Y-105020000D01*
X151210000Y-105020000D01*
D14*
D10*
X151210000Y-105120000D02*
X151209999Y-105120000D01*
X151209999Y-105120000D01*
X151209999Y-105120000D01*
X151209999Y-105120000D01*
X151209999Y-105120000D01*
X151209999Y-105120000D01*
X151209999Y-105120000D01*
X151209999Y-105119999D01*
X151209999Y-105119999D01*
X151209999Y-105119999D01*
X151209999Y-105119999D01*
X151209999Y-105119999D01*
X151210000Y-105119999D01*
X151210000Y-105119999D01*
X151210000Y-105119999D01*
X151210000Y-105119999D01*
X151210000Y-105119999D01*
X151210000Y-105119999D01*
X151210000Y-105119999D01*
X151210000Y-105119999D01*
X151210000Y-105119999D01*
X151210000Y-105119999D01*
X151210000Y-105119999D01*
X151210000Y-105119999D01*
X151210001Y-105119999D01*
X151210001Y-105119999D01*
X151210001Y-105119999D01*
X151210001Y-105119999D01*
X151210001Y-105119999D01*
X151210001Y-105119999D01*
X151210001Y-105120000D01*
X151210001Y-105120000D01*
X151210001Y-105120000D01*
X151210001Y-105120000D01*
X151210001Y-105120000D01*
X151210001Y-105120000D01*
X151210001Y-105120000D01*
X151210000Y-105120000D01*
X151210000Y-105120000D02*
X151210001Y-105120000D01*
X151210001Y-105120000D01*
X151210001Y-105120000D01*
X151210001Y-105120000D01*
X151210001Y-105120000D01*
X151210001Y-105120000D01*
X151210001Y-105120001D01*
X151210001Y-105120001D01*
X151210001Y-105120001D01*
X151210001Y-105120001D01*
X151210001Y-105120001D01*
X151210001Y-105120001D01*
X151210001Y-105120001D01*
X151210000Y-105120001D01*
X151210000Y-105120001D01*
X151210000Y-105120001D01*
X151210000Y-105120001D01*
X151210000Y-105120001D01*
X151210000Y-105120001D01*
X151210000Y-105120001D01*
X151210000Y-105120001D01*
X151210000Y-105120001D01*
X151210000Y-105120001D01*
X151210000Y-105120001D01*
X151210000Y-105120001D01*
X151209999Y-105120001D01*
X151209999Y-105120001D01*
X151209999Y-105120001D01*
X151209999Y-105120001D01*
X151209999Y-105120001D01*
X151209999Y-105120001D01*
X151209999Y-105120000D01*
X151209999Y-105120000D01*
X151209999Y-105120000D01*
X151209999Y-105120000D01*
X151209999Y-105120000D01*
X151209999Y-105120000D01*
X151210000Y-105120000D01*
D14*
X151210000Y-105020000D02*
G75*
G02*
X151210000Y-105120000I0J-50000D01*
G01*
X151210000Y-105120000D02*
G75*
G02*
X151210000Y-105020000I0J50000D01*
G01*
%TD*%
M02*
