%TF.GenerationSoftware,KiCad,Pcbnew,10.0.0*%
%TF.CreationDate,2026-09-05T18:27:09+03:00*%
%TF.ProjectId,Trochi,54726f63-6869-42e6-9b69-6361645f7063,v2.0*%
%TF.SameCoordinates,Original*%
%TF.FileFunction,Legend,Bot*%
%TF.FilePolarity,Positive*%
%FSLAX46Y46*%
G04 Gerber Fmt 4.6, Leading zero omitted, Abs format (unit mm)*
G04 Created by KiCad (PCBNEW 10.0.0) date 2026-09-05 18:27:09*
%MOMM*%
%LPD*%
G01*
G04 APERTURE LIST*
%ADD10C,0.500000*%
%ADD11C,0.120000*%
%ADD12C,0.250000*%
%ADD13C,0.060000*%
%ADD14C,0.000000*%
%ADD15C,0.150000*%
G04 APERTURE END LIST*
D10*
X144414862Y-92277333D02*
X142891053Y-92277333D01*
X155504862Y-92327333D02*
X153981053Y-92327333D01*
X154742957Y-93089238D02*
X154742957Y-91565428D01*
%TO.C,C8*%
D11*
X154882500Y-98192164D02*
X154882500Y-98407836D01*
X155602500Y-98192164D02*
X155602500Y-98407836D01*
%TO.C,C1*%
X143784664Y-97260000D02*
X144000336Y-97260000D01*
X143784664Y-97980000D02*
X144000336Y-97980000D01*
%TO.C,C3*%
X144812500Y-100930580D02*
X144812500Y-100649420D01*
X145832500Y-100930580D02*
X145832500Y-100649420D01*
%TO.C,C4*%
X146412500Y-100930580D02*
X146412500Y-100649420D01*
X147432500Y-100930580D02*
X147432500Y-100649420D01*
%TO.C,Card1*%
D12*
X143612500Y-111490000D02*
X143612500Y-112580000D01*
X143612500Y-114440000D02*
X143612500Y-116180000D01*
X143612500Y-116180000D02*
X153772500Y-116180000D01*
X144962500Y-111490000D02*
X143612500Y-111490000D01*
X146272500Y-110600000D02*
X146272500Y-110980000D01*
X152372500Y-110600000D02*
X146272500Y-110600000D01*
X152372500Y-110930000D02*
X152372500Y-110600000D01*
X155042500Y-111490000D02*
X153772500Y-111490000D01*
X155042500Y-112130000D02*
X155042500Y-111490000D01*
X145412500Y-110220000D02*
G75*
G02*
X144852500Y-110220000I-280000J0D01*
G01*
X144852500Y-110220000D02*
G75*
G02*
X145412500Y-110220000I280000J0D01*
G01*
D13*
X155032500Y-110610000D02*
G75*
G02*
X154972500Y-110610000I-30000J0D01*
G01*
X154972500Y-110610000D02*
G75*
G02*
X155032500Y-110610000I30000J0D01*
G01*
%TO.C,C5*%
D11*
X143774664Y-98340000D02*
X143990336Y-98340000D01*
X143774664Y-99060000D02*
X143990336Y-99060000D01*
%TO.C,D6*%
X149002500Y-100892500D02*
X149002500Y-104902500D01*
X149002500Y-100892500D02*
X151002500Y-100892500D01*
X151002500Y-100892500D02*
X151002500Y-104902500D01*
%TO.C,R14*%
X146390000Y-109336359D02*
X146390000Y-109643641D01*
X147150000Y-109336359D02*
X147150000Y-109643641D01*
%TO.C,R13*%
X147440000Y-109336359D02*
X147440000Y-109643641D01*
X148200000Y-109336359D02*
X148200000Y-109643641D01*
%TO.C,C6*%
X153987500Y-95851252D02*
X153987500Y-95328748D01*
X155457500Y-95851252D02*
X155457500Y-95328748D01*
%TO.C,C12*%
X150482500Y-109402164D02*
X150482500Y-109617836D01*
X151202500Y-109402164D02*
X151202500Y-109617836D01*
D14*
%TO.C,G\u002A\u002A\u002A*%
G36*
X142967825Y-110016600D02*
G01*
X143000414Y-110028552D01*
X143043385Y-110053403D01*
X143069860Y-110090668D01*
X143073291Y-110097652D01*
X143095171Y-110129649D01*
X143128822Y-110169918D01*
X143168492Y-110211421D01*
X143184439Y-110227205D01*
X143218009Y-110262139D01*
X143241273Y-110288841D01*
X143249935Y-110302508D01*
X143247159Y-110305519D01*
X143225992Y-110320317D01*
X143186263Y-110345446D01*
X143130679Y-110379267D01*
X143061951Y-110420143D01*
X142982786Y-110466437D01*
X142895895Y-110516511D01*
X142851198Y-110542043D01*
X142767700Y-110589481D01*
X142693057Y-110631552D01*
X142630003Y-110666735D01*
X142581270Y-110693509D01*
X142549590Y-110710357D01*
X142537696Y-110715757D01*
X142538291Y-110707447D01*
X142547878Y-110685422D01*
X142557766Y-110667954D01*
X142578465Y-110632197D01*
X142607876Y-110581744D01*
X142644013Y-110519970D01*
X142684890Y-110450249D01*
X142728523Y-110375956D01*
X142772926Y-110300467D01*
X142816115Y-110227155D01*
X142856104Y-110159395D01*
X142890908Y-110100563D01*
X142918543Y-110054032D01*
X142937023Y-110023179D01*
X142944363Y-110011376D01*
X142947330Y-110011137D01*
X142967825Y-110016600D01*
G37*
G36*
X143512801Y-109052492D02*
G01*
X143528789Y-109077133D01*
X143554645Y-109119203D01*
X143588601Y-109175657D01*
X143628887Y-109243456D01*
X143673734Y-109319557D01*
X143721372Y-109400919D01*
X143770032Y-109484499D01*
X143817945Y-109567256D01*
X143863341Y-109646149D01*
X143904451Y-109718135D01*
X143939505Y-109780173D01*
X143966734Y-109829222D01*
X143984370Y-109862239D01*
X143990641Y-109876183D01*
X143983682Y-109887023D01*
X143961408Y-109901869D01*
X143960119Y-109902488D01*
X143925604Y-109915005D01*
X143902445Y-109909943D01*
X143881520Y-109885426D01*
X143868216Y-109867177D01*
X143848539Y-109848280D01*
X143822345Y-109833328D01*
X143785757Y-109821096D01*
X143734902Y-109810358D01*
X143665903Y-109799890D01*
X143574887Y-109788466D01*
X143515596Y-109781154D01*
X143441465Y-109771314D01*
X143376994Y-109761986D01*
X143327571Y-109753957D01*
X143298584Y-109748017D01*
X143269310Y-109736131D01*
X143231727Y-109714098D01*
X143196116Y-109687977D01*
X143169558Y-109663024D01*
X143159132Y-109644494D01*
X143160305Y-109640901D01*
X143171553Y-109618385D01*
X143193021Y-109579016D01*
X143222611Y-109526381D01*
X143258227Y-109464065D01*
X143297771Y-109395652D01*
X143339148Y-109324728D01*
X143380259Y-109254879D01*
X143419008Y-109189690D01*
X143453298Y-109132746D01*
X143481031Y-109087633D01*
X143500112Y-109057936D01*
X143508443Y-109047240D01*
X143512801Y-109052492D01*
G37*
G36*
X143891703Y-110328559D02*
G01*
X143881919Y-110355012D01*
X143877790Y-110387358D01*
X143886398Y-110421981D01*
X143891632Y-110438854D01*
X143893899Y-110446163D01*
X143893418Y-110469590D01*
X143878505Y-110491268D01*
X143870402Y-110503122D01*
X143856756Y-110542218D01*
X143849298Y-110591870D01*
X143848437Y-110643243D01*
X143854579Y-110687503D01*
X143866418Y-110712235D01*
X143868133Y-110715817D01*
X143880314Y-110726628D01*
X143889854Y-110726698D01*
X143898038Y-110709581D01*
X143899662Y-110703647D01*
X143929144Y-110703647D01*
X143929470Y-110718379D01*
X143934648Y-110719876D01*
X143948221Y-110707728D01*
X143962345Y-110681170D01*
X143972700Y-110647306D01*
X143975034Y-110632526D01*
X143973504Y-110609867D01*
X143964297Y-110607748D01*
X143951279Y-110624787D01*
X143938319Y-110659600D01*
X143934878Y-110673220D01*
X143929144Y-110703647D01*
X143899662Y-110703647D01*
X143908536Y-110671228D01*
X143913797Y-110650931D01*
X143925335Y-110611905D01*
X143936106Y-110590748D01*
X143949779Y-110582033D01*
X143970027Y-110580334D01*
X143973751Y-110580230D01*
X143988754Y-110575637D01*
X144001180Y-110560632D01*
X144013971Y-110530280D01*
X144030072Y-110479644D01*
X144053036Y-110394601D01*
X144065160Y-110323502D01*
X144065450Y-110263641D01*
X144053913Y-110208973D01*
X144030560Y-110153453D01*
X144029693Y-110151730D01*
X144010652Y-110109995D01*
X143999102Y-110077099D01*
X143997514Y-110060033D01*
X143997626Y-110059855D01*
X144014151Y-110045350D01*
X144042534Y-110028200D01*
X144079786Y-110008936D01*
X144148260Y-110128983D01*
X144165120Y-110158414D01*
X144198565Y-110216458D01*
X144240468Y-110288913D01*
X144288087Y-110371048D01*
X144338684Y-110458135D01*
X144389518Y-110545444D01*
X144433892Y-110621758D01*
X144440120Y-110632526D01*
X144475553Y-110693793D01*
X144510937Y-110755381D01*
X144538332Y-110803527D01*
X144556025Y-110835236D01*
X144562304Y-110847516D01*
X144562302Y-110847527D01*
X144549349Y-110848434D01*
X144512455Y-110849286D01*
X144453637Y-110850070D01*
X144374915Y-110850776D01*
X144278306Y-110851393D01*
X144165830Y-110851911D01*
X144039505Y-110852317D01*
X143901350Y-110852601D01*
X143753383Y-110852753D01*
X143597623Y-110852760D01*
X143492210Y-110852698D01*
X143322333Y-110852501D01*
X143175971Y-110852166D01*
X143051535Y-110851663D01*
X142947440Y-110850960D01*
X142862099Y-110850027D01*
X142793926Y-110848832D01*
X142741333Y-110847346D01*
X142702734Y-110845537D01*
X142676542Y-110843375D01*
X142661170Y-110840828D01*
X142655033Y-110837865D01*
X142656543Y-110834456D01*
X142662813Y-110830146D01*
X142690814Y-110812796D01*
X142735656Y-110786157D01*
X142794061Y-110752088D01*
X142862751Y-110712446D01*
X142937095Y-110669863D01*
X143497808Y-110669863D01*
X143510382Y-110711112D01*
X143513722Y-110716485D01*
X143536698Y-110733448D01*
X143562341Y-110733258D01*
X143580147Y-110715289D01*
X143581171Y-110710523D01*
X143576409Y-110683184D01*
X143560698Y-110649857D01*
X143548160Y-110631428D01*
X143610883Y-110631428D01*
X143611985Y-110637541D01*
X143625209Y-110670784D01*
X143647273Y-110706133D01*
X143651634Y-110710523D01*
X143679095Y-110738170D01*
X143709003Y-110750119D01*
X143730463Y-110740815D01*
X143739293Y-110712235D01*
X143731314Y-110666360D01*
X143731141Y-110665837D01*
X143710210Y-110621109D01*
X143682515Y-110598834D01*
X143643882Y-110595636D01*
X143631405Y-110597547D01*
X143613024Y-110607773D01*
X143610883Y-110631428D01*
X143548160Y-110631428D01*
X143545373Y-110627331D01*
X143529712Y-110614973D01*
X143515071Y-110620432D01*
X143504019Y-110634329D01*
X143497808Y-110669863D01*
X142937095Y-110669863D01*
X142938448Y-110669088D01*
X143017874Y-110623873D01*
X143079000Y-110589273D01*
X143408363Y-110589273D01*
X143414374Y-110616749D01*
X143415723Y-110618838D01*
X143439132Y-110639782D01*
X143463959Y-110634972D01*
X143489423Y-110604537D01*
X143495942Y-110593423D01*
X143506672Y-110570522D01*
X143502978Y-110555850D01*
X143483980Y-110538777D01*
X143459161Y-110523273D01*
X143439749Y-110519255D01*
X143427914Y-110528138D01*
X143413926Y-110555706D01*
X143408363Y-110589273D01*
X143079000Y-110589273D01*
X143097751Y-110578659D01*
X143174801Y-110535304D01*
X143245746Y-110495665D01*
X143307307Y-110461601D01*
X143356208Y-110434969D01*
X143389169Y-110417628D01*
X143402912Y-110411434D01*
X143408559Y-110414099D01*
X143430075Y-110431577D01*
X143462024Y-110461770D01*
X143499809Y-110500455D01*
X143531612Y-110533719D01*
X143561076Y-110562133D01*
X143572905Y-110570522D01*
X143580764Y-110576096D01*
X143594924Y-110578419D01*
X143607804Y-110571912D01*
X143649577Y-110555071D01*
X143693288Y-110560790D01*
X143729852Y-110588583D01*
X143730976Y-110590027D01*
X143749238Y-110618686D01*
X143756779Y-110640552D01*
X143757968Y-110647901D01*
X143769925Y-110658288D01*
X143770379Y-110658271D01*
X143777567Y-110646467D01*
X143776535Y-110617199D01*
X143768550Y-110576926D01*
X143754878Y-110532109D01*
X143736785Y-110489209D01*
X143720229Y-110461684D01*
X143715062Y-110455021D01*
X143777185Y-110455021D01*
X143782480Y-110482147D01*
X143794222Y-110504627D01*
X143807156Y-110515373D01*
X143820670Y-110504689D01*
X143832135Y-110476316D01*
X143838640Y-110438854D01*
X143837869Y-110400924D01*
X143831580Y-110358074D01*
X143800714Y-110403497D01*
X143786052Y-110427213D01*
X143777185Y-110455021D01*
X143715062Y-110455021D01*
X143685011Y-110416265D01*
X143645714Y-110375979D01*
X143636165Y-110367400D01*
X143605206Y-110334580D01*
X143596196Y-110309894D01*
X143609049Y-110288729D01*
X143643680Y-110266468D01*
X143648166Y-110264309D01*
X143672792Y-110263420D01*
X143686331Y-110282522D01*
X143685203Y-110317240D01*
X143683971Y-110335945D01*
X143691978Y-110346473D01*
X143694952Y-110346250D01*
X143710446Y-110333159D01*
X143714082Y-110306186D01*
X143704351Y-110274158D01*
X143700430Y-110266224D01*
X143694357Y-110240935D01*
X143703523Y-110232084D01*
X143725366Y-110243420D01*
X143736174Y-110256942D01*
X143742254Y-110284322D01*
X143740852Y-110329722D01*
X143739751Y-110372889D01*
X143744994Y-110395025D01*
X143755829Y-110393624D01*
X143771386Y-110367606D01*
X143777614Y-110345654D01*
X143774113Y-110316790D01*
X143758115Y-110275009D01*
X143752930Y-110263257D01*
X143796217Y-110263257D01*
X143801181Y-110289483D01*
X143813054Y-110316816D01*
X143827117Y-110335835D01*
X143838656Y-110338218D01*
X143846908Y-110322171D01*
X143842952Y-110291835D01*
X143821741Y-110262022D01*
X143805900Y-110248349D01*
X143797318Y-110246635D01*
X143796217Y-110263257D01*
X143752930Y-110263257D01*
X143750839Y-110258518D01*
X143736683Y-110224579D01*
X143732884Y-110207896D01*
X143739267Y-110203652D01*
X143755659Y-110207028D01*
X143772868Y-110207320D01*
X143786923Y-110189055D01*
X143791657Y-110179319D01*
X143808506Y-110166656D01*
X143826406Y-110165039D01*
X143834733Y-110177120D01*
X143836325Y-110182474D01*
X143850197Y-110204718D01*
X143873695Y-110234035D01*
X143891204Y-110254459D01*
X143904276Y-110275968D01*
X143903725Y-110296903D01*
X143894129Y-110322171D01*
X143891703Y-110328559D01*
G37*
G36*
X153691860Y-109884479D02*
G01*
X153692721Y-109891166D01*
X153693487Y-109903953D01*
X153694150Y-109922608D01*
X153694705Y-109946896D01*
X153695142Y-109976588D01*
X153695455Y-110011449D01*
X153695677Y-110039898D01*
X153696006Y-110068846D01*
X153696416Y-110092186D01*
X153696925Y-110110378D01*
X153697550Y-110123884D01*
X153698309Y-110133166D01*
X153699217Y-110138685D01*
X153700294Y-110140903D01*
X153700601Y-110141057D01*
X153705612Y-110142973D01*
X153715923Y-110146628D01*
X153730843Y-110151787D01*
X153749683Y-110158215D01*
X153771755Y-110165676D01*
X153796369Y-110173934D01*
X153822836Y-110182756D01*
X153828910Y-110184776D01*
X153854791Y-110193458D01*
X153878501Y-110201522D01*
X153899379Y-110208737D01*
X153916767Y-110214870D01*
X153930004Y-110219691D01*
X153938430Y-110222965D01*
X153941385Y-110224462D01*
X153941387Y-110224539D01*
X153941549Y-110225136D01*
X153941576Y-110225661D01*
X153940925Y-110226306D01*
X153939052Y-110227262D01*
X153935412Y-110228724D01*
X153929462Y-110230882D01*
X153920657Y-110233931D01*
X153908454Y-110238061D01*
X153892308Y-110243466D01*
X153871675Y-110250338D01*
X153846011Y-110258869D01*
X153814772Y-110269253D01*
X153696224Y-110308668D01*
X153695842Y-110430169D01*
X153695832Y-110433341D01*
X153695762Y-110460567D01*
X153695722Y-110485692D01*
X153695712Y-110507991D01*
X153695731Y-110526738D01*
X153695777Y-110541210D01*
X153695852Y-110550680D01*
X153695953Y-110554423D01*
X153695909Y-110556897D01*
X153694505Y-110563294D01*
X153693181Y-110566796D01*
X153691395Y-110569412D01*
X153690743Y-110568814D01*
X153688132Y-110565630D01*
X153683368Y-110559453D01*
X153676247Y-110550007D01*
X153666561Y-110537013D01*
X153654106Y-110520193D01*
X153638675Y-110499270D01*
X153620062Y-110473967D01*
X153598061Y-110444005D01*
X153572466Y-110409107D01*
X153564697Y-110398631D01*
X153554516Y-110385297D01*
X153545917Y-110374485D01*
X153539626Y-110367104D01*
X153536368Y-110364059D01*
X153536118Y-110364023D01*
X153531221Y-110364915D01*
X153520997Y-110367552D01*
X153506143Y-110371731D01*
X153487353Y-110377247D01*
X153465325Y-110383898D01*
X153440755Y-110391478D01*
X153414337Y-110399786D01*
X153410075Y-110401137D01*
X153383833Y-110409409D01*
X153359507Y-110416995D01*
X153337799Y-110423681D01*
X153319417Y-110429255D01*
X153305063Y-110433500D01*
X153295443Y-110436205D01*
X153291262Y-110437154D01*
X153290261Y-110437042D01*
X153289241Y-110434960D01*
X153291772Y-110429623D01*
X153298187Y-110420218D01*
X153298862Y-110419283D01*
X153305825Y-110409578D01*
X153315209Y-110396420D01*
X153325870Y-110381420D01*
X153336662Y-110366186D01*
X153348122Y-110350024D01*
X153361087Y-110331819D01*
X153373530Y-110314418D01*
X153383855Y-110300057D01*
X153389216Y-110292624D01*
X153400667Y-110276705D01*
X153411954Y-110260969D01*
X153421268Y-110247935D01*
X153437718Y-110224846D01*
X153389788Y-110157613D01*
X153380184Y-110144153D01*
X153366484Y-110124986D01*
X153353701Y-110107141D01*
X153342541Y-110091602D01*
X153333709Y-110079353D01*
X153327911Y-110071377D01*
X153326988Y-110070118D01*
X153313185Y-110051038D01*
X153302099Y-110035204D01*
X153294038Y-110023079D01*
X153289313Y-110015128D01*
X153288230Y-110011814D01*
X153288479Y-110011711D01*
X153292997Y-110012256D01*
X153301737Y-110014348D01*
X153313092Y-110017613D01*
X153315206Y-110018267D01*
X153325478Y-110021485D01*
X153340535Y-110026240D01*
X153359352Y-110032204D01*
X153380899Y-110039049D01*
X153404148Y-110046448D01*
X153428073Y-110054074D01*
X153451645Y-110061598D01*
X153473837Y-110068694D01*
X153493620Y-110075034D01*
X153509967Y-110080290D01*
X153521851Y-110084135D01*
X153526403Y-110085462D01*
X153534261Y-110086897D01*
X153538321Y-110086365D01*
X153540333Y-110083728D01*
X153545713Y-110076483D01*
X153553891Y-110065388D01*
X153564341Y-110051162D01*
X153576534Y-110034522D01*
X153589942Y-110016186D01*
X153601397Y-110000521D01*
X153614476Y-109982671D01*
X153626171Y-109966749D01*
X153635877Y-109953577D01*
X153642991Y-109943976D01*
X153646908Y-109938767D01*
X153647357Y-109938186D01*
X153652289Y-109931787D01*
X153656187Y-109926651D01*
X153660252Y-109921153D01*
X153665686Y-109913670D01*
X153673692Y-109902578D01*
X153675196Y-109900521D01*
X153682327Y-109891540D01*
X153688101Y-109885456D01*
X153691385Y-109883491D01*
X153691860Y-109884479D01*
G37*
G36*
X154564639Y-109488379D02*
G01*
X154594057Y-109490212D01*
X154618993Y-109492995D01*
X154677877Y-109503925D01*
X154744279Y-109521998D01*
X154807791Y-109545684D01*
X154868164Y-109574890D01*
X154925151Y-109609521D01*
X154977005Y-109647775D01*
X155028652Y-109693313D01*
X155075367Y-109742791D01*
X155116987Y-109795930D01*
X155153351Y-109852447D01*
X155184298Y-109912061D01*
X155209665Y-109974491D01*
X155229291Y-110039456D01*
X155243014Y-110106674D01*
X155250673Y-110175864D01*
X155251628Y-110198831D01*
X155251771Y-110225605D01*
X155251112Y-110253395D01*
X155249720Y-110280341D01*
X155247668Y-110304580D01*
X155245025Y-110324251D01*
X155235696Y-110372702D01*
X155224135Y-110420642D01*
X155210632Y-110464737D01*
X155194674Y-110506308D01*
X155175749Y-110546678D01*
X155153346Y-110587168D01*
X155126952Y-110629102D01*
X155115687Y-110645568D01*
X155075476Y-110697172D01*
X155030588Y-110744948D01*
X154981536Y-110788572D01*
X154928832Y-110827718D01*
X154872990Y-110862062D01*
X154814521Y-110891280D01*
X154753938Y-110915046D01*
X154691754Y-110933036D01*
X154628482Y-110944924D01*
X154615145Y-110946755D01*
X154600494Y-110948769D01*
X154588771Y-110950383D01*
X154581707Y-110951360D01*
X154578431Y-110951717D01*
X154565919Y-110952329D01*
X154548764Y-110952505D01*
X154528261Y-110952292D01*
X154505707Y-110951733D01*
X154482397Y-110950874D01*
X154459628Y-110949760D01*
X154438693Y-110948434D01*
X154420890Y-110946943D01*
X154407514Y-110945331D01*
X154405243Y-110944976D01*
X154339491Y-110931379D01*
X154274889Y-110911663D01*
X154212108Y-110886136D01*
X154151816Y-110855104D01*
X154094685Y-110818874D01*
X154041385Y-110777753D01*
X154031412Y-110768894D01*
X154016919Y-110754999D01*
X154001320Y-110739115D01*
X153985175Y-110721902D01*
X153969048Y-110704021D01*
X153953497Y-110686133D01*
X153939085Y-110668899D01*
X153926372Y-110652979D01*
X153915920Y-110639035D01*
X153908290Y-110627726D01*
X153904043Y-110619714D01*
X153903739Y-110615660D01*
X153906273Y-110616408D01*
X153912025Y-110620817D01*
X153919514Y-110627972D01*
X153958542Y-110664379D01*
X154004717Y-110699410D01*
X154054879Y-110730134D01*
X154108302Y-110756156D01*
X154164261Y-110777081D01*
X154222030Y-110792516D01*
X154223246Y-110792776D01*
X154234920Y-110795101D01*
X154245983Y-110796862D01*
X154257611Y-110798135D01*
X154270981Y-110799000D01*
X154287272Y-110799534D01*
X154307659Y-110799817D01*
X154333320Y-110799926D01*
X154340946Y-110799935D01*
X154364868Y-110799875D01*
X154383885Y-110799610D01*
X154399211Y-110799060D01*
X154412056Y-110798145D01*
X154423634Y-110796786D01*
X154435157Y-110794904D01*
X154447836Y-110792419D01*
X154464104Y-110788840D01*
X154523210Y-110771813D01*
X154579470Y-110749221D01*
X154632570Y-110721343D01*
X154682193Y-110688460D01*
X154728025Y-110650849D01*
X154769750Y-110608791D01*
X154807052Y-110562565D01*
X154839616Y-110512450D01*
X154867127Y-110458725D01*
X154889268Y-110401670D01*
X154892680Y-110390985D01*
X154907314Y-110333065D01*
X154915781Y-110274764D01*
X154918256Y-110216507D01*
X154914915Y-110158719D01*
X154905933Y-110101827D01*
X154891485Y-110046254D01*
X154871747Y-109992428D01*
X154846893Y-109940772D01*
X154817101Y-109891713D01*
X154782543Y-109845675D01*
X154743397Y-109803085D01*
X154699837Y-109764367D01*
X154652038Y-109729947D01*
X154600176Y-109700251D01*
X154592557Y-109696470D01*
X154536655Y-109672671D01*
X154479466Y-109654956D01*
X154421432Y-109643260D01*
X154362997Y-109637517D01*
X154304601Y-109637664D01*
X154246687Y-109643634D01*
X154189698Y-109655364D01*
X154134074Y-109672787D01*
X154080260Y-109695840D01*
X154028695Y-109724456D01*
X153979824Y-109758572D01*
X153934087Y-109798122D01*
X153924520Y-109807062D01*
X153914113Y-109816048D01*
X153906777Y-109821448D01*
X153902901Y-109823033D01*
X153902874Y-109820577D01*
X153907085Y-109813853D01*
X153911809Y-109807217D01*
X153917910Y-109798444D01*
X153924509Y-109789248D01*
X153937343Y-109772692D01*
X153952533Y-109754197D01*
X153968748Y-109735334D01*
X153984660Y-109717671D01*
X153998941Y-109702776D01*
X154044447Y-109660783D01*
X154098878Y-109618540D01*
X154156305Y-109582009D01*
X154216708Y-109551200D01*
X154280068Y-109526124D01*
X154346365Y-109506791D01*
X154415578Y-109493211D01*
X154438726Y-109490513D01*
X154467784Y-109488564D01*
X154499675Y-109487557D01*
X154532570Y-109487495D01*
X154564639Y-109488379D01*
G37*
%TO.C,J3*%
D12*
X145392500Y-99090000D02*
X145392500Y-94880000D01*
X146342500Y-97520000D02*
X146342500Y-99090000D01*
X146342500Y-99090000D02*
X145392500Y-99090000D01*
X147612500Y-97520000D02*
X146342500Y-97520000D01*
X149612500Y-97520000D02*
X149072500Y-97520000D01*
X151742500Y-91500000D02*
X146942500Y-91500000D01*
X152342500Y-97520000D02*
X151072500Y-97520000D01*
X152342500Y-99090000D02*
X152342500Y-97520000D01*
X153292500Y-99090000D02*
X152342500Y-99090000D01*
X153292500Y-99090000D02*
X153292500Y-94880000D01*
D13*
X145422500Y-100100000D02*
G75*
G02*
X145362500Y-100100000I-30000J0D01*
G01*
X145362500Y-100100000D02*
G75*
G02*
X145422500Y-100100000I30000J0D01*
G01*
%TO.C,R16*%
D11*
X154406141Y-104750000D02*
X154098859Y-104750000D01*
X154406141Y-105510000D02*
X154098859Y-105510000D01*
%TO.C,R6*%
X143738859Y-95120000D02*
X144046141Y-95120000D01*
X143738859Y-95880000D02*
X144046141Y-95880000D01*
%TO.C,C9*%
X143774664Y-94030000D02*
X143990336Y-94030000D01*
X143774664Y-94750000D02*
X143990336Y-94750000D01*
%TO.C,R17*%
X152406141Y-104750000D02*
X152098859Y-104750000D01*
X152406141Y-105510000D02*
X152098859Y-105510000D01*
%TO.C,C2*%
X143192500Y-100930580D02*
X143192500Y-100649420D01*
X144212500Y-100930580D02*
X144212500Y-100649420D01*
%TO.C,R15*%
X151482500Y-109356359D02*
X151482500Y-109663641D01*
X152242500Y-109356359D02*
X152242500Y-109663641D01*
D14*
%TO.C,G\u002A\u002A\u002A*%
G36*
X150370458Y-106547048D02*
G01*
X150500015Y-106548418D01*
X150505824Y-106574059D01*
X150506736Y-106578175D01*
X150510760Y-106597510D01*
X150515482Y-106621483D01*
X150520063Y-106645854D01*
X150522774Y-106660661D01*
X150530834Y-106704154D01*
X150537441Y-106738744D01*
X150542795Y-106765365D01*
X150547098Y-106784948D01*
X150550552Y-106798426D01*
X150553359Y-106806730D01*
X150555719Y-106810794D01*
X150561228Y-106814069D01*
X150574935Y-106820605D01*
X150595061Y-106829511D01*
X150619966Y-106840061D01*
X150648010Y-106851532D01*
X150674001Y-106861931D01*
X150698189Y-106871343D01*
X150715589Y-106877576D01*
X150727676Y-106881040D01*
X150735926Y-106882143D01*
X150741814Y-106881293D01*
X150746816Y-106878900D01*
X150746849Y-106878880D01*
X150756557Y-106872683D01*
X150772945Y-106861832D01*
X150794273Y-106847507D01*
X150818802Y-106830893D01*
X150844791Y-106813170D01*
X150870503Y-106795522D01*
X150894198Y-106779130D01*
X150914136Y-106765177D01*
X150919233Y-106761625D01*
X150935445Y-106750971D01*
X150948205Y-106743526D01*
X150955108Y-106740726D01*
X150959641Y-106743369D01*
X150970404Y-106752366D01*
X150985916Y-106766565D01*
X151004959Y-106784736D01*
X151026318Y-106805653D01*
X151048775Y-106828086D01*
X151071115Y-106850810D01*
X151092121Y-106872595D01*
X151110577Y-106892214D01*
X151125265Y-106908440D01*
X151134971Y-106920044D01*
X151138476Y-106925799D01*
X151137801Y-106929225D01*
X151132628Y-106940520D01*
X151124029Y-106954059D01*
X151108337Y-106976120D01*
X151090504Y-107001803D01*
X151072046Y-107028883D01*
X151053891Y-107055957D01*
X151036962Y-107081622D01*
X151022185Y-107104475D01*
X151010485Y-107123113D01*
X151002786Y-107136135D01*
X151000015Y-107142136D01*
X151001681Y-107148947D01*
X151006787Y-107163615D01*
X151014557Y-107184001D01*
X151024198Y-107208203D01*
X151034919Y-107234322D01*
X151045930Y-107260458D01*
X151056439Y-107284709D01*
X151065655Y-107305176D01*
X151072788Y-107319959D01*
X151077045Y-107327157D01*
X151079789Y-107328333D01*
X151091455Y-107331477D01*
X151110839Y-107335932D01*
X151136490Y-107341384D01*
X151166957Y-107347518D01*
X151200792Y-107354019D01*
X151222416Y-107358100D01*
X151254569Y-107364249D01*
X151282582Y-107369704D01*
X151304970Y-107374171D01*
X151320247Y-107377356D01*
X151326924Y-107378965D01*
X151327068Y-107379040D01*
X151329160Y-107385355D01*
X151330869Y-107400128D01*
X151332196Y-107421670D01*
X151333142Y-107448298D01*
X151333705Y-107478322D01*
X151333886Y-107510059D01*
X151333684Y-107541820D01*
X151333100Y-107571920D01*
X151332133Y-107598672D01*
X151330784Y-107620390D01*
X151329052Y-107635387D01*
X151326938Y-107641976D01*
X151324696Y-107642966D01*
X151313436Y-107646081D01*
X151294371Y-107650466D01*
X151269026Y-107655793D01*
X151238928Y-107661737D01*
X151205602Y-107667969D01*
X151188443Y-107671154D01*
X151156541Y-107677417D01*
X151128636Y-107683339D01*
X151106256Y-107688571D01*
X151090929Y-107692767D01*
X151084183Y-107695578D01*
X151083364Y-107696705D01*
X151078620Y-107705915D01*
X151071193Y-107722279D01*
X151061834Y-107743953D01*
X151051290Y-107769098D01*
X151040312Y-107795872D01*
X151029650Y-107822433D01*
X151020052Y-107846942D01*
X151012269Y-107867557D01*
X151007049Y-107882436D01*
X151005143Y-107889739D01*
X151005979Y-107891906D01*
X151011601Y-107901714D01*
X151021819Y-107917978D01*
X151035808Y-107939426D01*
X151052746Y-107964785D01*
X151071809Y-107992783D01*
X151082114Y-108007889D01*
X151100194Y-108034956D01*
X151115700Y-108058898D01*
X151127801Y-108078397D01*
X151135669Y-108092135D01*
X151138476Y-108098794D01*
X151136687Y-108102365D01*
X151128569Y-108112754D01*
X151114807Y-108128414D01*
X151096404Y-108148247D01*
X151074361Y-108171157D01*
X151049682Y-108196046D01*
X151031504Y-108214033D01*
X151008326Y-108236702D01*
X150988233Y-108256052D01*
X150972261Y-108271096D01*
X150961449Y-108280846D01*
X150956836Y-108284316D01*
X150954125Y-108283421D01*
X150944539Y-108278183D01*
X150931527Y-108269820D01*
X150925275Y-108265552D01*
X150910340Y-108255335D01*
X150890580Y-108241791D01*
X150865087Y-108224299D01*
X150832956Y-108202238D01*
X150793280Y-108174985D01*
X150788195Y-108171540D01*
X150771744Y-108161061D01*
X150758711Y-108153738D01*
X150751551Y-108150982D01*
X150748158Y-108151832D01*
X150736665Y-108156578D01*
X150719891Y-108164562D01*
X150700150Y-108174715D01*
X150689154Y-108180501D01*
X150671640Y-108189136D01*
X150660298Y-108193436D01*
X150653318Y-108193988D01*
X150648891Y-108191381D01*
X150648283Y-108190621D01*
X150643316Y-108181706D01*
X150635726Y-108165659D01*
X150626434Y-108144490D01*
X150616359Y-108120213D01*
X150606549Y-108096008D01*
X150592198Y-108060806D01*
X150577674Y-108025368D01*
X150564971Y-107994572D01*
X150561107Y-107985245D01*
X150548694Y-107955257D01*
X150534400Y-107920698D01*
X150519704Y-107885140D01*
X150506083Y-107852157D01*
X150472698Y-107771279D01*
X150512573Y-107740925D01*
X150539631Y-107718949D01*
X150576008Y-107682757D01*
X150603181Y-107645210D01*
X150621794Y-107605116D01*
X150632490Y-107561284D01*
X150635912Y-107512521D01*
X150635580Y-107497009D01*
X150629217Y-107447514D01*
X150614331Y-107402866D01*
X150590354Y-107361703D01*
X150556718Y-107322662D01*
X150541747Y-107308803D01*
X150500778Y-107279626D01*
X150456916Y-107259332D01*
X150411252Y-107247653D01*
X150364881Y-107244319D01*
X150318896Y-107249062D01*
X150274389Y-107261613D01*
X150232454Y-107281701D01*
X150194185Y-107309059D01*
X150160674Y-107343417D01*
X150133015Y-107384506D01*
X150112302Y-107432057D01*
X150104799Y-107463031D01*
X150100936Y-107504254D01*
X150102622Y-107546138D01*
X150109928Y-107584316D01*
X150113983Y-107597303D01*
X150131848Y-107639298D01*
X150156226Y-107676679D01*
X150188362Y-107711110D01*
X150229502Y-107744259D01*
X150232581Y-107746501D01*
X150247291Y-107758169D01*
X150257641Y-107767979D01*
X150261553Y-107774000D01*
X150260610Y-107777864D01*
X150256306Y-107790236D01*
X150249121Y-107809109D01*
X150239718Y-107832756D01*
X150228760Y-107859447D01*
X150217190Y-107887295D01*
X150202070Y-107923817D01*
X150185606Y-107963696D01*
X150169117Y-108003732D01*
X150153925Y-108040726D01*
X150140802Y-108072670D01*
X150125077Y-108110663D01*
X150112523Y-108140537D01*
X150102773Y-108163122D01*
X150095458Y-108179246D01*
X150090211Y-108189737D01*
X150086663Y-108195425D01*
X150084446Y-108197136D01*
X150081883Y-108196275D01*
X150071662Y-108191639D01*
X150055806Y-108183892D01*
X150036450Y-108174059D01*
X150024459Y-108167975D01*
X150006342Y-108159229D01*
X149992708Y-108153218D01*
X149985843Y-108150982D01*
X149985249Y-108151116D01*
X149977763Y-108155043D01*
X149963513Y-108163767D01*
X149943862Y-108176415D01*
X149920175Y-108192111D01*
X149893813Y-108209983D01*
X149889725Y-108212782D01*
X149862817Y-108231098D01*
X149838147Y-108247716D01*
X149817266Y-108261604D01*
X149801725Y-108271728D01*
X149793073Y-108277056D01*
X149778439Y-108285129D01*
X149691405Y-108198825D01*
X149675552Y-108183043D01*
X149652224Y-108159578D01*
X149631912Y-108138855D01*
X149615691Y-108121987D01*
X149604637Y-108110082D01*
X149599826Y-108104253D01*
X149599186Y-108102810D01*
X149598857Y-108099454D01*
X149600137Y-108094558D01*
X149603560Y-108087265D01*
X149609660Y-108076717D01*
X149618973Y-108062056D01*
X149632032Y-108042427D01*
X149649373Y-108016970D01*
X149671530Y-107984828D01*
X149699038Y-107945144D01*
X149711877Y-107926269D01*
X149723025Y-107909098D01*
X149730572Y-107896559D01*
X149733348Y-107890516D01*
X149733012Y-107888697D01*
X149729663Y-107878416D01*
X149723324Y-107861279D01*
X149714735Y-107839103D01*
X149704638Y-107813709D01*
X149693774Y-107786915D01*
X149682886Y-107760540D01*
X149672713Y-107736404D01*
X149663998Y-107716325D01*
X149657483Y-107702123D01*
X149653908Y-107695616D01*
X149652472Y-107694711D01*
X149642371Y-107691293D01*
X149624320Y-107686635D01*
X149599877Y-107681099D01*
X149570603Y-107675043D01*
X149538055Y-107668830D01*
X149526052Y-107666625D01*
X149493941Y-107660686D01*
X149465292Y-107655330D01*
X149441760Y-107650871D01*
X149425004Y-107647620D01*
X149416681Y-107645893D01*
X149405143Y-107643095D01*
X149405143Y-107512262D01*
X149405218Y-107474419D01*
X149405510Y-107441511D01*
X149406075Y-107416815D01*
X149406972Y-107399259D01*
X149408255Y-107387771D01*
X149409983Y-107381281D01*
X149412212Y-107378717D01*
X149415241Y-107377910D01*
X149427467Y-107375259D01*
X149447371Y-107371228D01*
X149473449Y-107366115D01*
X149504197Y-107360217D01*
X149538113Y-107353832D01*
X149559422Y-107349819D01*
X149591053Y-107343716D01*
X149618338Y-107338273D01*
X149639840Y-107333784D01*
X149654123Y-107330545D01*
X149659753Y-107328851D01*
X149660353Y-107328036D01*
X149664709Y-107319642D01*
X149671905Y-107304099D01*
X149681163Y-107283244D01*
X149691708Y-107258912D01*
X149702761Y-107232940D01*
X149713547Y-107207164D01*
X149723288Y-107183421D01*
X149731208Y-107163548D01*
X149736530Y-107149380D01*
X149738476Y-107142755D01*
X149737764Y-107140558D01*
X149732338Y-107130510D01*
X149722272Y-107114026D01*
X149708399Y-107092417D01*
X149691551Y-107066993D01*
X149672562Y-107039065D01*
X149663372Y-107025687D01*
X149644727Y-106998385D01*
X149628238Y-106974031D01*
X149614826Y-106953995D01*
X149605411Y-106939649D01*
X149600915Y-106932364D01*
X149599769Y-106929213D01*
X149600103Y-106924666D01*
X149603090Y-106918519D01*
X149609507Y-106909835D01*
X149620128Y-106897684D01*
X149635726Y-106881130D01*
X149657078Y-106859241D01*
X149684957Y-106831082D01*
X149704269Y-106811797D01*
X149727677Y-106788849D01*
X149748132Y-106769279D01*
X149764578Y-106754075D01*
X149775962Y-106744228D01*
X149781229Y-106740726D01*
X149785156Y-106742304D01*
X149796632Y-106748861D01*
X149813828Y-106759622D01*
X149835213Y-106773623D01*
X149859255Y-106789898D01*
X149883525Y-106806589D01*
X149916864Y-106829504D01*
X149943241Y-106847524D01*
X149963602Y-106861190D01*
X149978887Y-106871045D01*
X149990039Y-106877630D01*
X149998000Y-106881487D01*
X150003714Y-106883158D01*
X150008122Y-106883185D01*
X150012168Y-106882110D01*
X150016792Y-106880475D01*
X150026067Y-106877231D01*
X150045440Y-106869926D01*
X150068718Y-106860719D01*
X150093981Y-106850418D01*
X150119305Y-106839829D01*
X150142771Y-106829761D01*
X150162455Y-106821020D01*
X150176436Y-106814414D01*
X150182792Y-106810749D01*
X150184081Y-106808070D01*
X150187486Y-106796325D01*
X150192110Y-106776837D01*
X150197624Y-106751103D01*
X150203700Y-106720618D01*
X150210008Y-106686880D01*
X150213510Y-106667737D01*
X150219668Y-106634982D01*
X150225330Y-106605973D01*
X150230175Y-106582297D01*
X150233884Y-106565545D01*
X150236135Y-106557304D01*
X150240901Y-106545678D01*
X150370458Y-106547048D01*
G37*
%TO.C,C13*%
D11*
X149472500Y-109412164D02*
X149472500Y-109627836D01*
X150192500Y-109412164D02*
X150192500Y-109627836D01*
%TO.C,R1*%
X144046141Y-96190000D02*
X143738859Y-96190000D01*
X144046141Y-96950000D02*
X143738859Y-96950000D01*
%TO.C,U1*%
X152462500Y-99430000D02*
X152462500Y-99480000D01*
X152462500Y-102500000D02*
X152462500Y-102550000D01*
X152462500Y-102550000D02*
X154282500Y-102550000D01*
X154282500Y-99430000D02*
X152462500Y-99430000D01*
X154282500Y-99480000D02*
X154282500Y-99430000D01*
X154282500Y-101380000D02*
X154282500Y-100600000D01*
X154282500Y-102550000D02*
X154282500Y-102500000D01*
X152162500Y-102830000D02*
X151682500Y-102830000D01*
X151922500Y-102500000D01*
X152162500Y-102830000D01*
G36*
X152162500Y-102830000D02*
G01*
X151682500Y-102830000D01*
X151922500Y-102500000D01*
X152162500Y-102830000D01*
G37*
%TO.C,D5*%
X152397500Y-103015000D02*
X154682500Y-103015000D01*
X152397500Y-104485000D02*
X152397500Y-103015000D01*
X154682500Y-104485000D02*
X152397500Y-104485000D01*
%TO.C,U3*%
D15*
X143592500Y-102460000D02*
X148752500Y-102460000D01*
X143592500Y-102660000D02*
X143592500Y-102460000D01*
X143592500Y-107420000D02*
X143592500Y-107620000D01*
X143592500Y-107620000D02*
X148752500Y-107620000D01*
X148752500Y-102460000D02*
X148752500Y-102660000D01*
X148752500Y-107620000D02*
X148752500Y-107420000D01*
D13*
X143702500Y-102540000D02*
G75*
G02*
X143642500Y-102540000I-30000J0D01*
G01*
X143642500Y-102540000D02*
G75*
G02*
X143702500Y-102540000I30000J0D01*
G01*
%TO.C,R11*%
D11*
X151412500Y-103703641D02*
X151412500Y-103396359D01*
X152172500Y-103703641D02*
X152172500Y-103396359D01*
%TO.C,C7*%
X153842500Y-98182164D02*
X153842500Y-98397836D01*
X154562500Y-98182164D02*
X154562500Y-98397836D01*
%TO.C,Q5*%
X152612500Y-105930000D02*
X152612500Y-106930000D01*
X152612500Y-108050000D02*
X152612500Y-109050000D01*
X152612500Y-109050000D02*
X154132500Y-109050000D01*
X154132500Y-105930000D02*
X152612500Y-105930000D01*
X154132500Y-105980000D02*
X154132500Y-105930000D01*
X154132500Y-107880000D02*
X154132500Y-107100000D01*
X154132500Y-109050000D02*
X154132500Y-109000000D01*
X154912500Y-107440000D02*
X154432500Y-107440000D01*
X154672500Y-107110000D01*
X154912500Y-107440000D01*
G36*
X154912500Y-107440000D02*
G01*
X154432500Y-107440000D01*
X154672500Y-107110000D01*
X154912500Y-107440000D01*
G37*
%TD*%
M02*
