%TF.GenerationSoftware,KiCad,Pcbnew,10.0.0*%
%TF.CreationDate,2026-09-04T04:11:43+03:00*%
%TF.ProjectId,Trochi,54726f63-6869-42e6-9b69-6361645f7063,v2.0*%
%TF.SameCoordinates,Original*%
%TF.FileFunction,Legend,Bot*%
%TF.FilePolarity,Positive*%
%FSLAX46Y46*%
G04 Gerber Fmt 4.6, Leading zero omitted, Abs format (unit mm)*
G04 Created by KiCad (PCBNEW 10.0.0) date 2026-09-04 04:11:43*
%MOMM*%
%LPD*%
G01*
G04 APERTURE LIST*
%ADD10C,0.500000*%
%ADD11C,0.000000*%
%ADD12C,0.120000*%
%ADD13C,0.250000*%
%ADD14C,0.060000*%
%ADD15C,0.150000*%
G04 APERTURE END LIST*
D10*
X144414862Y-92277333D02*
X142891053Y-92277333D01*
X155504862Y-92327333D02*
X153981053Y-92327333D01*
X154742957Y-93089238D02*
X154742957Y-91565428D01*
D11*
%TO.C,G\u002A\u002A\u002A*%
G36*
X144050755Y-110462879D02*
G01*
X144040971Y-110489332D01*
X144036842Y-110521678D01*
X144045450Y-110556301D01*
X144050684Y-110573174D01*
X144052951Y-110580483D01*
X144052470Y-110603910D01*
X144037557Y-110625588D01*
X144029454Y-110637442D01*
X144015808Y-110676538D01*
X144008350Y-110726190D01*
X144007489Y-110777563D01*
X144013631Y-110821823D01*
X144025470Y-110846555D01*
X144027185Y-110850137D01*
X144039366Y-110860948D01*
X144048906Y-110861018D01*
X144057090Y-110843901D01*
X144058714Y-110837967D01*
X144088196Y-110837967D01*
X144088522Y-110852699D01*
X144093700Y-110854196D01*
X144107273Y-110842048D01*
X144121397Y-110815490D01*
X144131752Y-110781626D01*
X144134086Y-110766846D01*
X144132556Y-110744187D01*
X144123349Y-110742068D01*
X144110331Y-110759107D01*
X144097371Y-110793920D01*
X144093930Y-110807540D01*
X144088196Y-110837967D01*
X144058714Y-110837967D01*
X144067588Y-110805548D01*
X144072849Y-110785251D01*
X144084387Y-110746225D01*
X144095158Y-110725068D01*
X144108831Y-110716353D01*
X144129079Y-110714654D01*
X144132803Y-110714550D01*
X144147806Y-110709957D01*
X144160232Y-110694952D01*
X144173023Y-110664600D01*
X144189124Y-110613964D01*
X144212088Y-110528921D01*
X144224212Y-110457822D01*
X144224502Y-110397961D01*
X144212965Y-110343293D01*
X144189612Y-110287773D01*
X144188745Y-110286050D01*
X144169704Y-110244315D01*
X144158154Y-110211419D01*
X144156566Y-110194353D01*
X144156678Y-110194175D01*
X144173203Y-110179670D01*
X144201586Y-110162520D01*
X144238838Y-110143256D01*
X144307312Y-110263303D01*
X144324172Y-110292734D01*
X144357617Y-110350778D01*
X144399520Y-110423233D01*
X144447139Y-110505368D01*
X144497736Y-110592455D01*
X144548570Y-110679764D01*
X144592944Y-110756078D01*
X144599172Y-110766846D01*
X144634605Y-110828113D01*
X144669989Y-110889701D01*
X144697384Y-110937847D01*
X144715077Y-110969556D01*
X144721356Y-110981836D01*
X144721354Y-110981847D01*
X144708401Y-110982754D01*
X144671507Y-110983606D01*
X144612689Y-110984390D01*
X144533967Y-110985096D01*
X144437358Y-110985713D01*
X144324882Y-110986231D01*
X144198557Y-110986637D01*
X144060402Y-110986921D01*
X143912435Y-110987073D01*
X143756675Y-110987080D01*
X143651262Y-110987018D01*
X143481385Y-110986821D01*
X143335023Y-110986486D01*
X143210587Y-110985983D01*
X143106492Y-110985280D01*
X143021151Y-110984347D01*
X142952978Y-110983152D01*
X142900385Y-110981666D01*
X142861786Y-110979857D01*
X142835594Y-110977695D01*
X142820222Y-110975148D01*
X142814085Y-110972185D01*
X142815595Y-110968776D01*
X142821865Y-110964466D01*
X142849866Y-110947116D01*
X142894708Y-110920477D01*
X142953113Y-110886408D01*
X143021803Y-110846766D01*
X143096147Y-110804183D01*
X143656860Y-110804183D01*
X143669434Y-110845432D01*
X143672774Y-110850805D01*
X143695750Y-110867768D01*
X143721393Y-110867578D01*
X143739199Y-110849609D01*
X143740223Y-110844843D01*
X143735461Y-110817504D01*
X143719750Y-110784177D01*
X143707212Y-110765748D01*
X143769935Y-110765748D01*
X143771037Y-110771861D01*
X143784261Y-110805104D01*
X143806325Y-110840453D01*
X143810686Y-110844843D01*
X143838147Y-110872490D01*
X143868055Y-110884439D01*
X143889515Y-110875135D01*
X143898345Y-110846555D01*
X143890366Y-110800680D01*
X143890193Y-110800157D01*
X143869262Y-110755429D01*
X143841567Y-110733154D01*
X143802934Y-110729956D01*
X143790457Y-110731867D01*
X143772076Y-110742093D01*
X143769935Y-110765748D01*
X143707212Y-110765748D01*
X143704425Y-110761651D01*
X143688764Y-110749293D01*
X143674123Y-110754752D01*
X143663071Y-110768649D01*
X143656860Y-110804183D01*
X143096147Y-110804183D01*
X143097500Y-110803408D01*
X143176926Y-110758193D01*
X143238052Y-110723593D01*
X143567415Y-110723593D01*
X143573426Y-110751069D01*
X143574775Y-110753158D01*
X143598184Y-110774102D01*
X143623011Y-110769292D01*
X143648475Y-110738857D01*
X143654994Y-110727743D01*
X143665724Y-110704842D01*
X143662030Y-110690170D01*
X143643032Y-110673097D01*
X143618213Y-110657593D01*
X143598801Y-110653575D01*
X143586966Y-110662458D01*
X143572978Y-110690026D01*
X143567415Y-110723593D01*
X143238052Y-110723593D01*
X143256803Y-110712979D01*
X143333853Y-110669624D01*
X143404798Y-110629985D01*
X143466359Y-110595921D01*
X143515260Y-110569289D01*
X143548221Y-110551948D01*
X143561964Y-110545754D01*
X143567611Y-110548419D01*
X143589127Y-110565897D01*
X143621076Y-110596090D01*
X143658861Y-110634775D01*
X143690664Y-110668039D01*
X143720128Y-110696453D01*
X143731957Y-110704842D01*
X143739816Y-110710416D01*
X143753976Y-110712739D01*
X143766856Y-110706232D01*
X143808629Y-110689391D01*
X143852340Y-110695110D01*
X143888904Y-110722903D01*
X143890028Y-110724347D01*
X143908290Y-110753006D01*
X143915831Y-110774872D01*
X143917020Y-110782221D01*
X143928977Y-110792608D01*
X143929431Y-110792591D01*
X143936619Y-110780787D01*
X143935587Y-110751519D01*
X143927602Y-110711246D01*
X143913930Y-110666429D01*
X143895837Y-110623529D01*
X143879281Y-110596004D01*
X143874114Y-110589341D01*
X143936237Y-110589341D01*
X143941532Y-110616467D01*
X143953274Y-110638947D01*
X143966208Y-110649693D01*
X143979722Y-110639009D01*
X143991187Y-110610636D01*
X143997692Y-110573174D01*
X143996921Y-110535244D01*
X143990632Y-110492394D01*
X143959766Y-110537817D01*
X143945104Y-110561533D01*
X143936237Y-110589341D01*
X143874114Y-110589341D01*
X143844063Y-110550585D01*
X143804766Y-110510299D01*
X143795217Y-110501720D01*
X143764258Y-110468900D01*
X143755248Y-110444214D01*
X143768101Y-110423049D01*
X143802732Y-110400788D01*
X143807218Y-110398629D01*
X143831844Y-110397740D01*
X143845383Y-110416842D01*
X143844255Y-110451560D01*
X143843023Y-110470265D01*
X143851030Y-110480793D01*
X143854004Y-110480570D01*
X143869498Y-110467479D01*
X143873134Y-110440506D01*
X143863403Y-110408478D01*
X143859482Y-110400544D01*
X143853409Y-110375255D01*
X143862575Y-110366404D01*
X143884418Y-110377740D01*
X143895226Y-110391262D01*
X143901306Y-110418642D01*
X143899904Y-110464042D01*
X143898803Y-110507209D01*
X143904046Y-110529345D01*
X143914881Y-110527944D01*
X143930438Y-110501926D01*
X143936666Y-110479974D01*
X143933165Y-110451110D01*
X143917167Y-110409329D01*
X143911982Y-110397577D01*
X143955269Y-110397577D01*
X143960233Y-110423803D01*
X143972106Y-110451136D01*
X143986169Y-110470155D01*
X143997708Y-110472538D01*
X144005960Y-110456491D01*
X144002004Y-110426155D01*
X143980793Y-110396342D01*
X143964952Y-110382669D01*
X143956370Y-110380955D01*
X143955269Y-110397577D01*
X143911982Y-110397577D01*
X143909891Y-110392838D01*
X143895735Y-110358899D01*
X143891936Y-110342216D01*
X143898319Y-110337972D01*
X143914711Y-110341348D01*
X143931920Y-110341640D01*
X143945975Y-110323375D01*
X143950709Y-110313639D01*
X143967558Y-110300976D01*
X143985458Y-110299359D01*
X143993785Y-110311440D01*
X143995377Y-110316794D01*
X144009249Y-110339038D01*
X144032747Y-110368355D01*
X144050256Y-110388779D01*
X144063328Y-110410288D01*
X144062777Y-110431223D01*
X144053181Y-110456491D01*
X144050755Y-110462879D01*
G37*
G36*
X143126877Y-110150920D02*
G01*
X143159466Y-110162872D01*
X143202437Y-110187723D01*
X143228912Y-110224988D01*
X143232343Y-110231972D01*
X143254223Y-110263969D01*
X143287874Y-110304238D01*
X143327544Y-110345741D01*
X143343491Y-110361525D01*
X143377061Y-110396459D01*
X143400325Y-110423161D01*
X143408987Y-110436828D01*
X143406211Y-110439839D01*
X143385044Y-110454637D01*
X143345315Y-110479766D01*
X143289731Y-110513587D01*
X143221003Y-110554463D01*
X143141838Y-110600757D01*
X143054947Y-110650831D01*
X143010250Y-110676363D01*
X142926752Y-110723801D01*
X142852109Y-110765872D01*
X142789055Y-110801055D01*
X142740322Y-110827829D01*
X142708642Y-110844677D01*
X142696748Y-110850077D01*
X142697343Y-110841767D01*
X142706930Y-110819742D01*
X142716818Y-110802274D01*
X142737517Y-110766517D01*
X142766928Y-110716064D01*
X142803065Y-110654290D01*
X142843942Y-110584569D01*
X142887575Y-110510276D01*
X142931978Y-110434787D01*
X142975167Y-110361475D01*
X143015156Y-110293715D01*
X143049960Y-110234883D01*
X143077595Y-110188352D01*
X143096075Y-110157499D01*
X143103415Y-110145696D01*
X143106382Y-110145457D01*
X143126877Y-110150920D01*
G37*
G36*
X143671853Y-109186812D02*
G01*
X143687841Y-109211453D01*
X143713697Y-109253523D01*
X143747653Y-109309977D01*
X143787939Y-109377776D01*
X143832786Y-109453877D01*
X143880424Y-109535239D01*
X143929084Y-109618819D01*
X143976997Y-109701576D01*
X144022393Y-109780469D01*
X144063503Y-109852455D01*
X144098557Y-109914493D01*
X144125786Y-109963542D01*
X144143422Y-109996559D01*
X144149693Y-110010503D01*
X144142734Y-110021343D01*
X144120460Y-110036189D01*
X144119171Y-110036808D01*
X144084656Y-110049325D01*
X144061497Y-110044263D01*
X144040572Y-110019746D01*
X144027268Y-110001497D01*
X144007591Y-109982600D01*
X143981397Y-109967648D01*
X143944809Y-109955416D01*
X143893954Y-109944678D01*
X143824955Y-109934210D01*
X143733939Y-109922786D01*
X143674648Y-109915474D01*
X143600517Y-109905634D01*
X143536046Y-109896306D01*
X143486623Y-109888277D01*
X143457636Y-109882337D01*
X143428362Y-109870451D01*
X143390779Y-109848418D01*
X143355168Y-109822297D01*
X143328610Y-109797344D01*
X143318184Y-109778814D01*
X143319357Y-109775221D01*
X143330605Y-109752705D01*
X143352073Y-109713336D01*
X143381663Y-109660701D01*
X143417279Y-109598385D01*
X143456823Y-109529972D01*
X143498200Y-109459048D01*
X143539311Y-109389199D01*
X143578060Y-109324010D01*
X143612350Y-109267066D01*
X143640083Y-109221953D01*
X143659164Y-109192256D01*
X143667495Y-109181560D01*
X143671853Y-109186812D01*
G37*
G36*
X154514639Y-109498379D02*
G01*
X154544057Y-109500212D01*
X154568993Y-109502995D01*
X154627877Y-109513925D01*
X154694279Y-109531998D01*
X154757791Y-109555684D01*
X154818164Y-109584890D01*
X154875151Y-109619521D01*
X154927005Y-109657775D01*
X154978652Y-109703313D01*
X155025367Y-109752791D01*
X155066987Y-109805930D01*
X155103351Y-109862447D01*
X155134298Y-109922061D01*
X155159665Y-109984491D01*
X155179291Y-110049456D01*
X155193014Y-110116674D01*
X155200673Y-110185864D01*
X155201628Y-110208831D01*
X155201771Y-110235605D01*
X155201112Y-110263395D01*
X155199720Y-110290341D01*
X155197668Y-110314580D01*
X155195025Y-110334251D01*
X155185696Y-110382702D01*
X155174135Y-110430642D01*
X155160632Y-110474737D01*
X155144674Y-110516308D01*
X155125749Y-110556678D01*
X155103346Y-110597168D01*
X155076952Y-110639102D01*
X155065687Y-110655568D01*
X155025476Y-110707172D01*
X154980588Y-110754948D01*
X154931536Y-110798572D01*
X154878832Y-110837718D01*
X154822990Y-110872062D01*
X154764521Y-110901280D01*
X154703938Y-110925046D01*
X154641754Y-110943036D01*
X154578482Y-110954924D01*
X154565145Y-110956755D01*
X154550494Y-110958769D01*
X154538771Y-110960383D01*
X154531707Y-110961360D01*
X154528431Y-110961717D01*
X154515919Y-110962329D01*
X154498764Y-110962505D01*
X154478261Y-110962292D01*
X154455707Y-110961733D01*
X154432397Y-110960874D01*
X154409628Y-110959760D01*
X154388693Y-110958434D01*
X154370890Y-110956943D01*
X154357514Y-110955331D01*
X154355243Y-110954976D01*
X154289491Y-110941379D01*
X154224889Y-110921663D01*
X154162108Y-110896136D01*
X154101816Y-110865104D01*
X154044685Y-110828874D01*
X153991385Y-110787753D01*
X153981412Y-110778894D01*
X153966919Y-110764999D01*
X153951320Y-110749115D01*
X153935175Y-110731902D01*
X153919048Y-110714021D01*
X153903497Y-110696133D01*
X153889085Y-110678899D01*
X153876372Y-110662979D01*
X153865920Y-110649035D01*
X153858290Y-110637726D01*
X153854043Y-110629714D01*
X153853739Y-110625660D01*
X153856273Y-110626408D01*
X153862025Y-110630817D01*
X153869514Y-110637972D01*
X153908542Y-110674379D01*
X153954717Y-110709410D01*
X154004879Y-110740134D01*
X154058302Y-110766156D01*
X154114261Y-110787081D01*
X154172030Y-110802516D01*
X154173246Y-110802776D01*
X154184920Y-110805101D01*
X154195983Y-110806862D01*
X154207611Y-110808135D01*
X154220981Y-110809000D01*
X154237272Y-110809534D01*
X154257659Y-110809817D01*
X154283320Y-110809926D01*
X154290946Y-110809935D01*
X154314868Y-110809875D01*
X154333885Y-110809610D01*
X154349211Y-110809060D01*
X154362056Y-110808145D01*
X154373634Y-110806786D01*
X154385157Y-110804904D01*
X154397836Y-110802419D01*
X154414104Y-110798840D01*
X154473210Y-110781813D01*
X154529470Y-110759221D01*
X154582570Y-110731343D01*
X154632193Y-110698460D01*
X154678025Y-110660849D01*
X154719750Y-110618791D01*
X154757052Y-110572565D01*
X154789616Y-110522450D01*
X154817127Y-110468725D01*
X154839268Y-110411670D01*
X154842680Y-110400985D01*
X154857314Y-110343065D01*
X154865781Y-110284764D01*
X154868256Y-110226507D01*
X154864915Y-110168719D01*
X154855933Y-110111827D01*
X154841485Y-110056254D01*
X154821747Y-110002428D01*
X154796893Y-109950772D01*
X154767101Y-109901713D01*
X154732543Y-109855675D01*
X154693397Y-109813085D01*
X154649837Y-109774367D01*
X154602038Y-109739947D01*
X154550176Y-109710251D01*
X154542557Y-109706470D01*
X154486655Y-109682671D01*
X154429466Y-109664956D01*
X154371432Y-109653260D01*
X154312997Y-109647517D01*
X154254601Y-109647664D01*
X154196687Y-109653634D01*
X154139698Y-109665364D01*
X154084074Y-109682787D01*
X154030260Y-109705840D01*
X153978695Y-109734456D01*
X153929824Y-109768572D01*
X153884087Y-109808122D01*
X153874520Y-109817062D01*
X153864113Y-109826048D01*
X153856777Y-109831448D01*
X153852901Y-109833033D01*
X153852874Y-109830577D01*
X153857085Y-109823853D01*
X153861809Y-109817217D01*
X153867910Y-109808444D01*
X153874509Y-109799248D01*
X153887343Y-109782692D01*
X153902533Y-109764197D01*
X153918748Y-109745334D01*
X153934660Y-109727671D01*
X153948941Y-109712776D01*
X153994447Y-109670783D01*
X154048878Y-109628540D01*
X154106305Y-109592009D01*
X154166708Y-109561200D01*
X154230068Y-109536124D01*
X154296365Y-109516791D01*
X154365578Y-109503211D01*
X154388726Y-109500513D01*
X154417784Y-109498564D01*
X154449675Y-109497557D01*
X154482570Y-109497495D01*
X154514639Y-109498379D01*
G37*
G36*
X153641860Y-109894479D02*
G01*
X153642721Y-109901166D01*
X153643487Y-109913953D01*
X153644150Y-109932608D01*
X153644705Y-109956896D01*
X153645142Y-109986588D01*
X153645455Y-110021449D01*
X153645677Y-110049898D01*
X153646006Y-110078846D01*
X153646416Y-110102186D01*
X153646925Y-110120378D01*
X153647550Y-110133884D01*
X153648309Y-110143166D01*
X153649217Y-110148685D01*
X153650294Y-110150903D01*
X153650601Y-110151057D01*
X153655612Y-110152973D01*
X153665923Y-110156628D01*
X153680843Y-110161787D01*
X153699683Y-110168215D01*
X153721755Y-110175676D01*
X153746369Y-110183934D01*
X153772836Y-110192756D01*
X153778910Y-110194776D01*
X153804791Y-110203458D01*
X153828501Y-110211522D01*
X153849379Y-110218737D01*
X153866767Y-110224870D01*
X153880004Y-110229691D01*
X153888430Y-110232965D01*
X153891385Y-110234462D01*
X153891387Y-110234539D01*
X153891549Y-110235136D01*
X153891576Y-110235661D01*
X153890925Y-110236306D01*
X153889052Y-110237262D01*
X153885412Y-110238724D01*
X153879462Y-110240882D01*
X153870657Y-110243931D01*
X153858454Y-110248061D01*
X153842308Y-110253466D01*
X153821675Y-110260338D01*
X153796011Y-110268869D01*
X153764772Y-110279253D01*
X153646224Y-110318668D01*
X153645842Y-110440169D01*
X153645832Y-110443341D01*
X153645762Y-110470567D01*
X153645722Y-110495692D01*
X153645712Y-110517991D01*
X153645731Y-110536738D01*
X153645777Y-110551210D01*
X153645852Y-110560680D01*
X153645953Y-110564423D01*
X153645909Y-110566897D01*
X153644505Y-110573294D01*
X153643181Y-110576796D01*
X153641395Y-110579412D01*
X153640743Y-110578814D01*
X153638132Y-110575630D01*
X153633368Y-110569453D01*
X153626247Y-110560007D01*
X153616561Y-110547013D01*
X153604106Y-110530193D01*
X153588675Y-110509270D01*
X153570062Y-110483967D01*
X153548061Y-110454005D01*
X153522466Y-110419107D01*
X153514697Y-110408631D01*
X153504516Y-110395297D01*
X153495917Y-110384485D01*
X153489626Y-110377104D01*
X153486368Y-110374059D01*
X153486118Y-110374023D01*
X153481221Y-110374915D01*
X153470997Y-110377552D01*
X153456143Y-110381731D01*
X153437353Y-110387247D01*
X153415325Y-110393898D01*
X153390755Y-110401478D01*
X153364337Y-110409786D01*
X153360075Y-110411137D01*
X153333833Y-110419409D01*
X153309507Y-110426995D01*
X153287799Y-110433681D01*
X153269417Y-110439255D01*
X153255063Y-110443500D01*
X153245443Y-110446205D01*
X153241262Y-110447154D01*
X153240261Y-110447042D01*
X153239241Y-110444960D01*
X153241772Y-110439623D01*
X153248187Y-110430218D01*
X153248862Y-110429283D01*
X153255825Y-110419578D01*
X153265209Y-110406420D01*
X153275870Y-110391420D01*
X153286662Y-110376186D01*
X153298122Y-110360024D01*
X153311087Y-110341819D01*
X153323530Y-110324418D01*
X153333855Y-110310057D01*
X153339216Y-110302624D01*
X153350667Y-110286705D01*
X153361954Y-110270969D01*
X153371268Y-110257935D01*
X153387718Y-110234846D01*
X153339788Y-110167613D01*
X153330184Y-110154153D01*
X153316484Y-110134986D01*
X153303701Y-110117141D01*
X153292541Y-110101602D01*
X153283709Y-110089353D01*
X153277911Y-110081377D01*
X153276988Y-110080118D01*
X153263185Y-110061038D01*
X153252099Y-110045204D01*
X153244038Y-110033079D01*
X153239313Y-110025128D01*
X153238230Y-110021814D01*
X153238479Y-110021711D01*
X153242997Y-110022256D01*
X153251737Y-110024348D01*
X153263092Y-110027613D01*
X153265206Y-110028267D01*
X153275478Y-110031485D01*
X153290535Y-110036240D01*
X153309352Y-110042204D01*
X153330899Y-110049049D01*
X153354148Y-110056448D01*
X153378073Y-110064074D01*
X153401645Y-110071598D01*
X153423837Y-110078694D01*
X153443620Y-110085034D01*
X153459967Y-110090290D01*
X153471851Y-110094135D01*
X153476403Y-110095462D01*
X153484261Y-110096897D01*
X153488321Y-110096365D01*
X153490333Y-110093728D01*
X153495713Y-110086483D01*
X153503891Y-110075388D01*
X153514341Y-110061162D01*
X153526534Y-110044522D01*
X153539942Y-110026186D01*
X153551397Y-110010521D01*
X153564476Y-109992671D01*
X153576171Y-109976749D01*
X153585877Y-109963577D01*
X153592991Y-109953976D01*
X153596908Y-109948767D01*
X153597357Y-109948186D01*
X153602289Y-109941787D01*
X153606187Y-109936651D01*
X153610252Y-109931153D01*
X153615686Y-109923670D01*
X153623692Y-109912578D01*
X153625196Y-109910521D01*
X153632327Y-109901540D01*
X153638101Y-109895456D01*
X153641385Y-109893491D01*
X153641860Y-109894479D01*
G37*
G36*
X150336085Y-106189142D02*
G01*
X150465642Y-106190512D01*
X150471451Y-106216153D01*
X150472363Y-106220269D01*
X150476387Y-106239604D01*
X150481109Y-106263577D01*
X150485690Y-106287948D01*
X150488401Y-106302755D01*
X150496461Y-106346248D01*
X150503068Y-106380838D01*
X150508422Y-106407459D01*
X150512725Y-106427042D01*
X150516179Y-106440520D01*
X150518986Y-106448824D01*
X150521346Y-106452888D01*
X150526855Y-106456163D01*
X150540562Y-106462699D01*
X150560688Y-106471605D01*
X150585593Y-106482155D01*
X150613637Y-106493626D01*
X150639628Y-106504025D01*
X150663816Y-106513437D01*
X150681216Y-106519670D01*
X150693303Y-106523134D01*
X150701553Y-106524237D01*
X150707441Y-106523387D01*
X150712443Y-106520994D01*
X150712476Y-106520974D01*
X150722184Y-106514777D01*
X150738572Y-106503926D01*
X150759900Y-106489601D01*
X150784429Y-106472987D01*
X150810418Y-106455264D01*
X150836130Y-106437616D01*
X150859825Y-106421224D01*
X150879763Y-106407271D01*
X150884860Y-106403719D01*
X150901072Y-106393065D01*
X150913832Y-106385620D01*
X150920735Y-106382820D01*
X150925268Y-106385463D01*
X150936031Y-106394460D01*
X150951543Y-106408659D01*
X150970586Y-106426830D01*
X150991945Y-106447747D01*
X151014402Y-106470180D01*
X151036742Y-106492904D01*
X151057748Y-106514689D01*
X151076204Y-106534308D01*
X151090892Y-106550534D01*
X151100598Y-106562138D01*
X151104103Y-106567893D01*
X151103428Y-106571319D01*
X151098255Y-106582614D01*
X151089656Y-106596153D01*
X151073964Y-106618214D01*
X151056131Y-106643897D01*
X151037673Y-106670977D01*
X151019518Y-106698051D01*
X151002589Y-106723716D01*
X150987812Y-106746569D01*
X150976112Y-106765207D01*
X150968413Y-106778229D01*
X150965642Y-106784230D01*
X150967308Y-106791041D01*
X150972414Y-106805709D01*
X150980184Y-106826095D01*
X150989825Y-106850297D01*
X151000546Y-106876416D01*
X151011557Y-106902552D01*
X151022066Y-106926803D01*
X151031282Y-106947270D01*
X151038415Y-106962053D01*
X151042672Y-106969251D01*
X151045416Y-106970427D01*
X151057082Y-106973571D01*
X151076466Y-106978026D01*
X151102117Y-106983478D01*
X151132584Y-106989612D01*
X151166419Y-106996113D01*
X151188043Y-107000194D01*
X151220196Y-107006343D01*
X151248209Y-107011798D01*
X151270597Y-107016265D01*
X151285874Y-107019450D01*
X151292551Y-107021059D01*
X151292695Y-107021134D01*
X151294787Y-107027449D01*
X151296496Y-107042222D01*
X151297823Y-107063764D01*
X151298769Y-107090392D01*
X151299332Y-107120416D01*
X151299513Y-107152153D01*
X151299311Y-107183914D01*
X151298727Y-107214014D01*
X151297760Y-107240766D01*
X151296411Y-107262484D01*
X151294679Y-107277481D01*
X151292565Y-107284070D01*
X151290323Y-107285060D01*
X151279063Y-107288175D01*
X151259998Y-107292560D01*
X151234653Y-107297887D01*
X151204555Y-107303831D01*
X151171229Y-107310063D01*
X151154070Y-107313248D01*
X151122168Y-107319511D01*
X151094263Y-107325433D01*
X151071883Y-107330665D01*
X151056556Y-107334861D01*
X151049810Y-107337672D01*
X151048991Y-107338799D01*
X151044247Y-107348009D01*
X151036820Y-107364373D01*
X151027461Y-107386047D01*
X151016917Y-107411192D01*
X151005939Y-107437966D01*
X150995277Y-107464527D01*
X150985679Y-107489036D01*
X150977896Y-107509651D01*
X150972676Y-107524530D01*
X150970770Y-107531833D01*
X150971606Y-107534000D01*
X150977228Y-107543808D01*
X150987446Y-107560072D01*
X151001435Y-107581520D01*
X151018373Y-107606879D01*
X151037436Y-107634877D01*
X151047741Y-107649983D01*
X151065821Y-107677050D01*
X151081327Y-107700992D01*
X151093428Y-107720491D01*
X151101296Y-107734229D01*
X151104103Y-107740888D01*
X151102314Y-107744459D01*
X151094196Y-107754848D01*
X151080434Y-107770508D01*
X151062031Y-107790341D01*
X151039988Y-107813251D01*
X151015309Y-107838140D01*
X150997131Y-107856127D01*
X150973953Y-107878796D01*
X150953860Y-107898146D01*
X150937888Y-107913190D01*
X150927076Y-107922940D01*
X150922463Y-107926410D01*
X150919752Y-107925515D01*
X150910166Y-107920277D01*
X150897154Y-107911914D01*
X150890902Y-107907646D01*
X150875967Y-107897429D01*
X150856207Y-107883885D01*
X150830714Y-107866393D01*
X150798583Y-107844332D01*
X150758907Y-107817079D01*
X150753822Y-107813634D01*
X150737371Y-107803155D01*
X150724338Y-107795832D01*
X150717178Y-107793076D01*
X150713785Y-107793926D01*
X150702292Y-107798672D01*
X150685518Y-107806656D01*
X150665777Y-107816809D01*
X150654781Y-107822595D01*
X150637267Y-107831230D01*
X150625925Y-107835530D01*
X150618945Y-107836082D01*
X150614518Y-107833475D01*
X150613910Y-107832715D01*
X150608943Y-107823800D01*
X150601353Y-107807753D01*
X150592061Y-107786584D01*
X150581986Y-107762307D01*
X150572176Y-107738102D01*
X150557825Y-107702900D01*
X150543301Y-107667462D01*
X150530598Y-107636666D01*
X150526734Y-107627339D01*
X150514321Y-107597351D01*
X150500027Y-107562792D01*
X150485331Y-107527234D01*
X150471710Y-107494251D01*
X150438325Y-107413373D01*
X150478200Y-107383019D01*
X150505258Y-107361043D01*
X150541635Y-107324851D01*
X150568808Y-107287304D01*
X150587421Y-107247210D01*
X150598117Y-107203378D01*
X150601539Y-107154615D01*
X150601207Y-107139103D01*
X150594844Y-107089608D01*
X150579958Y-107044960D01*
X150555981Y-107003797D01*
X150522345Y-106964756D01*
X150507374Y-106950897D01*
X150466405Y-106921720D01*
X150422543Y-106901426D01*
X150376879Y-106889747D01*
X150330508Y-106886413D01*
X150284523Y-106891156D01*
X150240016Y-106903707D01*
X150198081Y-106923795D01*
X150159812Y-106951153D01*
X150126301Y-106985511D01*
X150098642Y-107026600D01*
X150077929Y-107074151D01*
X150070426Y-107105125D01*
X150066563Y-107146348D01*
X150068249Y-107188232D01*
X150075555Y-107226410D01*
X150079610Y-107239397D01*
X150097475Y-107281392D01*
X150121853Y-107318773D01*
X150153989Y-107353204D01*
X150195129Y-107386353D01*
X150198208Y-107388595D01*
X150212918Y-107400263D01*
X150223268Y-107410073D01*
X150227180Y-107416094D01*
X150226237Y-107419958D01*
X150221933Y-107432330D01*
X150214748Y-107451203D01*
X150205345Y-107474850D01*
X150194387Y-107501541D01*
X150182817Y-107529389D01*
X150167697Y-107565911D01*
X150151233Y-107605790D01*
X150134744Y-107645826D01*
X150119552Y-107682820D01*
X150106429Y-107714764D01*
X150090704Y-107752757D01*
X150078150Y-107782631D01*
X150068400Y-107805216D01*
X150061085Y-107821340D01*
X150055838Y-107831831D01*
X150052290Y-107837519D01*
X150050073Y-107839230D01*
X150047510Y-107838369D01*
X150037289Y-107833733D01*
X150021433Y-107825986D01*
X150002077Y-107816153D01*
X149990086Y-107810069D01*
X149971969Y-107801323D01*
X149958335Y-107795312D01*
X149951470Y-107793076D01*
X149950876Y-107793210D01*
X149943390Y-107797137D01*
X149929140Y-107805861D01*
X149909489Y-107818509D01*
X149885802Y-107834205D01*
X149859440Y-107852077D01*
X149855352Y-107854876D01*
X149828444Y-107873192D01*
X149803774Y-107889810D01*
X149782893Y-107903698D01*
X149767352Y-107913822D01*
X149758700Y-107919150D01*
X149744066Y-107927223D01*
X149657032Y-107840919D01*
X149641179Y-107825137D01*
X149617851Y-107801672D01*
X149597539Y-107780949D01*
X149581318Y-107764081D01*
X149570264Y-107752176D01*
X149565453Y-107746347D01*
X149564813Y-107744904D01*
X149564484Y-107741548D01*
X149565764Y-107736652D01*
X149569187Y-107729359D01*
X149575287Y-107718811D01*
X149584600Y-107704150D01*
X149597659Y-107684521D01*
X149615000Y-107659064D01*
X149637157Y-107626922D01*
X149664665Y-107587238D01*
X149677504Y-107568363D01*
X149688652Y-107551192D01*
X149696199Y-107538653D01*
X149698975Y-107532610D01*
X149698639Y-107530791D01*
X149695290Y-107520510D01*
X149688951Y-107503373D01*
X149680362Y-107481197D01*
X149670265Y-107455803D01*
X149659401Y-107429009D01*
X149648513Y-107402634D01*
X149638340Y-107378498D01*
X149629625Y-107358419D01*
X149623110Y-107344217D01*
X149619535Y-107337710D01*
X149618099Y-107336805D01*
X149607998Y-107333387D01*
X149589947Y-107328729D01*
X149565504Y-107323193D01*
X149536230Y-107317137D01*
X149503682Y-107310924D01*
X149491679Y-107308719D01*
X149459568Y-107302780D01*
X149430919Y-107297424D01*
X149407387Y-107292965D01*
X149390631Y-107289714D01*
X149382308Y-107287987D01*
X149370770Y-107285189D01*
X149370770Y-107154356D01*
X149370845Y-107116513D01*
X149371137Y-107083605D01*
X149371702Y-107058909D01*
X149372599Y-107041353D01*
X149373882Y-107029865D01*
X149375610Y-107023375D01*
X149377839Y-107020811D01*
X149380868Y-107020004D01*
X149393094Y-107017353D01*
X149412998Y-107013322D01*
X149439076Y-107008209D01*
X149469824Y-107002311D01*
X149503740Y-106995926D01*
X149525049Y-106991913D01*
X149556680Y-106985810D01*
X149583965Y-106980367D01*
X149605467Y-106975878D01*
X149619750Y-106972639D01*
X149625380Y-106970945D01*
X149625980Y-106970130D01*
X149630336Y-106961736D01*
X149637532Y-106946193D01*
X149646790Y-106925338D01*
X149657335Y-106901006D01*
X149668388Y-106875034D01*
X149679174Y-106849258D01*
X149688915Y-106825515D01*
X149696835Y-106805642D01*
X149702157Y-106791474D01*
X149704103Y-106784849D01*
X149703391Y-106782652D01*
X149697965Y-106772604D01*
X149687899Y-106756120D01*
X149674026Y-106734511D01*
X149657178Y-106709087D01*
X149638189Y-106681159D01*
X149628999Y-106667781D01*
X149610354Y-106640479D01*
X149593865Y-106616125D01*
X149580453Y-106596089D01*
X149571038Y-106581743D01*
X149566542Y-106574458D01*
X149565396Y-106571307D01*
X149565730Y-106566760D01*
X149568717Y-106560613D01*
X149575134Y-106551929D01*
X149585755Y-106539778D01*
X149601353Y-106523224D01*
X149622705Y-106501335D01*
X149650584Y-106473176D01*
X149669896Y-106453891D01*
X149693304Y-106430943D01*
X149713759Y-106411373D01*
X149730205Y-106396169D01*
X149741589Y-106386322D01*
X149746856Y-106382820D01*
X149750783Y-106384398D01*
X149762259Y-106390955D01*
X149779455Y-106401716D01*
X149800840Y-106415717D01*
X149824882Y-106431992D01*
X149849152Y-106448683D01*
X149882491Y-106471598D01*
X149908868Y-106489618D01*
X149929229Y-106503284D01*
X149944514Y-106513139D01*
X149955666Y-106519724D01*
X149963627Y-106523581D01*
X149969341Y-106525252D01*
X149973749Y-106525279D01*
X149977795Y-106524204D01*
X149982419Y-106522569D01*
X149991694Y-106519325D01*
X150011067Y-106512020D01*
X150034345Y-106502813D01*
X150059608Y-106492512D01*
X150084932Y-106481923D01*
X150108398Y-106471855D01*
X150128082Y-106463114D01*
X150142063Y-106456508D01*
X150148419Y-106452843D01*
X150149708Y-106450164D01*
X150153113Y-106438419D01*
X150157737Y-106418931D01*
X150163251Y-106393197D01*
X150169327Y-106362712D01*
X150175635Y-106328974D01*
X150179137Y-106309831D01*
X150185295Y-106277076D01*
X150190957Y-106248067D01*
X150195802Y-106224391D01*
X150199511Y-106207639D01*
X150201762Y-106199398D01*
X150206528Y-106187772D01*
X150336085Y-106189142D01*
G37*
%TO.C,C8*%
D12*
X154882500Y-98192164D02*
X154882500Y-98407836D01*
X155602500Y-98192164D02*
X155602500Y-98407836D01*
%TO.C,C1*%
X143784664Y-97260000D02*
X144000336Y-97260000D01*
X143784664Y-97980000D02*
X144000336Y-97980000D01*
%TO.C,C3*%
X144812500Y-100930580D02*
X144812500Y-100649420D01*
X145832500Y-100930580D02*
X145832500Y-100649420D01*
%TO.C,C4*%
X146412500Y-100930580D02*
X146412500Y-100649420D01*
X147432500Y-100930580D02*
X147432500Y-100649420D01*
%TO.C,Card1*%
D13*
X143612500Y-111490000D02*
X143612500Y-112580000D01*
X143612500Y-114440000D02*
X143612500Y-116180000D01*
X143612500Y-116180000D02*
X153772500Y-116180000D01*
X144962500Y-111490000D02*
X143612500Y-111490000D01*
X146272500Y-110600000D02*
X146272500Y-110980000D01*
X152372500Y-110600000D02*
X146272500Y-110600000D01*
X152372500Y-110930000D02*
X152372500Y-110600000D01*
X155042500Y-111490000D02*
X153772500Y-111490000D01*
X155042500Y-112130000D02*
X155042500Y-111490000D01*
X145412500Y-110220000D02*
G75*
G02*
X144852500Y-110220000I-280000J0D01*
G01*
X144852500Y-110220000D02*
G75*
G02*
X145412500Y-110220000I280000J0D01*
G01*
D14*
X155032500Y-110610000D02*
G75*
G02*
X154972500Y-110610000I-30000J0D01*
G01*
X154972500Y-110610000D02*
G75*
G02*
X155032500Y-110610000I30000J0D01*
G01*
%TO.C,C5*%
D12*
X143774664Y-98340000D02*
X143990336Y-98340000D01*
X143774664Y-99060000D02*
X143990336Y-99060000D01*
%TO.C,D6*%
X149002500Y-100892500D02*
X149002500Y-104902500D01*
X149002500Y-100892500D02*
X151002500Y-100892500D01*
X151002500Y-100892500D02*
X151002500Y-104902500D01*
%TO.C,R14*%
X146390000Y-109336359D02*
X146390000Y-109643641D01*
X147150000Y-109336359D02*
X147150000Y-109643641D01*
%TO.C,R13*%
X147440000Y-109336359D02*
X147440000Y-109643641D01*
X148200000Y-109336359D02*
X148200000Y-109643641D01*
%TO.C,C6*%
X153987500Y-95851252D02*
X153987500Y-95328748D01*
X155457500Y-95851252D02*
X155457500Y-95328748D01*
%TO.C,C12*%
X150482500Y-109402164D02*
X150482500Y-109617836D01*
X151202500Y-109402164D02*
X151202500Y-109617836D01*
%TO.C,J3*%
D13*
X145392500Y-99090000D02*
X145392500Y-94880000D01*
X146342500Y-97520000D02*
X146342500Y-99090000D01*
X146342500Y-99090000D02*
X145392500Y-99090000D01*
X147612500Y-97520000D02*
X146342500Y-97520000D01*
X149612500Y-97520000D02*
X149072500Y-97520000D01*
X151742500Y-91500000D02*
X146942500Y-91500000D01*
X152342500Y-97520000D02*
X151072500Y-97520000D01*
X152342500Y-99090000D02*
X152342500Y-97520000D01*
X153292500Y-99090000D02*
X152342500Y-99090000D01*
X153292500Y-99090000D02*
X153292500Y-94880000D01*
D14*
X145422500Y-100100000D02*
G75*
G02*
X145362500Y-100100000I-30000J0D01*
G01*
X145362500Y-100100000D02*
G75*
G02*
X145422500Y-100100000I30000J0D01*
G01*
%TO.C,R16*%
D12*
X154406141Y-104750000D02*
X154098859Y-104750000D01*
X154406141Y-105510000D02*
X154098859Y-105510000D01*
%TO.C,R6*%
X143738859Y-95120000D02*
X144046141Y-95120000D01*
X143738859Y-95880000D02*
X144046141Y-95880000D01*
%TO.C,C9*%
X143774664Y-94030000D02*
X143990336Y-94030000D01*
X143774664Y-94750000D02*
X143990336Y-94750000D01*
%TO.C,R17*%
X152406141Y-104750000D02*
X152098859Y-104750000D01*
X152406141Y-105510000D02*
X152098859Y-105510000D01*
%TO.C,C2*%
X143192500Y-100930580D02*
X143192500Y-100649420D01*
X144212500Y-100930580D02*
X144212500Y-100649420D01*
%TO.C,R15*%
X151482500Y-109356359D02*
X151482500Y-109663641D01*
X152242500Y-109356359D02*
X152242500Y-109663641D01*
%TO.C,C13*%
X149472500Y-109412164D02*
X149472500Y-109627836D01*
X150192500Y-109412164D02*
X150192500Y-109627836D01*
%TO.C,R1*%
X144046141Y-96190000D02*
X143738859Y-96190000D01*
X144046141Y-96950000D02*
X143738859Y-96950000D01*
%TO.C,U1*%
X152462500Y-99430000D02*
X152462500Y-99480000D01*
X152462500Y-102500000D02*
X152462500Y-102550000D01*
X152462500Y-102550000D02*
X154282500Y-102550000D01*
X154282500Y-99430000D02*
X152462500Y-99430000D01*
X154282500Y-99480000D02*
X154282500Y-99430000D01*
X154282500Y-101380000D02*
X154282500Y-100600000D01*
X154282500Y-102550000D02*
X154282500Y-102500000D01*
X152162500Y-102830000D02*
X151682500Y-102830000D01*
X151922500Y-102500000D01*
X152162500Y-102830000D01*
G36*
X152162500Y-102830000D02*
G01*
X151682500Y-102830000D01*
X151922500Y-102500000D01*
X152162500Y-102830000D01*
G37*
%TO.C,D5*%
X152397500Y-103015000D02*
X154682500Y-103015000D01*
X152397500Y-104485000D02*
X152397500Y-103015000D01*
X154682500Y-104485000D02*
X152397500Y-104485000D01*
%TO.C,U3*%
D15*
X143592500Y-102460000D02*
X148752500Y-102460000D01*
X143592500Y-102660000D02*
X143592500Y-102460000D01*
X143592500Y-107420000D02*
X143592500Y-107620000D01*
X143592500Y-107620000D02*
X148752500Y-107620000D01*
X148752500Y-102460000D02*
X148752500Y-102660000D01*
X148752500Y-107620000D02*
X148752500Y-107420000D01*
D14*
X143702500Y-102540000D02*
G75*
G02*
X143642500Y-102540000I-30000J0D01*
G01*
X143642500Y-102540000D02*
G75*
G02*
X143702500Y-102540000I30000J0D01*
G01*
%TO.C,R11*%
D12*
X151412500Y-103703641D02*
X151412500Y-103396359D01*
X152172500Y-103703641D02*
X152172500Y-103396359D01*
%TO.C,C7*%
X153842500Y-98182164D02*
X153842500Y-98397836D01*
X154562500Y-98182164D02*
X154562500Y-98397836D01*
%TO.C,Q5*%
X152612500Y-105930000D02*
X152612500Y-106930000D01*
X152612500Y-108050000D02*
X152612500Y-109050000D01*
X152612500Y-109050000D02*
X154132500Y-109050000D01*
X154132500Y-105930000D02*
X152612500Y-105930000D01*
X154132500Y-105980000D02*
X154132500Y-105930000D01*
X154132500Y-107880000D02*
X154132500Y-107100000D01*
X154132500Y-109050000D02*
X154132500Y-109000000D01*
X154912500Y-107440000D02*
X154432500Y-107440000D01*
X154672500Y-107110000D01*
X154912500Y-107440000D01*
G36*
X154912500Y-107440000D02*
G01*
X154432500Y-107440000D01*
X154672500Y-107110000D01*
X154912500Y-107440000D01*
G37*
%TD*%
M02*
