%TF.GenerationSoftware,KiCad,Pcbnew,10.0.0*%
%TF.CreationDate,2026-09-04T02:36:42+03:00*%
%TF.ProjectId,Trochi,54726f63-6869-42e6-9b69-6361645f7063,v2.0*%
%TF.SameCoordinates,Original*%
%TF.FileFunction,Legend,Bot*%
%TF.FilePolarity,Positive*%
%FSLAX46Y46*%
G04 Gerber Fmt 4.6, Leading zero omitted, Abs format (unit mm)*
G04 Created by KiCad (PCBNEW 10.0.0) date 2026-09-04 02:36:42*
%MOMM*%
%LPD*%
G01*
G04 APERTURE LIST*
%ADD10C,0.120000*%
%ADD11C,0.250000*%
%ADD12C,0.060000*%
%ADD13C,0.150000*%
G04 APERTURE END LIST*
%TO.C,C8*%
D10*
X154882500Y-98192164D02*
X154882500Y-98407836D01*
X155602500Y-98192164D02*
X155602500Y-98407836D01*
%TO.C,C1*%
X143784664Y-97260000D02*
X144000336Y-97260000D01*
X143784664Y-97980000D02*
X144000336Y-97980000D01*
%TO.C,C3*%
X144812500Y-100930580D02*
X144812500Y-100649420D01*
X145832500Y-100930580D02*
X145832500Y-100649420D01*
%TO.C,C4*%
X146412500Y-100930580D02*
X146412500Y-100649420D01*
X147432500Y-100930580D02*
X147432500Y-100649420D01*
%TO.C,Card1*%
D11*
X143612500Y-111490000D02*
X143612500Y-112580000D01*
X143612500Y-114440000D02*
X143612500Y-116180000D01*
X143612500Y-116180000D02*
X153772500Y-116180000D01*
X144962500Y-111490000D02*
X143612500Y-111490000D01*
X146272500Y-110600000D02*
X146272500Y-110980000D01*
X152372500Y-110600000D02*
X146272500Y-110600000D01*
X152372500Y-110930000D02*
X152372500Y-110600000D01*
X155042500Y-111490000D02*
X153772500Y-111490000D01*
X155042500Y-112130000D02*
X155042500Y-111490000D01*
X145412500Y-110220000D02*
G75*
G02*
X144852500Y-110220000I-280000J0D01*
G01*
X144852500Y-110220000D02*
G75*
G02*
X145412500Y-110220000I280000J0D01*
G01*
D12*
X155032500Y-110610000D02*
G75*
G02*
X154972500Y-110610000I-30000J0D01*
G01*
X154972500Y-110610000D02*
G75*
G02*
X155032500Y-110610000I30000J0D01*
G01*
%TO.C,C5*%
D10*
X143774664Y-98340000D02*
X143990336Y-98340000D01*
X143774664Y-99060000D02*
X143990336Y-99060000D01*
%TO.C,D6*%
X149002500Y-100892500D02*
X149002500Y-104902500D01*
X149002500Y-100892500D02*
X151002500Y-100892500D01*
X151002500Y-100892500D02*
X151002500Y-104902500D01*
%TO.C,R14*%
X146390000Y-109336359D02*
X146390000Y-109643641D01*
X147150000Y-109336359D02*
X147150000Y-109643641D01*
%TO.C,R13*%
X147440000Y-109336359D02*
X147440000Y-109643641D01*
X148200000Y-109336359D02*
X148200000Y-109643641D01*
%TO.C,C6*%
X153987500Y-95851252D02*
X153987500Y-95328748D01*
X155457500Y-95851252D02*
X155457500Y-95328748D01*
%TO.C,C12*%
X150482500Y-109402164D02*
X150482500Y-109617836D01*
X151202500Y-109402164D02*
X151202500Y-109617836D01*
%TO.C,J3*%
D11*
X145392500Y-99090000D02*
X145392500Y-94880000D01*
X146342500Y-97520000D02*
X146342500Y-99090000D01*
X146342500Y-99090000D02*
X145392500Y-99090000D01*
X147612500Y-97520000D02*
X146342500Y-97520000D01*
X149612500Y-97520000D02*
X149072500Y-97520000D01*
X151742500Y-91500000D02*
X146942500Y-91500000D01*
X152342500Y-97520000D02*
X151072500Y-97520000D01*
X152342500Y-99090000D02*
X152342500Y-97520000D01*
X153292500Y-99090000D02*
X152342500Y-99090000D01*
X153292500Y-99090000D02*
X153292500Y-94880000D01*
D12*
X145422500Y-100100000D02*
G75*
G02*
X145362500Y-100100000I-30000J0D01*
G01*
X145362500Y-100100000D02*
G75*
G02*
X145422500Y-100100000I30000J0D01*
G01*
%TO.C,R16*%
D10*
X154406141Y-104750000D02*
X154098859Y-104750000D01*
X154406141Y-105510000D02*
X154098859Y-105510000D01*
%TO.C,R6*%
X143738859Y-95120000D02*
X144046141Y-95120000D01*
X143738859Y-95880000D02*
X144046141Y-95880000D01*
%TO.C,C9*%
X143774664Y-94030000D02*
X143990336Y-94030000D01*
X143774664Y-94750000D02*
X143990336Y-94750000D01*
%TO.C,R17*%
X152406141Y-104750000D02*
X152098859Y-104750000D01*
X152406141Y-105510000D02*
X152098859Y-105510000D01*
%TO.C,C2*%
X143192500Y-100930580D02*
X143192500Y-100649420D01*
X144212500Y-100930580D02*
X144212500Y-100649420D01*
%TO.C,R15*%
X151482500Y-109356359D02*
X151482500Y-109663641D01*
X152242500Y-109356359D02*
X152242500Y-109663641D01*
%TO.C,C13*%
X149472500Y-109412164D02*
X149472500Y-109627836D01*
X150192500Y-109412164D02*
X150192500Y-109627836D01*
%TO.C,R1*%
X144046141Y-96190000D02*
X143738859Y-96190000D01*
X144046141Y-96950000D02*
X143738859Y-96950000D01*
%TO.C,U1*%
X152462500Y-99430000D02*
X152462500Y-99480000D01*
X152462500Y-102500000D02*
X152462500Y-102550000D01*
X152462500Y-102550000D02*
X154282500Y-102550000D01*
X154282500Y-99430000D02*
X152462500Y-99430000D01*
X154282500Y-99480000D02*
X154282500Y-99430000D01*
X154282500Y-101380000D02*
X154282500Y-100600000D01*
X154282500Y-102550000D02*
X154282500Y-102500000D01*
X152162500Y-102830000D02*
X151682500Y-102830000D01*
X151922500Y-102500000D01*
X152162500Y-102830000D01*
G36*
X152162500Y-102830000D02*
G01*
X151682500Y-102830000D01*
X151922500Y-102500000D01*
X152162500Y-102830000D01*
G37*
%TO.C,D5*%
X152397500Y-103015000D02*
X154682500Y-103015000D01*
X152397500Y-104485000D02*
X152397500Y-103015000D01*
X154682500Y-104485000D02*
X152397500Y-104485000D01*
%TO.C,U3*%
D13*
X143592500Y-102460000D02*
X148752500Y-102460000D01*
X143592500Y-102660000D02*
X143592500Y-102460000D01*
X143592500Y-107420000D02*
X143592500Y-107620000D01*
X143592500Y-107620000D02*
X148752500Y-107620000D01*
X148752500Y-102460000D02*
X148752500Y-102660000D01*
X148752500Y-107620000D02*
X148752500Y-107420000D01*
D12*
X143702500Y-102540000D02*
G75*
G02*
X143642500Y-102540000I-30000J0D01*
G01*
X143642500Y-102540000D02*
G75*
G02*
X143702500Y-102540000I30000J0D01*
G01*
%TO.C,R11*%
D10*
X151412500Y-103703641D02*
X151412500Y-103396359D01*
X152172500Y-103703641D02*
X152172500Y-103396359D01*
%TO.C,C7*%
X153842500Y-98182164D02*
X153842500Y-98397836D01*
X154562500Y-98182164D02*
X154562500Y-98397836D01*
%TO.C,Q5*%
X152612500Y-105930000D02*
X152612500Y-106930000D01*
X152612500Y-108050000D02*
X152612500Y-109050000D01*
X152612500Y-109050000D02*
X154132500Y-109050000D01*
X154132500Y-105930000D02*
X152612500Y-105930000D01*
X154132500Y-105980000D02*
X154132500Y-105930000D01*
X154132500Y-107880000D02*
X154132500Y-107100000D01*
X154132500Y-109050000D02*
X154132500Y-109000000D01*
X154912500Y-107440000D02*
X154432500Y-107440000D01*
X154672500Y-107110000D01*
X154912500Y-107440000D01*
G36*
X154912500Y-107440000D02*
G01*
X154432500Y-107440000D01*
X154672500Y-107110000D01*
X154912500Y-107440000D01*
G37*
%TD*%
M02*
