%TF.GenerationSoftware,KiCad,Pcbnew,10.0.0*%
%TF.CreationDate,2026-09-05T18:27:09+03:00*%
%TF.ProjectId,Trochi,54726f63-6869-42e6-9b69-6361645f7063,v2.0*%
%TF.SameCoordinates,Original*%
%TF.FileFunction,Soldermask,Top*%
%TF.FilePolarity,Negative*%
%FSLAX46Y46*%
G04 Gerber Fmt 4.6, Leading zero omitted, Abs format (unit mm)*
G04 Created by KiCad (PCBNEW 10.0.0) date 2026-09-05 18:27:09*
%MOMM*%
%LPD*%
G01*
G04 APERTURE LIST*
G04 Aperture macros list*
%AMRoundRect*
0 Rectangle with rounded corners*
0 $1 Rounding radius*
0 $2 $3 $4 $5 $6 $7 $8 $9 X,Y pos of 4 corners*
0 Add a 4 corners polygon primitive as box body*
4,1,4,$2,$3,$4,$5,$6,$7,$8,$9,$2,$3,0*
0 Add four circle primitives for the rounded corners*
1,1,$1+$1,$2,$3*
1,1,$1+$1,$4,$5*
1,1,$1+$1,$6,$7*
1,1,$1+$1,$8,$9*
0 Add four rect primitives between the rounded corners*
20,1,$1+$1,$2,$3,$4,$5,0*
20,1,$1+$1,$4,$5,$6,$7,0*
20,1,$1+$1,$6,$7,$8,$9,0*
20,1,$1+$1,$8,$9,$2,$3,0*%
G04 Aperture macros list end*
%ADD10R,1.200000X1.800000*%
%ADD11R,0.600000X1.550000*%
%ADD12RoundRect,0.150000X0.150000X-0.587500X0.150000X0.587500X-0.150000X0.587500X-0.150000X-0.587500X0*%
%ADD13RoundRect,0.135000X0.185000X-0.135000X0.185000X0.135000X-0.185000X0.135000X-0.185000X-0.135000X0*%
%ADD14RoundRect,0.135000X-0.135000X-0.185000X0.135000X-0.185000X0.135000X0.185000X-0.135000X0.185000X0*%
%ADD15RoundRect,0.135000X0.135000X0.185000X-0.135000X0.185000X-0.135000X-0.185000X0.135000X-0.185000X0*%
%ADD16C,1.700000*%
%ADD17RoundRect,0.150000X-0.150000X0.587500X-0.150000X-0.587500X0.150000X-0.587500X0.150000X0.587500X0*%
%ADD18RoundRect,0.225000X0.375000X-0.225000X0.375000X0.225000X-0.375000X0.225000X-0.375000X-0.225000X0*%
%ADD19RoundRect,0.140000X-0.170000X0.140000X-0.170000X-0.140000X0.170000X-0.140000X0.170000X0.140000X0*%
%ADD20RoundRect,0.225000X-0.375000X0.225000X-0.375000X-0.225000X0.375000X-0.225000X0.375000X0.225000X0*%
%ADD21RoundRect,0.135000X-0.185000X0.135000X-0.185000X-0.135000X0.185000X-0.135000X0.185000X0.135000X0*%
%ADD22RoundRect,0.225000X0.225000X0.375000X-0.225000X0.375000X-0.225000X-0.375000X0.225000X-0.375000X0*%
%ADD23RoundRect,0.140000X0.170000X-0.140000X0.170000X0.140000X-0.170000X0.140000X-0.170000X-0.140000X0*%
%ADD24R,0.600000X0.300000*%
%ADD25R,0.300000X0.600000*%
G04 APERTURE END LIST*
D10*
%TO.C,J6*%
X148260000Y-92130000D03*
X144660000Y-92130000D03*
D11*
X146960000Y-96010000D03*
X145960000Y-96010000D03*
%TD*%
D12*
%TO.C,Q3*%
X143710000Y-99067500D03*
X145610000Y-99067500D03*
X144660000Y-97192500D03*
%TD*%
D10*
%TO.C,J1*%
X144680000Y-115300000D03*
X148280000Y-115300000D03*
D11*
X145980000Y-111420000D03*
X146980000Y-111420000D03*
%TD*%
D13*
%TO.C,R4*%
X143770000Y-111920000D03*
X143770000Y-110900000D03*
%TD*%
D14*
%TO.C,R10*%
X153670000Y-100850000D03*
X154690000Y-100850000D03*
%TD*%
D15*
%TO.C,R8*%
X154690000Y-101920000D03*
X153670000Y-101920000D03*
%TD*%
D10*
%TO.C,J2*%
X150490000Y-115297500D03*
X154090000Y-115297500D03*
D11*
X151790000Y-111417500D03*
X152790000Y-111417500D03*
%TD*%
D16*
%TO.C,J4*%
X141690000Y-94160000D03*
X141690000Y-96700000D03*
X141690000Y-99240000D03*
X141690000Y-101780000D03*
X141690000Y-104320000D03*
X141690000Y-106860000D03*
X141690000Y-109400000D03*
X141690000Y-111940000D03*
X141690000Y-114480000D03*
%TD*%
D10*
%TO.C,J7*%
X154070000Y-92150000D03*
X150470000Y-92150000D03*
D11*
X152770000Y-96030000D03*
X151770000Y-96030000D03*
%TD*%
D17*
%TO.C,Q2*%
X154940000Y-108532500D03*
X153040000Y-108532500D03*
X153990000Y-110407500D03*
%TD*%
D18*
%TO.C,D3*%
X147690000Y-101230000D03*
X147690000Y-97930000D03*
%TD*%
D13*
%TO.C,R3*%
X155220000Y-113860000D03*
X155220000Y-112840000D03*
%TD*%
D14*
%TO.C,R7*%
X144150000Y-100860000D03*
X145170000Y-100860000D03*
%TD*%
D19*
%TO.C,C10*%
X149370000Y-100540000D03*
X149370000Y-101500000D03*
%TD*%
D20*
%TO.C,D2*%
X153620000Y-103302500D03*
X153620000Y-106602500D03*
%TD*%
D14*
%TO.C,R9*%
X144140000Y-101960000D03*
X145160000Y-101960000D03*
%TD*%
D21*
%TO.C,R12*%
X144270000Y-103260000D03*
X144270000Y-104280000D03*
%TD*%
D22*
%TO.C,D1*%
X151020000Y-108990000D03*
X147720000Y-108990000D03*
%TD*%
D12*
%TO.C,Q4*%
X153110000Y-99075000D03*
X155010000Y-99075000D03*
X154060000Y-97200000D03*
%TD*%
D23*
%TO.C,C11*%
X146450000Y-104250000D03*
X146450000Y-103290000D03*
%TD*%
D13*
%TO.C,R2*%
X143769999Y-113830000D03*
X143770001Y-112810000D03*
%TD*%
%TO.C,R5*%
X155220000Y-111900000D03*
X155220000Y-110880000D03*
%TD*%
D18*
%TO.C,D4*%
X151050000Y-101237500D03*
X151050000Y-97937500D03*
%TD*%
D23*
%TO.C,C14*%
X145350000Y-104250000D03*
X145350000Y-103290000D03*
%TD*%
D17*
%TO.C,Q1*%
X145800000Y-108582500D03*
X143900000Y-108582500D03*
X144850000Y-110457500D03*
%TD*%
D16*
%TO.C,J5*%
X156930000Y-94160000D03*
X156930000Y-96700000D03*
X156930000Y-99240000D03*
X156930000Y-101780000D03*
X156930000Y-104320000D03*
X156930000Y-106860000D03*
X156930000Y-109400000D03*
X156930000Y-111940000D03*
X156930000Y-114480000D03*
%TD*%
D24*
%TO.C,IC1*%
X150460000Y-105070000D03*
X150460000Y-104570000D03*
X150460000Y-104070000D03*
X150460000Y-103570000D03*
D25*
X149810000Y-103420000D03*
X149310000Y-103420000D03*
X148810000Y-103420000D03*
D24*
X148160000Y-103570000D03*
X148160000Y-104070000D03*
X148160000Y-104570000D03*
X148160000Y-105070000D03*
D25*
X148810000Y-105220000D03*
X149310000Y-105220000D03*
X149810000Y-105220000D03*
%TD*%
M02*
