%TF.GenerationSoftware,KiCad,Pcbnew,10.0.0*%
%TF.CreationDate,2026-09-04T02:36:42+03:00*%
%TF.ProjectId,Trochi,54726f63-6869-42e6-9b69-6361645f7063,v2.0*%
%TF.SameCoordinates,Original*%
%TF.FileFunction,Legend,Top*%
%TF.FilePolarity,Positive*%
%FSLAX46Y46*%
G04 Gerber Fmt 4.6, Leading zero omitted, Abs format (unit mm)*
G04 Created by KiCad (PCBNEW 10.0.0) date 2026-09-04 02:36:42*
%MOMM*%
%LPD*%
G01*
G04 APERTURE LIST*
%ADD10C,0.250000*%
%ADD11C,0.060000*%
%ADD12C,0.120000*%
%ADD13C,0.100000*%
%ADD14C,0.000000*%
G04 APERTURE END LIST*
%TO.C,J6*%
D10*
X144460000Y-95720000D02*
X144460000Y-93260000D01*
X145430000Y-95720000D02*
X144460000Y-95720000D01*
X147430000Y-91420000D02*
X145490000Y-91420000D01*
X148460000Y-93870000D02*
X148460000Y-93260000D01*
X148460000Y-93870000D02*
X148460000Y-95720000D01*
X148460000Y-95720000D02*
X147490000Y-95720000D01*
D11*
X148490000Y-96410000D02*
G75*
G02*
X148430000Y-96410000I-30000J0D01*
G01*
X148430000Y-96410000D02*
G75*
G02*
X148490000Y-96410000I30000J0D01*
G01*
%TO.C,Q3*%
D12*
X143100000Y-97370000D02*
X144100000Y-97370000D01*
X143100000Y-98890000D02*
X143100000Y-97370000D01*
X143150000Y-98890000D02*
X143100000Y-98890000D01*
X145050000Y-98890000D02*
X144270000Y-98890000D01*
X145220000Y-97370000D02*
X146220000Y-97370000D01*
X146220000Y-97370000D02*
X146220000Y-98890000D01*
X146220000Y-98890000D02*
X146170000Y-98890000D01*
X144610000Y-99670000D02*
X144280000Y-99430000D01*
X144610000Y-99190000D01*
X144610000Y-99670000D01*
G36*
X144610000Y-99670000D02*
G01*
X144280000Y-99430000D01*
X144610000Y-99190000D01*
X144610000Y-99670000D01*
G37*
%TO.C,J1*%
D10*
X144480000Y-111710000D02*
X145450000Y-111710000D01*
X144480000Y-113560000D02*
X144480000Y-111710000D01*
X144480000Y-113560000D02*
X144480000Y-114170000D01*
X145510000Y-116010000D02*
X147450000Y-116010000D01*
X147510000Y-111710000D02*
X148480000Y-111710000D01*
X148480000Y-111710000D02*
X148480000Y-114170000D01*
D11*
X144510000Y-111020000D02*
G75*
G02*
X144450000Y-111020000I-30000J0D01*
G01*
X144450000Y-111020000D02*
G75*
G02*
X144510000Y-111020000I30000J0D01*
G01*
%TO.C,R4*%
D12*
X143390000Y-111563641D02*
X143390000Y-111256359D01*
X144150000Y-111563641D02*
X144150000Y-111256359D01*
%TO.C,R10*%
X154026359Y-100470000D02*
X154333641Y-100470000D01*
X154026359Y-101230000D02*
X154333641Y-101230000D01*
%TO.C,R8*%
X154333641Y-101540000D02*
X154026359Y-101540000D01*
X154333641Y-102300000D02*
X154026359Y-102300000D01*
%TO.C,J2*%
D10*
X150290000Y-111707500D02*
X151260000Y-111707500D01*
X150290000Y-113557500D02*
X150290000Y-111707500D01*
X150290000Y-113557500D02*
X150290000Y-114167500D01*
X151320000Y-116007500D02*
X153260000Y-116007500D01*
X153320000Y-111707500D02*
X154290000Y-111707500D01*
X154290000Y-111707500D02*
X154290000Y-114167500D01*
D11*
X150320000Y-111017500D02*
G75*
G02*
X150260000Y-111017500I-30000J0D01*
G01*
X150260000Y-111017500D02*
G75*
G02*
X150320000Y-111017500I30000J0D01*
G01*
%TO.C,J7*%
D10*
X150270000Y-95740000D02*
X150270000Y-93280000D01*
X151240000Y-95740000D02*
X150270000Y-95740000D01*
X153240000Y-91440000D02*
X151300000Y-91440000D01*
X154270000Y-93890000D02*
X154270000Y-93280000D01*
X154270000Y-93890000D02*
X154270000Y-95740000D01*
X154270000Y-95740000D02*
X153300000Y-95740000D01*
D11*
X154300000Y-96430000D02*
G75*
G02*
X154240000Y-96430000I-30000J0D01*
G01*
X154240000Y-96430000D02*
G75*
G02*
X154300000Y-96430000I30000J0D01*
G01*
%TO.C,Q2*%
D12*
X152430000Y-108710000D02*
X152480000Y-108710000D01*
X152430000Y-110230000D02*
X152430000Y-108710000D01*
X153430000Y-110230000D02*
X152430000Y-110230000D01*
X153600000Y-108710000D02*
X154380000Y-108710000D01*
X155500000Y-108710000D02*
X155550000Y-108710000D01*
X155550000Y-108710000D02*
X155550000Y-110230000D01*
X155550000Y-110230000D02*
X154550000Y-110230000D01*
X154370000Y-108170000D02*
X154040000Y-108410000D01*
X154040000Y-107930000D01*
X154370000Y-108170000D01*
G36*
X154370000Y-108170000D02*
G01*
X154040000Y-108410000D01*
X154040000Y-107930000D01*
X154370000Y-108170000D01*
G37*
%TO.C,D3*%
X146690000Y-101940000D02*
X146690000Y-97930000D01*
X146690000Y-101940000D02*
X148690000Y-101940000D01*
X148690000Y-101940000D02*
X148690000Y-97930000D01*
%TO.C,R3*%
X154840000Y-113503641D02*
X154840000Y-113196359D01*
X155600000Y-113503641D02*
X155600000Y-113196359D01*
%TO.C,R7*%
X144506359Y-100480000D02*
X144813641Y-100480000D01*
X144506359Y-101240000D02*
X144813641Y-101240000D01*
%TO.C,C10*%
X149010000Y-100912164D02*
X149010000Y-101127836D01*
X149730000Y-100912164D02*
X149730000Y-101127836D01*
%TO.C,D2*%
X152620000Y-102592500D02*
X152620000Y-106602500D01*
X154620000Y-102592500D02*
X152620000Y-102592500D01*
X154620000Y-102592500D02*
X154620000Y-106602500D01*
%TO.C,R9*%
X144496359Y-101580000D02*
X144803641Y-101580000D01*
X144496359Y-102340000D02*
X144803641Y-102340000D01*
%TO.C,R12*%
X143890000Y-103616359D02*
X143890000Y-103923641D01*
X144650000Y-103616359D02*
X144650000Y-103923641D01*
%TO.C,D1*%
X151730000Y-107990000D02*
X147720000Y-107990000D01*
X151730000Y-109990000D02*
X147720000Y-109990000D01*
X151730000Y-109990000D02*
X151730000Y-107990000D01*
%TO.C,Q4*%
X152500000Y-97377500D02*
X153500000Y-97377500D01*
X152500000Y-98897500D02*
X152500000Y-97377500D01*
X152550000Y-98897500D02*
X152500000Y-98897500D01*
X154450000Y-98897500D02*
X153670000Y-98897500D01*
X154620000Y-97377500D02*
X155620000Y-97377500D01*
X155620000Y-97377500D02*
X155620000Y-98897500D01*
X155620000Y-98897500D02*
X155570000Y-98897500D01*
X154010000Y-99677500D02*
X153680000Y-99437500D01*
X154010000Y-99197500D01*
X154010000Y-99677500D01*
G36*
X154010000Y-99677500D02*
G01*
X153680000Y-99437500D01*
X154010000Y-99197500D01*
X154010000Y-99677500D01*
G37*
%TO.C,C11*%
X146090000Y-103877836D02*
X146090000Y-103662164D01*
X146810000Y-103877836D02*
X146810000Y-103662164D01*
%TO.C,R2*%
X143390001Y-113473641D02*
X143390000Y-113166359D01*
X144150000Y-113473641D02*
X144149999Y-113166359D01*
%TO.C,R5*%
X154840000Y-111543641D02*
X154840000Y-111236359D01*
X155600000Y-111543641D02*
X155600000Y-111236359D01*
%TO.C,D4*%
X150050000Y-101947500D02*
X150050000Y-97937500D01*
X150050000Y-101947500D02*
X152050000Y-101947500D01*
X152050000Y-101947500D02*
X152050000Y-97937500D01*
%TO.C,C14*%
X144990000Y-103877836D02*
X144990000Y-103662164D01*
X145710000Y-103877836D02*
X145710000Y-103662164D01*
%TO.C,Q1*%
X143290000Y-108760000D02*
X143340000Y-108760000D01*
X143290000Y-110280000D02*
X143290000Y-108760000D01*
X144290000Y-110280000D02*
X143290000Y-110280000D01*
X144460000Y-108760000D02*
X145240000Y-108760000D01*
X146360000Y-108760000D02*
X146410000Y-108760000D01*
X146410000Y-108760000D02*
X146410000Y-110280000D01*
X146410000Y-110280000D02*
X145410000Y-110280000D01*
X145230000Y-108220000D02*
X144900000Y-108460000D01*
X144900000Y-107980000D01*
X145230000Y-108220000D01*
G36*
X145230000Y-108220000D02*
G01*
X144900000Y-108460000D01*
X144900000Y-107980000D01*
X145230000Y-108220000D01*
G37*
%TO.C,IC1*%
D13*
X147810000Y-103070000D02*
X147810000Y-103320000D01*
X147810000Y-105570000D02*
X147810000Y-105320000D01*
X148510000Y-103070000D02*
X147810000Y-103070000D01*
X148510000Y-105570000D02*
X147810000Y-105570000D01*
X150810000Y-103070000D02*
X150110000Y-103070000D01*
X150810000Y-103220000D02*
X150810000Y-103070000D01*
X150810000Y-105320000D02*
X150810000Y-105570000D01*
X150810000Y-105570000D02*
X150110000Y-105570000D01*
D14*
X151210000Y-105020000D02*
X151209999Y-105020000D01*
X151209999Y-105020000D01*
X151209999Y-105020000D01*
X151209999Y-105020000D01*
X151209999Y-105020000D01*
X151209999Y-105020000D01*
X151209999Y-105020000D01*
X151209999Y-105019999D01*
X151209999Y-105019999D01*
X151209999Y-105019999D01*
X151209999Y-105019999D01*
X151209999Y-105019999D01*
X151210000Y-105019999D01*
X151210000Y-105019999D01*
X151210000Y-105019999D01*
X151210000Y-105019999D01*
X151210000Y-105019999D01*
X151210000Y-105019999D01*
X151210000Y-105019999D01*
X151210000Y-105019999D01*
X151210000Y-105019999D01*
X151210000Y-105019999D01*
X151210000Y-105019999D01*
X151210000Y-105019999D01*
X151210001Y-105019999D01*
X151210001Y-105019999D01*
X151210001Y-105019999D01*
X151210001Y-105019999D01*
X151210001Y-105019999D01*
X151210001Y-105019999D01*
X151210001Y-105020000D01*
X151210001Y-105020000D01*
X151210001Y-105020000D01*
X151210001Y-105020000D01*
X151210001Y-105020000D01*
X151210001Y-105020000D01*
X151210001Y-105020000D01*
X151210000Y-105020000D01*
X151210000Y-105020000D02*
X151210001Y-105020000D01*
X151210001Y-105020000D01*
X151210001Y-105020000D01*
X151210001Y-105020000D01*
X151210001Y-105020000D01*
X151210001Y-105020000D01*
X151210001Y-105020001D01*
X151210001Y-105020001D01*
X151210001Y-105020001D01*
X151210001Y-105020001D01*
X151210001Y-105020001D01*
X151210001Y-105020001D01*
X151210001Y-105020001D01*
X151210000Y-105020001D01*
X151210000Y-105020001D01*
X151210000Y-105020001D01*
X151210000Y-105020001D01*
X151210000Y-105020001D01*
X151210000Y-105020001D01*
X151210000Y-105020001D01*
X151210000Y-105020001D01*
X151210000Y-105020001D01*
X151210000Y-105020001D01*
X151210000Y-105020001D01*
X151210000Y-105020001D01*
X151209999Y-105020001D01*
X151209999Y-105020001D01*
X151209999Y-105020001D01*
X151209999Y-105020001D01*
X151209999Y-105020001D01*
X151209999Y-105020001D01*
X151209999Y-105020000D01*
X151209999Y-105020000D01*
X151209999Y-105020000D01*
X151209999Y-105020000D01*
X151209999Y-105020000D01*
X151209999Y-105020000D01*
X151210000Y-105020000D01*
D13*
D14*
X151210000Y-105120000D02*
X151209999Y-105120000D01*
X151209999Y-105120000D01*
X151209999Y-105120000D01*
X151209999Y-105120000D01*
X151209999Y-105120000D01*
X151209999Y-105120000D01*
X151209999Y-105120000D01*
X151209999Y-105119999D01*
X151209999Y-105119999D01*
X151209999Y-105119999D01*
X151209999Y-105119999D01*
X151209999Y-105119999D01*
X151210000Y-105119999D01*
X151210000Y-105119999D01*
X151210000Y-105119999D01*
X151210000Y-105119999D01*
X151210000Y-105119999D01*
X151210000Y-105119999D01*
X151210000Y-105119999D01*
X151210000Y-105119999D01*
X151210000Y-105119999D01*
X151210000Y-105119999D01*
X151210000Y-105119999D01*
X151210000Y-105119999D01*
X151210001Y-105119999D01*
X151210001Y-105119999D01*
X151210001Y-105119999D01*
X151210001Y-105119999D01*
X151210001Y-105119999D01*
X151210001Y-105119999D01*
X151210001Y-105120000D01*
X151210001Y-105120000D01*
X151210001Y-105120000D01*
X151210001Y-105120000D01*
X151210001Y-105120000D01*
X151210001Y-105120000D01*
X151210001Y-105120000D01*
X151210000Y-105120000D01*
X151210000Y-105120000D02*
X151210001Y-105120000D01*
X151210001Y-105120000D01*
X151210001Y-105120000D01*
X151210001Y-105120000D01*
X151210001Y-105120000D01*
X151210001Y-105120000D01*
X151210001Y-105120001D01*
X151210001Y-105120001D01*
X151210001Y-105120001D01*
X151210001Y-105120001D01*
X151210001Y-105120001D01*
X151210001Y-105120001D01*
X151210001Y-105120001D01*
X151210000Y-105120001D01*
X151210000Y-105120001D01*
X151210000Y-105120001D01*
X151210000Y-105120001D01*
X151210000Y-105120001D01*
X151210000Y-105120001D01*
X151210000Y-105120001D01*
X151210000Y-105120001D01*
X151210000Y-105120001D01*
X151210000Y-105120001D01*
X151210000Y-105120001D01*
X151210000Y-105120001D01*
X151209999Y-105120001D01*
X151209999Y-105120001D01*
X151209999Y-105120001D01*
X151209999Y-105120001D01*
X151209999Y-105120001D01*
X151209999Y-105120001D01*
X151209999Y-105120000D01*
X151209999Y-105120000D01*
X151209999Y-105120000D01*
X151209999Y-105120000D01*
X151209999Y-105120000D01*
X151209999Y-105120000D01*
X151210000Y-105120000D01*
D13*
X151210000Y-105020000D02*
G75*
G02*
X151210000Y-105120000I0J-50000D01*
G01*
X151210000Y-105120000D02*
G75*
G02*
X151210000Y-105020000I0J50000D01*
G01*
%TD*%
M02*
